<svg xmlns="http://www.w3.org/2000/svg" xmlns:xlink="http://www.w3.org/1999/xlink" width="775" height="409" viewBox="0 0 775 409">
  <defs>
    <clipPath id="clip-path">
      <rect id="Rectángulo_115" data-name="Rectángulo 115" width="775" height="409" transform="translate(260 324)" fill="#fff" stroke="#707070" stroke-width="1"/>
    </clipPath>
    <linearGradient id="linear-gradient" x1="0.5" y1="1" x2="0.5" gradientUnits="objectBoundingBox">
      <stop offset="0" stop-color="gray" stop-opacity="0.251"/>
      <stop offset="0.54" stop-color="gray" stop-opacity="0.122"/>
      <stop offset="1" stop-color="gray" stop-opacity="0.102"/>
    </linearGradient>
  </defs>
  <g id="Enmascarar_grupo_18" data-name="Enmascarar grupo 18" transform="translate(-260 -324)" clip-path="url(#clip-path)">
    <g id="undraw_successful_purchase_uyin" transform="translate(350.329 324.044)">
      <rect id="Rectángulo_116" data-name="Rectángulo 116" width="44.271" height="16.602" rx="2.861" transform="translate(182.619 42.611)" fill="#6c63ff" opacity="0.1"/>
      <rect id="Rectángulo_117" data-name="Rectángulo 117" width="44.271" height="16.602" rx="2.861" transform="translate(314.326 27.67)" fill="#6c63ff" opacity="0.1"/>
      <rect id="Rectángulo_118" data-name="Rectángulo 118" width="44.271" height="16.602" rx="2.861" transform="translate(289.977 196.454)" fill="#6c63ff" opacity="0.1"/>
      <rect id="Rectángulo_119" data-name="Rectángulo 119" width="44.271" height="16.602" rx="2.861" transform="translate(309.899 214.716)" fill="#6c63ff" opacity="0.1"/>
      <rect id="Rectángulo_120" data-name="Rectángulo 120" width="44.271" height="16.602" rx="2.861" transform="translate(428.325 206.415)" fill="#6c63ff" opacity="0.1"/>
      <rect id="Rectángulo_121" data-name="Rectángulo 121" width="44.271" height="16.602" rx="2.861" transform="translate(68.067 219.696)" fill="#6c63ff" opacity="0.1"/>
      <rect id="Rectángulo_122" data-name="Rectángulo 122" width="44.271" height="16.602" rx="2.861" transform="translate(276.142 232.978)" fill="#6c63ff" opacity="0.1"/>
      <path id="Trazado_344" data-name="Trazado 344" d="M432.7,145.381,412.415,86.49,405.121,87.6l-6.53.836c.166-2.214.454-10.16-3.6-14.327a10.885,10.885,0,0,0-3.42-4.875c-9.706-8.9-11.726,9.3-11.726,9.3s-2.214,3.841-5.263,9.208l-1.6-.3-.454,3.962c-6.751,11.937-15.722,28.09-15.722,29.606a20,20,0,0,1-1.212,5.661s-6.873,11.322-9.3,16.989a27.166,27.166,0,0,1-6.087,8.9s-.587.448-1.549,1.107a13.833,13.833,0,0,1,.553-3.16c.885-2.894,2.944-5.373,3.492-8.351a9.748,9.748,0,0,0,.144-2.164c.127-3.492-1.572-6.928-2.28-10.42-.825-4.045-.382-8.5-2.54-12.014a12.4,12.4,0,0,0-7.664-5.124c-2.811-.7-5.578-.454-8.412-.753-2.6-.277-5.086-1.428-7.687-1.854a9.922,9.922,0,0,0-4.217,0c-4.4,1.212-5.777,6.757-9.175,9.806-1.223,1.107-2.723,1.87-3.829,3.082a9.263,9.263,0,0,0-2.086,6.641,14.149,14.149,0,0,0,.144,2.418c.421,2.894,1.538,5.634,2.214,8.472a29.332,29.332,0,0,1,.825,6.414c0,.487,0,.974-.044,1.455a5.108,5.108,0,0,1-.747,2.767,7.815,7.815,0,0,1-2.529,1.8,19.618,19.618,0,0,1-6.375-9.042s-.149.188-.4.553v-.553s-5.534-8.124-6.375-14.759l1.926.2,4.427-62.284-11.306-1.66c-.315-3.215-1.173-7.88-3.448-11.284,1.9-3.741,2.855-8.8-5.467-9.308-9.74-.592-9.142,6.995-8.107,11.145a27.917,27.917,0,0,0-.553,6.89l-9.961-1.45-.055.808h-2.368L239.5,125.47l6.176-.31,22.634,2.357c1.81,16.452,4.654,36.784,8.03,41.576a4.087,4.087,0,0,0,.371.459v29.114s-.4,37.631-7.283,43.679a35.97,35.97,0,0,1,13.16-2.064q-.116.374-.232.8a70.6,70.6,0,0,0-2.1,11.333q-.144,1.267-.26,2.645a142.7,142.7,0,0,0,.349,25.307c2.833,29.927,7.283,51.366,7.283,51.366l1.24,17.4s-1.212,29.523,2.02,39.23a14.648,14.648,0,0,0,4.139,2.684c.028.277.061.553.089.847s.072.747.111,1.134c-1.45.659-4.156,3.271-4.743,13.53,0,0,.808,7.687-1.212,11.322s-.808,14.156,5.257,15.368a32.412,32.412,0,0,0,11.726,0s2.833,0,.808-10.11l-.354-2.59c-.044-5.008.166-10.371,1.162-11.97,2.02-3.237-.808-6.469-.808-6.469s-.2.111-.526.26a47.838,47.838,0,0,1-.957-10.8,7.744,7.744,0,0,1,.083-.858,17.031,17.031,0,0,0,3.426-2.363V349.937s-.4-59.047,4.045-60.264c0,0,2.02,21.433,1.212,31.953a100.377,100.377,0,0,0,1.212,21.842l.808,42.871s.775.371,2.025.808l-.083.78c-.493,4.765-1.284,11.959-2,16.364a3.254,3.254,0,0,0-1.965,2.269c-1.212,4.045-.4,14.156-2.833,16.989-1.433,1.66-3.149,5.041-2.308,7.432-.526,2.1-.293,5.373,5.949,5.916,9.3.808,13.348-4.045,13.348-4.045s1.212-2.02,0-5.661.4-10.11.4-10.11.869-5.49-.553-6.209c-.122-.653-.232-1.068-.232-1.068a4.87,4.87,0,0,0-1.278-3.365c-.033-4.233.138-12.064,1.627-17.221.089-.293.177-.553.271-.858a10.926,10.926,0,0,0,3.42-1.2s-.4-9.3,2.429-15.772S335.8,339.03,335.8,339.03s-1.212-6.8.5-12.313a120.815,120.815,0,0,0,4.394-18.7l2.385-16.707s6.281-20.337-1.992-41.211q-.506-1.295-1.107-2.59c-.686-1.5-1.45-3-2.3-4.5-.133-.232-.277-.47-.415-.7.869-.216,1.361-.343,1.361-.343S327.7,216.5,334.575,203.537c0,0,3.874-3.874,4.427-8.129.686-5.628,1.433-11.25,2.662-16.784l.216-.974s.033-.188.089-.526c.155-.1.3-.2.454-.315,11.654-8.511,21.7-44.05,21.7-44.05l3.237-6.087,1.538-3.254-3.154,27.52,24.67,6.087,15.772-1.212-.044-3.392,12.02-.935ZM276.314,65.14l-4.383-.642c-.769-3.957-1.289-6.552-1.289-6.552a24.039,24.039,0,0,0,2.429-3.636c2.119,3.243,2.933,7.67,3.243,10.808Zm-16.369-8.495c.3,1.04.581,1.71.581,1.71l.553,4.565-1.494-.216a29.987,29.987,0,0,1,.365-6.082ZM398.182,88.526l-5.932.764c.836-2.457,1.87-6.486,1.267-10.133a5.086,5.086,0,0,0,1.627-4.233c3.525,4.211,3.193,11.649,3.038,13.586Zm-9.85-6.314a14.7,14.7,0,0,0,4.831-2.717c.509,3.58-.553,7.515-1.361,9.85l-5.534.708-1.527-.293Z" transform="translate(-34.864 -44.548)" fill="url(#linear-gradient)"/>
      <path id="Trazado_345" data-name="Trazado 345" d="M396.782,101.879l-14.438,6.026L365.57,49.418l3.935-4.671,7.211-1.118Z" fill="#6c63ff"/>
      <path id="Trazado_346" data-name="Trazado 346" d="M396.782,101.879l-14.438,6.026L365.57,49.418l3.935-4.671,7.211-1.118Z" fill="#fff" opacity="0.2"/>
      <path id="Trazado_347" data-name="Trazado 347" d="M369.5,44.747l-25.058,3.215,12.844,61.891,25.052-1.948Z" fill="#6c63ff"/>
      <path id="Trazado_348" data-name="Trazado 348" d="M369.5,44.747l-25.058,3.215,12.844,61.891,25.052-1.948Z" fill="#fff" opacity="0.07"/>
      <path id="Trazado_349" data-name="Trazado 349" d="M397.855,90.69l-.4-.05c0-.149,1.66-14.759-7.51-16.6l.077-.393C399.587,75.566,397.888,90.54,397.855,90.69Z" transform="translate(-34.864 -44.548)" fill="#535461"/>
      <rect id="Rectángulo_123" data-name="Rectángulo 123" width="27.603" height="40.403" transform="translate(270.298 88.786)" fill="#774e55"/>
      <rect id="Rectángulo_124" data-name="Rectángulo 124" width="27.603" height="40.403" transform="translate(270.298 88.786)" opacity="0.2"/>
      <path id="Trazado_350" data-name="Trazado 350" d="M370.5,112.183l-15.6,1.2,2.4-60.8,5.2-3.2,7.2,1.2Z" fill="#6c63ff"/>
      <path id="Trazado_351" data-name="Trazado 351" d="M370.5,112.183l-15.6,1.2,2.4-60.8,5.2-3.2,7.2,1.2Z" opacity="0.2"/>
      <path id="Trazado_352" data-name="Trazado 352" d="M362.5,49.385l-24.8-4.8-7.2,62.8,24.4,6Z" fill="#6c63ff"/>
      <path id="Trazado_353" data-name="Trazado 353" d="M216.5,19.385h-3.6l-7.2,62.8,16-.8Z" fill="#6c63ff"/>
      <path id="Trazado_354" data-name="Trazado 354" d="M216.5,19.385h-3.6l-7.2,62.8,16-.8Z" opacity="0.2"/>
      <path id="Trazado_355" data-name="Trazado 355" d="M215.3,18.583l-4.4,63.2,38.4,4,4.4-61.6Z" fill="#6c63ff"/>
      <path id="Trazado_356" data-name="Trazado 356" d="M296.562,391.143s-4.8-.4-5.6,13.6c0,0,.8,7.6-1.2,11.2s-.8,14,5.2,15.2a32.058,32.058,0,0,0,11.621,0s2.8,0,.8-10l-4-29.2Z" transform="translate(-34.864 -44.548)" fill="#5c3d53"/>
      <path id="Trazado_357" data-name="Trazado 357" d="M296.562,391.143s-4.8-.4-5.6,13.6c0,0,.8,7.6-1.2,11.2s-.8,14,5.2,15.2a32.058,32.058,0,0,0,11.621,0s2.8,0,.8-10l-4-29.2Z" transform="translate(-34.864 -44.548)" opacity="0.05"/>
      <path id="Trazado_358" data-name="Trazado 358" d="M321.714,160.151a26.771,26.771,0,0,0,.847,9.408l-10.4,2.8s-17.2,2.4-10.4-4.427c2.352-2.352,3.509-6.386,4.012-10.647a59,59,0,0,0,.293-8.766,78.125,78.125,0,0,0-.708-8.19s25.2-8.8,19.6,5.6a51.213,51.213,0,0,0-2.407,8.024A42.309,42.309,0,0,0,321.714,160.151Z" transform="translate(-34.864 -44.548)" fill="#f8bdc5"/>
      <path id="Trazado_359" data-name="Trazado 359" d="M324.962,145.935a51.214,51.214,0,0,0-2.407,8.024,17.233,17.233,0,0,1-16.486-5.434,78.141,78.141,0,0,0-.708-8.19S330.563,131.536,324.962,145.935Z" transform="translate(-34.864 -44.548)" opacity="0.1"/>
      <circle id="Elipse_126" data-name="Elipse 126" cx="17.199" cy="17.199" r="17.199" transform="translate(266.901 74.586)" fill="#f8bdc5"/>
      <path id="Trazado_360" data-name="Trazado 360" d="M288.56,144.734v5.2l-8.8,22.8-2.4-2.4a4.036,4.036,0,0,1-.365-.454c-5.811-8.257-10.039-63.147-10.039-63.147L261.361,60.32s-6-14.388,7.194-13.6,2.8,13.2,2.8,13.2,8.8,44,7.6,45.6,0,6.4,0,6.4,3.6,9.2,3.2,16S288.56,144.734,288.56,144.734Z" transform="translate(-34.864 -44.548)" fill="#f8bdc5"/>
      <path id="Trazado_361" data-name="Trazado 361" d="M387.761,83.933l-20.8,44-3.2,5.988s-9.961,35.151-21.466,43.569a10.512,10.512,0,0,1-2.136,1.234l-2.4-19.2,2.214-5.578.166-.426a26.868,26.868,0,0,0,6-8.8c2.4-5.6,9.2-16.8,9.2-16.8a19.777,19.777,0,0,0,1.2-5.6c0-2.4,22.8-42,22.8-42s2-18,11.621-9.2S387.761,83.933,387.761,83.933Z" transform="translate(-34.864 -44.548)" fill="#f8bdc5"/>
      <path id="Trazado_362" data-name="Trazado 362" d="M307.359,403.14s-13.6,5.6-12,.4c.974-3.154.614-9.114.183-13.281-.277-2.717-.587-4.7-.587-4.7l11.621,1.2a9.407,9.407,0,0,0-.67,3.182C305.522,395.249,307.359,403.14,307.359,403.14Z" transform="translate(-34.864 -44.548)" fill="#f8bdc5"/>
      <path id="Trazado_363" data-name="Trazado 363" d="M328.51,387.579c-2.1,7.283-1.549,19.966-1.549,19.966s-12.4,1.6-11.2-1.6c.836-2.214,2.059-13.182,2.723-19.629.293-2.817.476-4.77.476-4.77l11.2,2.4A11.19,11.19,0,0,0,328.51,387.579Z" transform="translate(-34.864 -44.548)" fill="#f8bdc5"/>
      <path id="Trazado_364" data-name="Trazado 364" d="M294.958,385.542l11.621,1.2a9.408,9.408,0,0,0-.67,3.182,11.859,11.859,0,0,1-10.348.315C295.267,387.518,294.958,385.542,294.958,385.542Z" transform="translate(-34.864 -44.548)" opacity="0.1"/>
      <path id="Trazado_365" data-name="Trazado 365" d="M330.164,383.943a11.19,11.19,0,0,0-1.66,3.636,21.514,21.514,0,0,1-10.022-1.262c.293-2.817.476-4.77.476-4.77Z" transform="translate(-34.864 -44.548)" opacity="0.1"/>
      <path id="Trazado_366" data-name="Trazado 366" d="M342.964,290.735l-2.357,16.524a119.487,119.487,0,0,1-4.35,18.5c-1.693,5.451-.493,12.175-.493,12.175s1.6,25.6-1.2,32-2.4,15.6-2.4,15.6c-6.4,3.6-15.6-.8-15.6-.8l-.8-42.4a99.262,99.262,0,0,1-1.2-21.582c.8-10.382-1.2-31.6-1.2-31.6-4.427,1.2-4,59.6-4,59.6v38c-9.6,8.4-18,0-18,0-3.2-9.6-2-38.8-2-38.8l-1.2-17.2a505.169,505.169,0,0,1-7.194-50.8,141.117,141.117,0,0,1-.343-25.03q.116-1.361.255-2.618a69.827,69.827,0,0,1,2.07-11.206,25.226,25.226,0,0,1,1.217-3.547l42.982,2,2.535.116,6.087.282c.664,1,1.289,2.02,1.87,3.038.841,1.478,1.6,2.966,2.274,4.427.387.852.753,1.71,1.107,2.562C349.19,270.608,342.964,290.735,342.964,290.735Z" transform="translate(-34.864 -44.548)" fill="#5e52ad"/>
      <path id="Trazado_367" data-name="Trazado 367" d="M295.76,241.539s-1.882,18.815-15.146,13.37q.116-1.361.255-2.618c3.121.847,11.76,2.014,12.086-10.758Z" transform="translate(-34.864 -44.548)" opacity="0.1"/>
      <path id="Trazado_368" data-name="Trazado 368" d="M340.994,249.978c-9.186,3.282-12.651-5.456-13.835-10.442l2.535.116c1.378,7.842,6.879,8.3,10.227,7.747Q340.485,248.711,340.994,249.978Z" transform="translate(-34.864 -44.548)" opacity="0.1"/>
      <path id="Trazado_369" data-name="Trazado 369" d="M300.126,401.015c-2.042-.321-5.163-1.444-4.184-5.368,0,0-3.78-1.306-3.381,14.294,0,0-.4,7.6-1.2,9.2s0,11.2,8.4,10.4c0,0,6,2,7.6-1.2,0,0-1.2-18.4.8-21.582s-.8-6.4-.8-6.4-2.833,1.572-4.87,1.107A21.416,21.416,0,0,0,300.126,401.015Z" transform="translate(-34.864 -44.548)" fill="#5c3d53"/>
      <path id="Trazado_370" data-name="Trazado 370" d="M310.159,427.141s-4,6.8,5.2,7.6,13.2-4,13.2-4,1.2-2,0-5.6.4-10,.4-10,1.2-7.6-1.6-6S310.159,427.141,310.159,427.141Z" transform="translate(-34.864 -44.548)" fill="#5c3d53"/>
      <path id="Trazado_371" data-name="Trazado 371" d="M310.159,427.141s-4,6.8,5.2,7.6,13.2-4,13.2-4,1.2-2,0-5.6.4-10,.4-10,1.2-7.6-1.6-6S310.159,427.141,310.159,427.141Z" transform="translate(-34.864 -44.548)" opacity="0.05"/>
      <path id="Trazado_372" data-name="Trazado 372" d="M320.563,402.742s-4.8-2-6,2-.4,14-2.8,16.8-5.6,10.4,4,10,11.621-3.6,11.621-3.6-.4-10,.8-12.8,0-7.194,0-7.194S328.559,402.315,320.563,402.742Z" transform="translate(-34.864 -44.548)" fill="#5c3d53"/>
      <circle id="Elipse_127" data-name="Elipse 127" cx="0.802" cy="0.802" r="0.802" transform="translate(224.893 23.381)" opacity="0.2"/>
      <circle id="Elipse_128" data-name="Elipse 128" cx="0.802" cy="0.802" r="0.802" transform="translate(241.694 25.379)" opacity="0.2"/>
      <path id="Trazado_373" data-name="Trazado 373" d="M277.559,70.734h-.4c0-.172.282-17.044-9.408-18.6a5.1,5.1,0,0,0-4.637,1.284c-4,3.968-2.346,15.174-2.33,15.285l-.393.061c-.072-.47-1.7-11.522,2.446-15.628a5.463,5.463,0,0,1,4.98-1.4C277.847,53.341,277.564,70.563,277.559,70.734Z" transform="translate(-34.864 -44.548)" fill="#535461"/>
      <path id="Trazado_374" data-name="Trazado 374" d="M390.744,93.219l-.36-.172c.061-.133,6.226-13.486-1.92-18.14l.2-.349C397.125,79.4,390.811,93.08,390.744,93.219Z" transform="translate(-34.864 -44.548)" fill="#535461"/>
      <path id="Trazado_375" data-name="Trazado 375" d="M322.561,169.537l-10.4,2.8s-17.2,2.4-10.4-4.427c2.352-2.352,3.509-6.386,4.012-10.647,2.717,4.261,5.988,3.049,5.988,3.049l9.917-.194h.039A26.632,26.632,0,0,0,322.561,169.537Z" transform="translate(-34.864 -44.548)" opacity="0.1"/>
      <path id="Trazado_376" data-name="Trazado 376" d="M342.3,177.5a10.517,10.517,0,0,1-2.136,1.234l-2.4-19.2,2.214-5.578.553-.426C345.526,154.95,342.948,173.344,342.3,177.5Z" transform="translate(-34.864 -44.548)" opacity="0.1"/>
      <path id="Trazado_377" data-name="Trazado 377" d="M288.56,144.734v5.2l-8.8,22.8-2.4-2.4a4.036,4.036,0,0,1-.365-.454C278.035,157.993,288.56,144.734,288.56,144.734Z" transform="translate(-34.864 -44.548)" opacity="0.1"/>
      <path id="Trazado_378" data-name="Trazado 378" d="M337.63,242.972c-5.595,1.4-34.8,8.262-43.469,1.765a19.749,19.749,0,0,0-11.217-3.652,25.228,25.228,0,0,1,1.217-3.547l42.982,2,2.535.116,6.087.282Q336.761,241.445,337.63,242.972Z" transform="translate(-34.864 -44.548)" opacity="0.1"/>
      <path id="Trazado_379" data-name="Trazado 379" d="M262.363,50.132s6,10,10,0" transform="translate(-34.864 -44.548)" fill="#f8bdc5"/>
      <path id="Trazado_380" data-name="Trazado 380" d="M385.764,70.729s-2.4,12,7.194,6.4" transform="translate(-34.864 -44.548)" fill="#f8bdc5"/>
      <g id="Grupo_19" data-name="Grupo 19" opacity="0.1">
        <path id="Trazado_381" data-name="Trazado 381" d="M311.5,293.1c-.194-2.435-.338-3.957-.338-3.957-4.427,1.2-4,59.6-4,59.6v38a13.912,13.912,0,0,1-7.941,3.691c2.889.255,6.331-.553,9.961-3.691v-38S308.87,306.424,311.5,293.1Z" transform="translate(-34.864 -44.548)"/>
        <path id="Trazado_382" data-name="Trazado 382" d="M340.795,249.978c-.338-.852-.7-1.71-1.107-2.562-.675-1.483-1.433-2.972-2.274-4.427-.553-1.018-1.206-2.031-1.87-3.038l-6.087-.282-2.535-.116-42.982-2-.039.089,41.023,1.909,2.535.116,6.087.282c.664,1,1.289,2.02,1.87,3.038.841,1.478,1.6,2.966,2.274,4.427.387.852.753,1.71,1.107,2.562,8.179,20.641,1.97,40.757,1.97,40.757l-2.357,16.524a119.49,119.49,0,0,1-4.35,18.5c-1.693,5.451-.493,12.175-.493,12.175s1.6,25.6-1.2,32-2.4,15.6-2.4,15.6a11.621,11.621,0,0,1-5.014,1.384,12.728,12.728,0,0,0,7.011-1.384s-.4-9.2,2.4-15.6,1.2-32,1.2-32-1.2-6.729.493-12.175a119.489,119.489,0,0,0,4.35-18.5l2.357-16.524S348.974,270.608,340.795,249.978Z" transform="translate(-34.864 -44.548)"/>
      </g>
      <path id="Trazado_383" data-name="Trazado 383" d="M321.681,160.937c5.534,2.606,18.483-7.4,18.483-7.4,5.6,1.6,1.6,24.8,1.6,24.8l-.216.963c-1.217,5.473-1.953,11.035-2.634,16.6-.515,4.2-4.35,8.041-4.35,8.041-6.8,12.8,4,38,4,38s-34.8,9.2-44.4,2-24-1.6-24-1.6c6.8-6,7.194-43.2,7.194-43.2V170.362c.8-12,11.621-25.6,11.621-25.6,4.427,12.4,16.729,13.221,16.729,13.221,2.728,4.427,6.087,3.182,6.087,3.182Z" transform="translate(-34.864 -44.548)" fill="#eb6475"/>
      <path id="Trazado_384" data-name="Trazado 384" d="M314.487,112.095a9.812,9.812,0,0,0-4.167,0c-4.35,1.2-5.717,6.685-9.076,9.7-1.206,1.107-2.7,1.848-3.791,3.049-1.948,2.136-2.341,5.3-1.926,8.163s1.522,5.573,2.214,8.378a28.99,28.99,0,0,1,.769,8.589,5.052,5.052,0,0,1-.742,2.717c-.8,1.107-2.28,1.455-3.32,2.341-3.176,2.734-.553,8.406-2.883,11.9-1,1.511-2.878,2.507-3.259,4.278a5.855,5.855,0,0,0,.869,3.68c1.483,3.044,3.022,6.17,5.534,8.439s5.617,3.409,8.7,4.565c.935.349,2.108.653,2.822-.039.88-.863.216-2.324-.393-3.392-.963-1.66-1.715-3.663-1.151-5.534s2.374-3.11,3.591-4.671c3.138-4.04,2.108-9.839.553-14.709-.659-2.053-1.4-4.239-.841-6.325.238-.9.708-1.71,1.007-2.59,1.328-3.918-.9-8.218-.249-12.3a17.67,17.67,0,0,1,1.66-4.577l3.514-7.554a7.465,7.465,0,0,1,1.555-2.446,5.534,5.534,0,0,1,3.874-1.206,10.514,10.514,0,0,1,7.543,3.437c3.763,4.184,3.525,10.514,3.071,16.093l-.327,4.029c-.238,2.9-.553,5.993-2.38,8.251-1.422,1.749-3.719,2.939-4.305,5.119-.509,1.876.448,3.912-.055,5.788-.753,2.806-4.217,3.818-6.049,6.087a6.226,6.226,0,0,0-.454,7c.7,1.107,1.81,2.214,1.66,3.514-.127,1.046-1.068,1.893-1.062,2.944a2.341,2.341,0,0,0,1.7,2.031,6.862,6.862,0,0,0,2.806.133l9.922-.9a3.492,3.492,0,0,0,1.765-.487,3.107,3.107,0,0,0,1.013-2.263c.4-3.531-.553-7.388,1.212-10.476.553-.991,1.367-1.815,1.981-2.767,3.387-5.313-.028-12.518,1.815-18.544.874-2.861,2.911-5.318,3.453-8.257.719-3.918-1.323-7.747-2.114-11.621-.813-4-.376-8.406-2.512-11.887a12.226,12.226,0,0,0-7.576-5.069c-2.767-.7-5.534-.448-8.3-.747C319.517,113.65,317.06,112.51,314.487,112.095Z" transform="translate(-34.864 -44.548)" opacity="0.1"/>
      <path id="Trazado_385" data-name="Trazado 385" d="M314.487,111.293a9.812,9.812,0,0,0-4.167,0c-4.35,1.2-5.717,6.685-9.076,9.7-1.206,1.107-2.7,1.848-3.791,3.049-1.948,2.136-2.341,5.3-1.926,8.163s1.522,5.573,2.214,8.378a28.99,28.99,0,0,1,.769,8.589,5.052,5.052,0,0,1-.742,2.717c-.8,1.107-2.28,1.455-3.32,2.341-3.176,2.734-.553,8.406-2.883,11.9-1,1.511-2.878,2.507-3.259,4.278a5.855,5.855,0,0,0,.869,3.68c1.483,3.044,3.022,6.17,5.534,8.439s5.617,3.409,8.7,4.565c.935.349,2.108.653,2.822-.039.88-.863.216-2.324-.393-3.392-.963-1.66-1.715-3.663-1.151-5.534s2.374-3.11,3.591-4.671c3.138-4.04,2.108-9.839.553-14.709-.659-2.053-1.4-4.239-.841-6.325.238-.9.708-1.71,1.007-2.59,1.328-3.918-.9-8.218-.249-12.3a17.669,17.669,0,0,1,1.66-4.577l3.514-7.554a7.465,7.465,0,0,1,1.555-2.446,5.534,5.534,0,0,1,3.874-1.206,10.514,10.514,0,0,1,7.543,3.437c3.763,4.184,3.525,10.514,3.071,16.093l-.327,4.029c-.238,2.9-.553,5.993-2.38,8.251-1.422,1.749-3.719,2.939-4.305,5.119-.509,1.876.448,3.912-.055,5.788-.753,2.806-4.217,3.818-6.049,6.087a6.226,6.226,0,0,0-.454,7c.7,1.107,1.81,2.214,1.66,3.514-.127,1.046-1.068,1.893-1.062,2.944a2.341,2.341,0,0,0,1.7,2.031,6.862,6.862,0,0,0,2.806.133l9.922-.9a3.492,3.492,0,0,0,1.765-.487,3.107,3.107,0,0,0,1.013-2.263c.4-3.531-.553-7.388,1.212-10.476.553-.991,1.367-1.815,1.981-2.767,3.387-5.313-.028-12.518,1.815-18.544.874-2.861,2.911-5.318,3.453-8.257.719-3.918-1.323-7.747-2.114-11.621-.813-4-.376-8.406-2.512-11.887a12.226,12.226,0,0,0-7.576-5.069c-2.767-.7-5.534-.448-8.3-.747C319.517,112.853,317.06,111.713,314.487,111.293Z" transform="translate(-34.864 -44.548)" fill="#774e55"/>
      <path id="Trazado_386" data-name="Trazado 386" d="M293.159,202.934s8,2.4,19.6-2.8h5.993s.4,5.6,16,3.2" transform="translate(-34.864 -44.548)" opacity="0.1"/>
      <ellipse id="Elipse_129" data-name="Elipse 129" cx="297.171" cy="27.116" rx="297.171" ry="27.116" transform="translate(0 354.724)" fill="#6c63ff" opacity="0.1"/>
      <rect id="Rectángulo_125" data-name="Rectángulo 125" width="44.271" height="16.602" rx="2.861" transform="translate(139.455 142.775)" fill="#6c63ff" opacity="0.1"/>
      <rect id="Rectángulo_126" data-name="Rectángulo 126" width="44.271" height="16.602" rx="2.861" transform="translate(159.377 161.037)" fill="#6c63ff" opacity="0.1"/>
      <rect id="Rectángulo_127" data-name="Rectángulo 127" width="44.271" height="16.602" rx="2.861" transform="translate(333.695 143.882)" fill="#6c63ff" opacity="0.1"/>
      <rect id="Rectángulo_128" data-name="Rectángulo 128" width="44.271" height="16.602" rx="2.861" transform="translate(353.617 162.144)" fill="#6c63ff" opacity="0.1"/>
      <rect id="Rectángulo_129" data-name="Rectángulo 129" width="44.271" height="16.602" rx="2.861" transform="translate(125.62 179.299)" fill="#6c63ff" opacity="0.1"/>
      <rect id="Rectángulo_130" data-name="Rectángulo 130" width="44.271" height="16.602" rx="2.861" transform="translate(169.891 244.046)" fill="#6c63ff" opacity="0.1"/>
      <rect id="Rectángulo_131" data-name="Rectángulo 131" width="44.271" height="16.602" rx="2.861" transform="translate(189.813 262.307)" fill="#6c63ff" opacity="0.1"/>
      <rect id="Rectángulo_132" data-name="Rectángulo 132" width="44.271" height="16.602" rx="2.861" transform="translate(156.056 280.569)" fill="#6c63ff" opacity="0.1"/>
      <rect id="Rectángulo_133" data-name="Rectángulo 133" width="44.271" height="16.602" rx="2.861" transform="translate(348.083 290.53)" fill="#6c63ff" opacity="0.1"/>
      <rect id="Rectángulo_134" data-name="Rectángulo 134" width="44.271" height="16.602" rx="2.861" transform="translate(314.326 308.792)" fill="#6c63ff" opacity="0.1"/>
      <g id="Grupo_20" data-name="Grupo 20" opacity="0.1">
        <path id="Trazado_387" data-name="Trazado 387" d="M557.962,411.662s-8.013-40.6,8.489-68.421a62.7,62.7,0,0,0,8.649-38.7,105.451,105.451,0,0,0-3.874-18.893" transform="translate(-34.864 -44.548)" fill="none" stroke="#535461" stroke-miterlimit="10" stroke-width="1.107"/>
        <path id="Trazado_388" data-name="Trazado 388" d="M581.531,268.046c-.443,4.842-10.514,18.085-10.514,18.085s-7.482-14.853-7.034-19.7a8.809,8.809,0,1,1,17.544,1.611Z" transform="translate(-34.864 -44.548)" fill="#6c63ff"/>
        <path id="Trazado_389" data-name="Trazado 389" d="M593.568,296.214c-3,3.824-18.649,9.474-18.649,9.474s1.793-16.535,4.8-20.359a8.81,8.81,0,1,1,13.835,10.885Z" transform="translate(-34.864 -44.548)" fill="#6c63ff"/>
        <path id="Trazado_390" data-name="Trazado 390" d="M588.72,342c-4.527,1.782-20.879-1.24-20.879-1.24s9.895-13.37,14.421-15.152A8.809,8.809,0,1,1,588.72,342Z" transform="translate(-34.864 -44.548)" fill="#6c63ff"/>
        <path id="Trazado_391" data-name="Trazado 391" d="M577.248,375.836c-4.162,2.523-20.791,2.308-20.791,2.308s7.493-14.848,11.654-17.371a8.809,8.809,0,1,1,9.137,15.064Z" transform="translate(-34.864 -44.548)" fill="#6c63ff"/>
        <path id="Trazado_392" data-name="Trazado 392" d="M556.413,304.919c3.165,3.7,19.031,8.677,19.031,8.677s-2.49-16.447-5.65-20.138a8.81,8.81,0,1,0-13.382,11.461Z" transform="translate(-34.864 -44.548)" fill="#6c63ff"/>
        <path id="Trazado_393" data-name="Trazado 393" d="M543.5,344.663c4.123,2.579,20.758,2.584,20.758,2.584s-7.294-14.942-11.422-17.526a8.81,8.81,0,1,0-9.336,14.942Z" transform="translate(-34.864 -44.548)" fill="#6c63ff"/>
        <path id="Trazado_394" data-name="Trazado 394" d="M536.236,385c3.63,3.237,20.022,6.06,20.022,6.06s-4.665-15.965-8.3-19.2A8.81,8.81,0,1,0,536.236,385Z" transform="translate(-34.864 -44.548)" fill="#6c63ff"/>
      </g>
      <g id="Grupo_21" data-name="Grupo 21" opacity="0.1">
        <path id="Trazado_395" data-name="Trazado 395" d="M488.44,402.753s-4.3-21.8,4.554-36.74a33.668,33.668,0,0,0,4.643-20.785,56.623,56.623,0,0,0-2.07-10.144" transform="translate(-34.864 -44.548)" fill="none" stroke="#535461" stroke-miterlimit="10" stroke-width="1.107"/>
        <path id="Trazado_396" data-name="Trazado 396" d="M501.1,325.632c-.238,2.6-5.645,9.712-5.645,9.712s-4.018-7.974-3.78-10.575a4.732,4.732,0,0,1,9.408.863Z" transform="translate(-34.864 -44.548)" fill="#6c63ff"/>
        <path id="Trazado_397" data-name="Trazado 397" d="M507.554,340.756c-1.616,2.053-10.016,5.086-10.016,5.086s.963-8.854,2.579-10.929a4.732,4.732,0,0,1,7.438,5.844Z" transform="translate(-34.864 -44.548)" fill="#6c63ff"/>
        <path id="Trazado_398" data-name="Trazado 398" d="M504.953,365.349c-2.429.957-11.212-.664-11.212-.664s5.313-7.194,7.747-8.135a4.732,4.732,0,0,1,3.47,8.8Z" transform="translate(-34.864 -44.548)" fill="#6c63ff"/>
        <path id="Trazado_399" data-name="Trazado 399" d="M498.794,383.5c-2.214,1.356-11.162,1.24-11.162,1.24s4.023-7.974,6.259-9.33a4.731,4.731,0,1,1,4.9,8.091Z" transform="translate(-34.864 -44.548)" fill="#6c63ff"/>
        <path id="Trazado_400" data-name="Trazado 400" d="M487.6,345.438c1.7,1.987,10.221,4.66,10.221,4.66s-1.334-8.854-3.033-10.813a4.733,4.733,0,0,0-7.194,6.154Z" transform="translate(-34.864 -44.548)" fill="#6c63ff"/>
        <path id="Trazado_401" data-name="Trazado 401" d="M480.67,366.771c2.214,1.383,11.145,1.389,11.145,1.389s-3.918-8.024-6.132-9.408a4.731,4.731,0,1,0-5.014,8.025Z" transform="translate(-34.864 -44.548)" fill="#6c63ff"/>
        <path id="Trazado_402" data-name="Trazado 402" d="M476.78,388.431c1.948,1.738,10.752,3.254,10.752,3.254s-2.5-8.572-4.427-10.31a4.731,4.731,0,1,0-6.3,7.062Z" transform="translate(-34.864 -44.548)" fill="#6c63ff"/>
      </g>
      <g id="Grupo_22" data-name="Grupo 22" opacity="0.1">
        <path id="Trazado_403" data-name="Trazado 403" d="M138.143,406.073s-4.3-21.8,4.554-36.74a33.668,33.668,0,0,0,4.643-20.785,56.625,56.625,0,0,0-2.07-10.144" transform="translate(-34.864 -44.548)" fill="none" stroke="#535461" stroke-miterlimit="10" stroke-width="1.107"/>
        <path id="Trazado_404" data-name="Trazado 404" d="M150.8,328.952c-.238,2.6-5.645,9.712-5.645,9.712s-4.018-7.974-3.78-10.575a4.731,4.731,0,0,1,9.408.863Z" transform="translate(-34.864 -44.548)" fill="#6c63ff"/>
        <path id="Trazado_405" data-name="Trazado 405" d="M157.257,344.077c-1.616,2.053-10.016,5.086-10.016,5.086s.963-8.854,2.579-10.929a4.731,4.731,0,0,1,7.438,5.844Z" transform="translate(-34.864 -44.548)" fill="#6c63ff"/>
        <path id="Trazado_406" data-name="Trazado 406" d="M154.656,368.669c-2.429.957-11.212-.664-11.212-.664s5.313-7.194,7.747-8.135a4.731,4.731,0,0,1,3.47,8.8Z" transform="translate(-34.864 -44.548)" fill="#6c63ff"/>
        <path id="Trazado_407" data-name="Trazado 407" d="M148.5,386.821c-2.214,1.356-11.162,1.24-11.162,1.24s4.023-7.974,6.259-9.33a4.731,4.731,0,1,1,4.9,8.091Z" transform="translate(-34.864 -44.548)" fill="#6c63ff"/>
        <path id="Trazado_408" data-name="Trazado 408" d="M137.307,348.758c1.7,1.987,10.221,4.66,10.221,4.66s-1.334-8.854-3.033-10.813a4.733,4.733,0,0,0-7.194,6.154Z" transform="translate(-34.864 -44.548)" fill="#6c63ff"/>
        <path id="Trazado_409" data-name="Trazado 409" d="M130.373,370.092c2.214,1.383,11.145,1.389,11.145,1.389s-3.918-8.024-6.132-9.408a4.731,4.731,0,1,0-5.014,8.025Z" transform="translate(-34.864 -44.548)" fill="#6c63ff"/>
        <path id="Trazado_410" data-name="Trazado 410" d="M126.483,391.751c1.948,1.738,10.752,3.254,10.752,3.254s-2.5-8.572-4.427-10.31a4.731,4.731,0,1,0-6.3,7.062Z" transform="translate(-34.864 -44.548)" fill="#6c63ff"/>
      </g>
    </g>
  </g>
</svg>
