<svg xmlns="http://www.w3.org/2000/svg" xmlns:xlink="http://www.w3.org/1999/xlink" width="513" height="330" viewBox="0 0 513 330">
  <defs>
    <clipPath id="clip-path">
      <rect id="Rectángulo_53" data-name="Rectángulo 53" width="513" height="330" transform="translate(412.02 319.5)" fill="#fff" stroke="#707070" stroke-width="1"/>
    </clipPath>
    <linearGradient id="linear-gradient" x1="0.5" y1="1" x2="0.5" gradientUnits="objectBoundingBox">
      <stop offset="0" stop-color="gray" stop-opacity="0.251"/>
      <stop offset="0.54" stop-color="gray" stop-opacity="0.122"/>
      <stop offset="1" stop-color="gray" stop-opacity="0.102"/>
    </linearGradient>
    <linearGradient id="linear-gradient-2" x1="1.362" y1="1" x2="1.362" y2="0" xlink:href="#linear-gradient"/>
    <linearGradient id="linear-gradient-3" x1="0.022" y1="0.5" x2="1.021" y2="0.5" xlink:href="#linear-gradient"/>
  </defs>
  <g id="Enmascarar_grupo_15" data-name="Enmascarar grupo 15" transform="translate(-412.02 -319.5)" clip-path="url(#clip-path)">
    <g id="undraw_tasting_de22" transform="translate(456.489 319)">
      <ellipse id="Elipse_42" data-name="Elipse 42" cx="205.29" cy="51.48" rx="205.29" ry="51.48" transform="translate(0 227.541)" fill="#f5f5f5"/>
      <path id="Trazado_86" data-name="Trazado 86" d="M471.923,266.561s-25.415,15.774-18.7,45.874-35.7,72.077-35.7,72.077h1.045c45.905-.2,76.782-41.589,58.5-78.545C470.288,292.229,465.555,276.59,471.923,266.561Z" transform="translate(-155.326 -101.24)" fill="#6c63ff"/>
      <path id="Trazado_87" data-name="Trazado 87" d="M471.926,266.561s-16.783,21.5-8.281,42.381-12.06,72.809-46.1,75.57" transform="translate(-155.329 -101.24)" fill="none" stroke="#535461" stroke-miterlimit="10" stroke-width="0.592"/>
      <path id="Trazado_88" data-name="Trazado 88" d="M494.556,382.573s-24.077-7.184-30.138,11.948-51.937,14.987-51.937,14.987.259.223.753.623c33.226,27.2,70.548,24.763,70.749-4.693C484.059,394.492,486.313,383.835,494.556,382.573Z" transform="translate(-154.366 -134.414)" fill="#6c63ff"/>
      <path id="Trazado_89" data-name="Trazado 89" d="M494.556,382.573s-24.077-7.184-30.138,11.948-51.937,14.987-51.937,14.987.259.223.753.623c33.226,27.2,70.548,24.763,70.749-4.693C484.059,394.492,486.313,383.835,494.556,382.573Z" transform="translate(-154.366 -134.414)" fill="#f5f5f5" opacity="0.2"/>
      <path id="Trazado_90" data-name="Trazado 90" d="M494.556,383.111s-19.939.812-21.358,16.38-35.111,29.41-60.718,10.555" transform="translate(-154.366 -134.952)" fill="none" stroke="#535461" stroke-miterlimit="10" stroke-width="0.592"/>
      <path id="Trazado_91" data-name="Trazado 91" d="M417.859,279.394c1.439-6.313,1.108-15.509-10.66-19.987,6.291-8.876,3.333-15.151-2.354-17.377-.038-2.315-.729-7.012-5.361-9.532.614-4.369,1.611-21.733-20.744-23.678-2.623-3.973-10.832-14.73-24.206-17.71V175.538c-3.222,5.938-23.5,9.33-23.5,9.33-23.238,2.849-28.45,14.372-29.625,19.406-2.992.08-5.625.421-7.107,1.237-4.872,2.672-39.647,10.648-36.923,31.792-.48.143-.93.286-1.4.421,0,0-19.023,13.32-13.906,23.913l-1.918.122s-11.029,5.985-7.639,17.777a3.257,3.257,0,0,0-.959,3.236l26.225,76.719a2.492,2.492,0,0,0,1.055,1.33c1.184.724,3.644,2.167,7.231,3.918l.029.122.158-.029a125.806,125.806,0,0,0,12.621,5.282v.088l.158-.025c3.04,1.082,6.373,2.142,9.974,3.119v.067h.158c3.333.9,6.891,1.721,10.655,2.42v.042h.158c3.534.652,7.255,1.191,11.139,1.578h.149a134.477,134.477,0,0,0,14.386.64h.321a134.406,134.406,0,0,0,13.455-.842h.158v-.025q5.414-.614,11.072-1.721l-.038.328.321.029.048-.421q5.644-1.128,11.509-2.816h.158v-.067q4.872-1.418,9.873-3.257l.158.025v-.093q5.8-2.151,11.748-4.928l.158.029.029-.118q3.357-1.578,6.766-3.367a2.549,2.549,0,0,0,1.247-1.414l26.139-76.778a3.261,3.261,0,0,0-.959-3.228Z" transform="translate(-119.939 -74.912)" fill="url(#linear-gradient)"/>
      <path id="Trazado_92" data-name="Trazado 92" d="M401.75,220.033s-11.8-21.253-34.152-19.073,1.554,22.343,1.554,22.343S396.476,225.21,401.75,220.033Z" transform="translate(-144.015 -82.22)" fill="#6c63ff"/>
      <path id="Trazado_93" data-name="Trazado 93" d="M401.75,220.033s-11.8-21.253-34.152-19.073,1.554,22.343,1.554,22.343S396.476,225.21,401.75,220.033Z" transform="translate(-144.015 -82.22)" opacity="0.1"/>
      <path id="Trazado_94" data-name="Trazado 94" d="M318.473,210.68a7.282,7.282,0,0,1,.058-.766c.4-3.4,3.577-17.116,28.815-20.2,0,0,19.56-3.27,22.662-8.994v17.44s-4.038,12.264-24.216,16.35S318.473,210.68,318.473,210.68Z" transform="translate(-136.489 -76.411)" fill="#6c63ff"/>
      <path id="Trazado_95" data-name="Trazado 95" d="M244.134,295.614s-14.611,7.9-4.349,23.434,173.243,0,173.243,0,10.55-19.073-8.382-25.887S244.134,295.614,244.134,295.614Z" transform="translate(-120.829 -108.211)" fill="#784f69"/>
      <path id="Trazado_96" data-name="Trazado 96" d="M405.137,245.554a10.335,10.335,0,0,0-5.169-9.183c.59-4.209,1.558-20.946-19.991-22.819-2.532-3.83-10.435-14.217-23.329-17.066V181.465c-3.1,5.724-22.662,8.994-22.662,8.994-22.394,2.748-27.419,13.851-28.546,18.7-2.877.076-5.419.421-6.848,1.191-4.695,2.576-38.209,10.261-35.6,30.639-.451.135-.9.278-1.343.421,0,0-26.422,18.518-7.265,28.749h0s8.818,14.852,34.588,3.4l.082-.046c9.706,2.445,35.71,7.576,51.146-2.681l1.108-.737c6.138,3.211,20.682,9.082,33.044.737l.105-.072c4.8,3.96,14.554,9,26.283-1.292C414.78,257.157,412.052,248.273,405.137,245.554Z" transform="translate(-122.974 -76.627)" opacity="0.1"/>
      <path id="Trazado_97" data-name="Trazado 97" d="M400.129,292.53s12.731,16.62,29.5,1.906,9.624-24.524,0-24.8S400.129,292.53,400.129,292.53Z" transform="translate(-152.017 -102.13)" fill="#6c63ff"/>
      <path id="Trazado_98" data-name="Trazado 98" d="M400.129,292.53s12.731,16.62,29.5,1.906,9.624-24.524,0-24.8S400.129,292.53,400.129,292.53Z" transform="translate(-152.017 -102.13)" opacity="0.15"/>
      <path id="Trazado_99" data-name="Trazado 99" d="M425.977,267.783s3.1-23.147-36.923-5.45-29.807,26.977-29.807,26.977,19.871,13.354,36.012,2.454S421.316,277.593,425.977,267.783Z" transform="translate(-144.02 -98.09)" fill="#6c63ff"/>
      <path id="Trazado_100" data-name="Trazado 100" d="M425.977,267.783s3.1-23.147-36.923-5.45-29.807,26.977-29.807,26.977,19.871,13.354,36.012,2.454S421.316,277.593,425.977,267.783Z" transform="translate(-144.02 -98.09)" opacity="0.1"/>
      <path id="Trazado_101" data-name="Trazado 101" d="M383.041,261.067s-15.215-9.259-38.5,0-50.609,32.7-50.609,32.7,35.706,11.186,54.954-1.637S382.111,269.787,383.041,261.067Z" transform="translate(-131.822 -98.461)" fill="#6c63ff"/>
      <path id="Trazado_102" data-name="Trazado 102" d="M383.041,261.067s-15.215-9.259-38.5,0-50.609,32.7-50.609,32.7,35.706,11.186,54.954-1.637S382.111,269.787,383.041,261.067Z" transform="translate(-131.822 -98.461)" opacity="0.07"/>
      <path id="Trazado_103" data-name="Trazado 103" d="M344.433,260.441s-31.049-3.813-45.33,3.813-43.3,27.933-43.3,27.933,8.818,14.852,34.588,3.4C290.409,295.587,343.809,266.434,344.433,260.441Z" transform="translate(-124.57 -99.195)" fill="#6c63ff"/>
      <path id="Trazado_104" data-name="Trazado 104" d="M344.433,260.441s-31.049-3.813-45.33,3.813-43.3,27.933-43.3,27.933,8.818,14.852,34.588,3.4C290.409,295.587,343.809,266.434,344.433,260.441Z" transform="translate(-124.57 -99.195)" opacity="0.03"/>
      <path id="Trazado_105" data-name="Trazado 105" d="M261.454,263.862s-27.63,19.36-5.9,29.431c0,0,45.948-26.43,46.883-29.431C302.439,263.862,281.023,257.322,261.454,263.862Z" transform="translate(-122.938 -99.619)" fill="#6c63ff"/>
      <path id="Trazado_106" data-name="Trazado 106" d="M325.309,220.847s-18.318-2.723-23.286,0-42.222,11.174-34.775,34.334l11.163-3.527S299.851,227.93,325.309,220.847Z" transform="translate(-126.56 -87.668)" fill="#6c63ff"/>
      <path id="Trazado_107" data-name="Trazado 107" d="M325.309,220.847s-18.318-2.723-23.286,0-42.222,11.174-34.775,34.334l11.163-3.527S299.851,227.93,325.309,220.847Z" transform="translate(-126.56 -87.668)" opacity="0.1"/>
      <path id="Trazado_108" data-name="Trazado 108" d="M357.862,224.3s-13.038-10.627-41.915-.816S277.45,251,277.45,251l43.311,2.862S345.131,223.211,357.862,224.3Z" transform="translate(-128.687 -87.578)" fill="#6c63ff"/>
      <path id="Trazado_109" data-name="Trazado 109" d="M357.862,224.3s-13.038-10.627-41.915-.816S277.45,251,277.45,251l43.311,2.862S345.131,223.211,357.862,224.3Z" transform="translate(-128.687 -87.578)" opacity="0.07"/>
      <path id="Trazado_110" data-name="Trazado 110" d="M387.811,227.376s-20.8-5.993-36.923,2.18-22.058,24.25-22.058,24.25l25.77-1.09S374.773,224.926,387.811,227.376Z" transform="translate(-138.458 -89.293)" fill="#6c63ff"/>
      <path id="Trazado_111" data-name="Trazado 111" d="M387.811,227.376s-20.8-5.993-36.923,2.18-22.058,24.25-22.058,24.25l25.77-1.09S374.773,224.926,387.811,227.376Z" transform="translate(-138.458 -89.293)" opacity="0.03"/>
      <path id="Trazado_112" data-name="Trazado 112" d="M421.152,249.551s7.14-31.88-40.05-22.07c0,0-26.82,20.711-19.306,26.43S421.152,249.551,421.152,249.551Z" transform="translate(-144.475 -89.394)" fill="#6c63ff"/>
      <path id="Trazado_113" data-name="Trazado 113" d="M235.726,324.048,261,397.981a2.419,2.419,0,0,0,1.041,1.263c7.054,4.331,61.327,35.058,127.789,0a2.456,2.456,0,0,0,1.2-1.364l25.19-73.987a2.183,2.183,0,0,0-.641-2.331,2.974,2.974,0,0,0-2.625-.666l-10.943,2.4a3.09,3.09,0,0,1-1.151.034l-10.286-1.683a3.054,3.054,0,0,0-1.774.24L376.586,327.6a3.059,3.059,0,0,1-1.918.21l-13.134-2.866a3.083,3.083,0,0,0-1.506.046l-15.254,4.381a3.064,3.064,0,0,1-2.086-.143l-10.1-4.537a3.064,3.064,0,0,0-2.067-.152l-13.029,3.649a3.077,3.077,0,0,1-1.017.105l-12.544-.77a3.066,3.066,0,0,1-.556-.084l-9.955-2.5a3.085,3.085,0,0,0-1.29-.042l-13.791,2.458a3.076,3.076,0,0,1-1.544-.118l-13.427-4.667a3.074,3.074,0,0,0-1.482-.13L251.2,324.128a3.083,3.083,0,0,1-1.295-.072l-10.77-2.971a2.991,2.991,0,0,0-2.713.586A2.19,2.19,0,0,0,235.726,324.048Z" transform="translate(-120.73 -116.936)" opacity="0.1"/>
      <path id="Trazado_114" data-name="Trazado 114" d="M235.726,324.812,261,398.744a2.419,2.419,0,0,0,1.041,1.263c7.054,4.331,61.327,35.058,127.789,0a2.457,2.457,0,0,0,1.2-1.364l25.19-73.987a2.183,2.183,0,0,0-.641-2.331,2.974,2.974,0,0,0-2.625-.666l-10.933,2.412a3.088,3.088,0,0,1-1.151.034l-10.286-1.684a3.054,3.054,0,0,0-1.774.24L376.6,328.377a3.059,3.059,0,0,1-1.918.21l-13.129-2.879a3.083,3.083,0,0,0-1.506.046l-15.254,4.381a3.064,3.064,0,0,1-2.086-.143l-10.1-4.545a3.064,3.064,0,0,0-2.067-.152L317.5,328.945a3.075,3.075,0,0,1-1.017.105l-12.559-.77a3.069,3.069,0,0,1-.556-.084l-9.955-2.5a3.086,3.086,0,0,0-1.29-.042l-13.791,2.466a3.075,3.075,0,0,1-1.544-.118l-13.427-4.667a3.074,3.074,0,0,0-1.482-.13L251.2,324.892a3.084,3.084,0,0,1-1.295-.072l-10.77-2.971a2.991,2.991,0,0,0-2.714.586A2.19,2.19,0,0,0,235.726,324.812Z" transform="translate(-120.73 -117.157)" fill="#4d4981"/>
      <path id="Trazado_115" data-name="Trazado 115" d="M175.262,250.957l-2.642-.808-1.482-2.083,6.589-7.239,2.642.808,1.482,2.083Z" transform="translate(-32.546 -69.661)" fill="#fff" opacity="0.5"/>
      <path id="Trazado_116" data-name="Trazado 116" d="M329.768,268.212l-2.647-.808-1.477-2.083,6.584-7.239,2.642.8,1.482,2.083Z" transform="translate(-61.929 -74.651)" fill="#fff" opacity="0.5"/>
      <path id="Trazado_117" data-name="Trazado 117" d="M261.909,212.616l-2.642-.8-1.482-2.083,6.584-7.243,2.647.808,1.477,2.083Z" transform="translate(-49.024 -58.571)" fill="#fff" opacity="0.5"/>
      <path id="Trazado_118" data-name="Trazado 118" d="M279.762,250.181l-2.556.993-2.7-.631-.83-9.238,2.556-.993,2.7.631Z" transform="translate(-52.045 -69.512)" fill="#fff" opacity="0.5"/>
      <path id="Trazado_119" data-name="Trazado 119" d="M225.669,219.077l-1.765,1.906-2.738.509-5.5-7.9,1.769-1.906,2.738-.509Z" transform="translate(-41.013 -61.083)" fill="#fff" opacity="0.5"/>
      <path id="Trazado_120" data-name="Trazado 120" d="M221.838,250.513l-1.769,1.907-2.733.509-5.5-7.9,1.765-1.907,2.738-.509Z" transform="translate(-40.284 -70.176)" fill="#fff" opacity="0.5"/>
      <path id="Trazado_121" data-name="Trazado 121" d="M315.809,253.348l-2.028,1.692-2.791.2-4.306-8.459,2.033-1.692,2.786-.2Z" transform="translate(-58.323 -70.835)" fill="#fff" opacity="0.5"/>
      <path id="Trazado_122" data-name="Trazado 122" d="M300.869,214.436l.686-2.382,2.235-1.473,8.794,5.126-.686,2.382-2.235,1.477Z" transform="translate(-57.217 -60.912)" fill="#fff" opacity="0.5"/>
      <path id="Trazado_123" data-name="Trazado 123" d="M184.464,216.838l-2.642-.808-1.482-2.083,6.589-7.239,2.642.8,1.482,2.083Z" transform="translate(-34.296 -59.792)" fill="#fd6f8d" opacity="0.5"/>
      <path id="Trazado_124" data-name="Trazado 124" d="M226.363,199.937l-.647-2.386,1.208-2.218,10.5.981.647,2.391-1.208,2.218Z" transform="translate(-42.925 -56.502)" fill="#fd6f8d" opacity="0.5"/>
      <path id="Trazado_125" data-name="Trazado 125" d="M289.329,181.068l.523-2.412,2.134-1.591,9.121,4.663-.523,2.412-2.134,1.591Z" transform="translate(-55.023 -51.218)" fill="#fd6f8d" opacity="0.5"/>
      <path id="Trazado_126" data-name="Trazado 126" d="M263.929,165.356l2.729-.547,2.513,1.082-1.223,9.2-2.729.543-2.513-1.082Z" transform="translate(-49.96 -47.673)" fill="#fd6f8d" opacity="0.5"/>
      <path id="Trazado_127" data-name="Trazado 127" d="M240.935,265.882l-.647-2.39,1.2-2.218,10.5.981.647,2.391-1.2,2.218Z" transform="translate(-45.696 -75.575)" fill="#fd6f8d" opacity="0.5"/>
      <path id="Trazado_128" data-name="Trazado 128" d="M192.772,267.317l-1.654-1.982.125-2.449,10.1-2.689L203,262.178l-.129,2.454Z" transform="translate(-36.345 -75.263)" fill="#fd6f8d" opacity="0.5"/>
      <path id="Trazado_129" data-name="Trazado 129" d="M326.609,243.389l-2.3-1.4-.782-2.361,8.569-5.408,2.3,1.4.782,2.357Z" transform="translate(-61.527 -67.749)" fill="#fd6f8d" opacity="0.5"/>
      <path id="Trazado_130" data-name="Trazado 130" d="M236.9,246.072l-2.3-1.4-.786-2.357,8.569-5.412,2.3,1.4.786,2.357Z" transform="translate(-44.466 -68.525)" fill="#fd6f8d" opacity="0.5"/>
      <path id="Trazado_131" data-name="Trazado 131" d="M261.905,322.507l-10.689,1.683a3.083,3.083,0,0,1-1.295-.072l-.177-.05L269.2,403.19l-19.454-79.122-10.593-2.921a2.994,2.994,0,0,0-2.714.575,2.192,2.192,0,0,0-.706,2.371L261,398.026a2.419,2.419,0,0,0,1.041,1.263,106.751,106.751,0,0,0,19.483,9.015l-18.841-85.856a3.08,3.08,0,0,0-.782.059Z" transform="translate(-120.733 -116.998)" opacity="0.1"/>
      <path id="Trazado_132" data-name="Trazado 132" d="M442.63,320.908l-10.943,2.4a3.089,3.089,0,0,1-1.151.034l-10.286-1.684a3.089,3.089,0,0,0-.959,0L401.31,407.386l17.973-85.725a2.981,2.981,0,0,0-.806.244l-12.209,5.715a3.056,3.056,0,0,1-1.817.231l-12.813,82.724a144.9,144.9,0,0,0,21.171-8l19.608-79.437L412.8,402.555q3.328-1.557,6.713-3.333a2.457,2.457,0,0,0,1.2-1.364l25.189-73.987a2.187,2.187,0,0,0-.665-2.309,2.976,2.976,0,0,0-2.61-.654Z" transform="translate(-150.402 -116.94)" opacity="0.1"/>
      <path id="Trazado_133" data-name="Trazado 133" d="M401.7,329.471l-13.125-2.879a3.079,3.079,0,0,0-.772-.067l-10.017,88.44q5.515-1.1,11.24-2.744L401.835,329.5Z" transform="translate(-147.767 -118.584)" fill="#4d4981"/>
      <g id="Grupo_12" data-name="Grupo 12" transform="translate(128.86 204.908)" opacity="0.5">
        <path id="Trazado_199" data-name="Trazado 199" d="M0,0,.31.008,2.636,81.437l-.31-.008Z" transform="translate(0 2.729) rotate(-12.18)" fill="#fff"/>
        <path id="Trazado_200" data-name="Trazado 200" d="M0,0,.311.005,1.975,84.918l-.311-.005Z" transform="translate(27.836 6.204) rotate(-8.19)" fill="#fff"/>
        <path id="Trazado_201" data-name="Trazado 201" d="M0,0,.31.007,2.576,87.966l-.31-.007Z" transform="translate(12.905 1.064) rotate(-10.9)" fill="#fff"/>
        <path id="Trazado_205" data-name="Trazado 205" d="M0,0,.311,0,1.4,89.343l-.311,0Z" transform="translate(43.035 3.488) rotate(-5.05)" fill="#fff"/>
        <path id="Trazado_208" data-name="Trazado 208" d="M0,0H.312L.669,87.386H.357Z" transform="translate(59.937 6.59) rotate(-1.68)" fill="#fff"/>
        <path id="Trazado_411" data-name="Trazado 411" d="M0,0H.346L.393,90.027H.047Z" transform="matrix(1, -0.006, 0.006, 1, 76.192, 4.522)" fill="#fff"/>
        <path id="Trazado_207" data-name="Trazado 207" d="M0,0,85.434.488l0,.312L0,.312Z" transform="translate(89.985 93.723) rotate(-87.65)" fill="#fff"/>
        <path id="Trazado_206" data-name="Trazado 206" d="M0,0,89.464,1.235l0,.311L0,.311Z" transform="translate(100.9 92.353) rotate(-84.28)" fill="#fff"/>
        <path id="Trazado_202" data-name="Trazado 202" d="M0,0,84.329,1.514l0,.311L0,.311Z" transform="translate(110.602 88.121) rotate(-82.519)" fill="#fff"/>
        <path id="Trazado_203" data-name="Trazado 203" d="M0,0,87.72,2.171l.007.31L.007.31Z" transform="translate(121.855 86.029) rotate(-79.55)" fill="#fff"/>
        <path id="Trazado_204" data-name="Trazado 204" d="M0,0,81.786,2.338l.008.31L.008.31Z" transform="translate(133.422 81.252) rotate(-77.81)" fill="#fff"/>
      </g>
      <path id="Trazado_134" data-name="Trazado 134" d="M122.5,315.718c2.877-.842,7.193-1.8,10.593-1.46,3.232-1.035,10.837-3.737,16.031-7.74a89.074,89.074,0,0,1,.34-11.885c2.657-26.514-3.318-43.976-3.318-43.976s-4.69-13.329-4.177-24.389c-.3.5-.48.8-.48.8-.412-9.541-4.114-19.414-6.886-25.563a2.549,2.549,0,0,1-.312-.1l-3.16-6.456a5.269,5.269,0,0,1-.585-1.191l-.48-1.023.149-.055c-.048-.168-.1-.345-.149-.526h0c-1.98-7.352-3.491-24.789-3.491-24.789a29.767,29.767,0,0,1,7.294-29.713l21.4-16.165a2.162,2.162,0,0,0-.211.661l.177-.135c.3-.758.633-1.683.959-2.71a15.939,15.939,0,0,1-2.139-1.587,14.073,14.073,0,0,1-4.8-7.512,24.943,24.943,0,0,1-.312-6.814l.355-7.794a21.838,21.838,0,0,1,.527-4.545c1.616-6.2,8.838-10.522,16.083-10.8a67.572,67.572,0,0,1,6.905.324,52.9,52.9,0,0,0,5.611.105,1.127,1.127,0,0,0,.6-.139.736.736,0,0,0,.264-.539A2.477,2.477,0,0,0,178.554,78a2.964,2.964,0,0,0-.959-.488l.518.109a2.965,2.965,0,0,0-.849-.4A18.369,18.369,0,0,1,182.6,78.9a6.757,6.757,0,0,1,1.247.922,4.638,4.638,0,0,1,1.8,2.946,5.662,5.662,0,0,0,1.918-2.47,2.2,2.2,0,0,0,0-1.2q.187.206.364.421a.181.181,0,0,0-.034-.126,11.939,11.939,0,0,1,2.786,5.05,1.8,1.8,0,0,0,.5-1.448c.105.286.206.577.3.871a1.775,1.775,0,0,0,.034-.581,17.67,17.67,0,0,1,1.108,6.915c0,2.34-1.18,5.98-4.038,6.8-.144.042-.3.076-.451.105a14.076,14.076,0,0,1,1.326,14.859,17.719,17.719,0,0,1-13.4,9.151q-.067.421-.134.9h-.115c-.077.631-.139,1.3-.187,1.991a15.091,15.091,0,0,0,2.35,1.658,21.288,21.288,0,0,0,7.792,2.3,25.771,25.771,0,0,1,9.423,2.458c3.414,1.683,7.193,4.12,8.368,7.087,1.976,4.954,12.832,12.626,20.14,13.581l2.589-.13.187-.051v.042l.633-.034h.206v.034l.657-.034s.067.265.153.737c3.668-1.1,11.451-4.175,21.579-12.239,11.288-8.985,26.523-7.218,32.4-6.086a.941.941,0,0,1,.779.737.857.857,0,0,1-.511.9c-2.369,1.145-6.052,2.807-7.778,2.992,0,0,3.558,3.232-.221,4.958a3.036,3.036,0,0,1-2.844-.24c-1.817-1.166-6.872,1.477-14.189,2.853,0,0-20.658,18.762-30.905,21.666a12.709,12.709,0,0,1-.791,1.17l-.633-.046-.034.046h-.086l-.077.589s-15.944-.737-21.1-5.816a7.784,7.784,0,0,1-1.012-.947l5.543,61.227h-.053l.053.581h-4.076a118.587,118.587,0,0,0,1.093,22.571v39.9s.211,3.514-8.1,8.628q-13.106,7.984-25.228,17.116l-1.007.766c1.53,12.2,4.728,34.965,7.394,35.815l-1.645.253c2.834,3.135,10.818,11.738,13.259,11.978,2.987.29,4.977,4.369,0,5.244a63.156,63.156,0,0,1-29.563-2.559,3.932,3.932,0,0,1-2.839-4.209l.959-6.431a.962.962,0,0,0-.422.391c-.662,1.747,0-2.332,0-2.332a163.881,163.881,0,0,1-6.416-23.5l-9.84,7.483s-.2-.215-.542-.6c-2.4,4.815-6.713,14.65-5.754,21.864,1.328,9.9-11.283,1.166-9.955-4.659,1.074-4.714-3.716-24.679-5.586-32.129a3.291,3.291,0,0,1,2.527-3.876Z" transform="translate(-98.722 -46.474)" fill="url(#linear-gradient-2)"/>
      <path id="Trazado_135" data-name="Trazado 135" d="M249.516,177.572s9.4-1.423,23.329-12.512c11.029-8.775,25.894-7.045,31.649-5.943a.906.906,0,0,1,.807.712.825.825,0,0,1-.543.884c-2.316,1.115-5.913,2.74-7.6,2.925,0,0,3.472,3.156-.216,4.844a2.967,2.967,0,0,1-2.777-.236c-1.774-1.136-6.713,1.444-13.853,2.786,0,0-27.865,25.311-34.344,21.043Z" transform="translate(-122.701 -69.897)" fill="#fec3be"/>
      <path id="Trazado_136" data-name="Trazado 136" d="M185.956,132.066s-2.594,9.68,0,16.494l-11.662,1.418-10.367-4.545v-5.976s4.862-9.1,3.563-19.621Z" transform="translate(-107.098 -58.801)" fill="#fec3be"/>
      <path id="Trazado_137" data-name="Trazado 137" d="M145.062,424.991s-8.425,14.5-7.126,24.17-11.029,1.136-9.72-4.549c1.05-4.6-3.63-24.1-5.452-31.371a3.209,3.209,0,0,1,2.455-3.788c3.9-1.124,10.415-2.525,13.7-.4C143.767,412.18,145.062,424.991,145.062,424.991Z" transform="translate(-99.253 -142.137)" fill="#8b416f"/>
      <path id="Trazado_138" data-name="Trazado 138" d="M185.766,453.979s11.029,12.512,13.935,12.8,4.862,4.268,0,5.118a61.665,61.665,0,0,1-28.867-2.5,3.839,3.839,0,0,1-2.772-4.116l1.827-12.155Z" transform="translate(-107.877 -155.203)" fill="#8b416f"/>
      <path id="Trazado_139" data-name="Trazado 139" d="M197.918,267.479l10.55,1.237a119.369,119.369,0,0,0,.125,32.6v38.959s.206,3.43-7.907,8.417q-12.766,7.8-24.571,16.712l-29.4,22.356s-11.667-12.512-10.046-19.907c0,0,19.44-5.4,22.034-14.221,1.487-5.05,9.025-9.259,15.2-11.931,7.951-3.447,12.285-11.279,10.108-18.821a13.532,13.532,0,0,0-1.654-3.657c-5.184-7.963-12.636-25.879-12.636-25.879l14.256-23.888Z" transform="translate(-101.884 -101.506)" fill="#4d4981"/>
      <path id="Trazado_140" data-name="Trazado 140" d="M197.918,267.479l10.55,1.237a119.369,119.369,0,0,0,.125,32.6v38.959s.206,3.43-7.907,8.417q-12.766,7.8-24.571,16.712l-29.4,22.356s-11.667-12.512-10.046-19.907c0,0,19.44-5.4,22.034-14.221,1.487-5.05,9.025-9.259,15.2-11.931,7.951-3.447,12.285-11.279,10.108-18.821a13.532,13.532,0,0,0-1.654-3.657c-5.184-7.963-12.636-25.879-12.636-25.879l14.256-23.888Z" transform="translate(-101.884 -101.506)" opacity="0.05"/>
      <path id="Trazado_141" data-name="Trazado 141" d="M184.782,401.175s-19.119,2.845-19.766,4.549,0-2.277,0-2.277-11.029-29.292-8.425-55.171-3.242-42.928-3.242-42.928-6.8-19.339-2.916-30.428,44.716-6.258,44.716-6.258-14.256,29.275-13.93,43.218c0,0-1.621,42.086-4.536,46.922C176.683,358.8,181.22,400.039,184.782,401.175Z" transform="translate(-104.304 -101.546)" fill="#4d4981"/>
      <path id="Trazado_142" data-name="Trazado 142" d="M185.307,147.441s-1.942,10.522-21.387,5.972l12.947,86.449s37.585,1.136,37.264-2.845L206.368,184.7Z" transform="translate(-107.097 -66.785)" fill="#fff"/>
      <path id="Trazado_143" data-name="Trazado 143" d="M189.73,146.648a16.6,16.6,0,0,0,9.36,3.9,25.165,25.165,0,0,1,9.2,2.4c3.357,1.637,7.015,4.019,8.152,6.923,2.268,5.686,16.524,15.071,23.017,13.08l-2.268,17.062s-18.467-.842-21.708-7.108l5.51,60.856h-4.853s-2.594-16.494-4.536-19.907-5.831-22.179-6.157-26.733-5.184-30.723-9.4-35.264l-6.32-13.51Z" transform="translate(-112.004 -66.556)" opacity="0.1"/>
      <path id="Trazado_144" data-name="Trazado 144" d="M189.73,147.85a21.347,21.347,0,0,0,10.008,3.615,25.162,25.162,0,0,1,9.2,2.407c3.357,1.637,7.015,4.019,8.152,6.923,2.268,5.686,16.524,15.071,23.017,13.08l-2.268,17.062s-18.467-.842-21.708-7.108l5.529,60.848h-4.872s-2.594-16.494-4.536-19.907-5.831-22.179-6.157-26.733-5.184-30.723-9.4-35.264l-6.967-13.223Z" transform="translate(-112.004 -66.904)" opacity="0.1"/>
      <path id="Trazado_145" data-name="Trazado 145" d="M189.73,147.051a21.347,21.347,0,0,0,10.008,3.615,25.165,25.165,0,0,1,9.2,2.4c3.357,1.637,7.015,4.019,8.152,6.923,2.268,5.686,16.524,15.071,23.017,13.08l-2.268,17.062s-18.467-.842-21.708-7.108l5.529,60.852h-4.872s-2.594-16.494-4.536-19.907-5.831-22.179-6.157-26.733-5.184-30.723-9.4-35.264l-6.967-13.223Z" transform="translate(-112.004 -66.672)" fill="#fd6f8d"/>
      <path id="Trazado_146" data-name="Trazado 146" d="M169.16,128.576c.422-2.694-.422-4.377-.81-7.538l18.467,12.23a37.435,37.435,0,0,0-.777,4.07,20.02,20.02,0,0,1-2.786.2C176.789,137.536,172.176,133.129,169.16,128.576Z" transform="translate(-107.939 -59.148)" opacity="0.1"/>
      <ellipse id="Elipse_43" data-name="Elipse 43" cx="17.498" cy="15.357" rx="17.498" ry="15.357" transform="translate(57.797 46.819)" fill="#fec3be"/>
      <path id="Trazado_147" data-name="Trazado 147" d="M200.36,95.222a17.314,17.314,0,0,0-1.439-7.6,1.733,1.733,0,0,1-.369,2.454,11.891,11.891,0,0,0-4.4-6.835,2.073,2.073,0,0,1,1.582,2.614,6.006,6.006,0,0,1-2.163,2.672c.106-1.629-1.117-3.144-2.671-4.04a18.094,18.094,0,0,0-5.212-1.658,2.663,2.663,0,0,1,2,2.719.717.717,0,0,1-.259.526,1.1,1.1,0,0,1-.59.139,51.65,51.65,0,0,1-5.476-.1,65.329,65.329,0,0,0-6.742-.316c-7.078.261-14.127,4.482-15.7,10.522a21.322,21.322,0,0,0-.513,4.436l-.326,7.63a24.348,24.348,0,0,0,.307,6.654,14.468,14.468,0,0,0,8.253,9.57c2.541-3.232,2.767-7.386,3.649-11.237a5.3,5.3,0,0,1,1.1-2.483,2.675,2.675,0,0,1,2.709-.808c.949.332,1.362,1.608.571,2.176.681.728,2.024.185,2.805-.463a12.959,12.959,0,0,0,4.392-6.881c.316-1.326.633-2.946,2.091-3.4a4.463,4.463,0,0,1,1.568-.093c3.083.185,7.907,1.3,10.9.446C199.209,101.059,200.36,97.507,200.36,95.222Z" transform="translate(-105.97 -48.096)" opacity="0.1"/>
      <path id="Trazado_148" data-name="Trazado 148" d="M199.958,94.819a17.314,17.314,0,0,0-1.439-7.6,1.733,1.733,0,0,1-.369,2.454,11.891,11.891,0,0,0-4.4-6.835,2.073,2.073,0,0,1,1.582,2.614,6.006,6.006,0,0,1-2.163,2.672c.105-1.629-1.117-3.144-2.671-4.04a18.093,18.093,0,0,0-5.212-1.658,2.663,2.663,0,0,1,2,2.719.717.717,0,0,1-.259.526,1.1,1.1,0,0,1-.59.139,51.646,51.646,0,0,1-5.476-.1,65.333,65.333,0,0,0-6.742-.316c-7.078.261-14.127,4.482-15.7,10.522a21.323,21.323,0,0,0-.518,4.457l-.345,7.609a24.349,24.349,0,0,0,.307,6.654,14.468,14.468,0,0,0,8.253,9.57c2.541-3.232,2.767-7.386,3.649-11.237a5.3,5.3,0,0,1,1.1-2.483,2.676,2.676,0,0,1,2.709-.808c.949.332,1.362,1.608.571,2.176.681.728,2.024.185,2.805-.463a12.959,12.959,0,0,0,4.393-6.881c.316-1.326.633-2.946,2.091-3.4a4.463,4.463,0,0,1,1.568-.093c3.083.185,7.907,1.3,10.9.446C198.8,100.661,199.958,97.1,199.958,94.819Z" transform="translate(-105.889 -47.98)" fill="#fad375"/>
      <path id="Trazado_149" data-name="Trazado 149" d="M251.769,183.656s2.594,10.522-2.268,17.062l-2.752-.2,1.5-16.687Z" transform="translate(-122.848 -77.26)" opacity="0.1"/>
      <path id="Trazado_150" data-name="Trazado 150" d="M250.969,183.656s2.594,10.522-2.268,17.062l-2.752-.2,1.5-16.687Z" transform="translate(-122.696 -77.26)" fill="#fd6f8d"/>
      <path id="Trazado_151" data-name="Trazado 151" d="M159.246,143.249l-20.883,15.782a29.066,29.066,0,0,0-7.131,29.006s2.268,26.161,4.862,27.3c0,0,9.073,15.925,9.72,31,0,0,12.151-21.464,17.661-8.388a25.223,25.223,0,0,0,18.308,14.928l-7.145-77.35S156.656,148.081,159.246,143.249Z" transform="translate(-100.638 -65.573)" opacity="0.1"/>
      <path id="Trazado_152" data-name="Trazado 152" d="M158.443,143.249l-20.9,15.782a29.066,29.066,0,0,0-7.131,29.006s2.268,26.161,4.862,27.3c0,0,9.073,15.925,9.72,31,0,0,12.8-22.609,18.308-9.528a28.171,28.171,0,0,0,17.661,16.068l-7.131-77.35S155.853,148.081,158.443,143.249Z" transform="translate(-100.482 -65.573)" fill="#fd6f8d"/>
      <path id="Trazado_153" data-name="Trazado 153" d="M150.327,236.845s-5.184-3.127-13.609,5.4l20.735,32.987,6.968-9.259S149.679,240.54,150.327,236.845Z" transform="translate(-101.923 -92.483)" fill="#fec3be"/>
      <path id="Trazado_154" data-name="Trazado 154" d="M155.006,237.7s-11.465,11.3-15.939,9.49l-4.143-8.464,15.546-5.863Z" transform="translate(-101.582 -91.495)" opacity="0.1"/>
      <path id="Trazado_155" data-name="Trazado 155" d="M155.006,236.912s-11.465,11.3-15.939,9.507l-4.143-8.464,15.546-5.863Z" transform="translate(-101.582 -91.271)" fill="#fd6f8d"/>
      <path id="Trazado_156" data-name="Trazado 156" d="M168.095,275.07s-5.457,9.819-8.372,10.391l4.21,4.268,6.157-10.256Z" transform="translate(-106.298 -103.702)" opacity="0.1"/>
      <path id="Trazado_157" data-name="Trazado 157" d="M168.5,275.467s-5.457,9.819-8.373,10.391l4.21,4.251,6.138-10.223Z" transform="translate(-106.375 -103.816)" fill="#4d4981"/>
      <path id="Trazado_158" data-name="Trazado 158" d="M157.7,190.075s-.647,20.475,1.942,28.151" transform="translate(-105.901 -79.117)" opacity="0.1"/>
      <path id="Trazado_159" data-name="Trazado 159" d="M221.628,194.039s-3.889-1.136-3.889-3.981" transform="translate(-117.332 -79.112)" opacity="0.1"/>
      <g id="Grupo_13" data-name="Grupo 13" transform="translate(320.955 0)" opacity="0.5">
        <path id="Trazado_160" data-name="Trazado 160" d="M490.079,149.389a15.593,15.593,0,0,0,1.324,7.125l.959,12.2s.24-.118.676-.3c-.58,4.629-.163,13.11,10.195,14.7a1.862,1.862,0,0,0,.638-.278,38.8,38.8,0,0,0,1.918-3.876l.12.034-.12.522.767.21c-3.735,7.1-2.877,21.885-2.048,23.333a15.722,15.722,0,0,1,.81,4.415,44.274,44.274,0,0,1-.479,11.784c-.48,2.689-.623,5.989.959,7.361,2.877,2.491,2.556,21.6,2.556,21.6a13.13,13.13,0,0,0,.667,1.263l-.988.122s0,7.479,1.6,12.74c.921,3.026-.384,6.969-1.654,9.772a17.509,17.509,0,0,0-1.108,11.9c.935,3.426,2.877,6.843,6.919,7.967,8.953,2.491,10.871-10.522,10.871-10.522s-.321-9.97,0-11.363a32.641,32.641,0,0,1,1.156-3.055,33.769,33.769,0,0,0,2.4-16.414l-.369-3.5-1.736.219c-.029-.362-.053-.741-.077-1.136s-.043-.682-.062-1.04-.038-.724-.058-1.1-.038-.762-.053-1.153q0-.295-.024-.593c-.072-1.793-.134-3.708-.187-5.6,0-.842-.043-1.683-.057-2.5,0-.614-.024-1.225-.034-1.814v-.589c0-.968-.029-1.894-.034-2.748v-4.095c0-1.04.048-1.5.1-1.119.158,1.263.638,8.863,0-.842-.518-7.824,7.509-26.476,10.621-33.374a28.738,28.738,0,0,1,2.877,1.507c1.065,10.883-.4,31.746-.868,37.878v.025c-.038.476-.067.842-.091,1.141v.051l-.024.3v.219s-4.158,22.727-4.158,27.975c0,4.053-2.278,9.915-3.323,12.39-1.52.581-2.752,1.178-2.752,1.178l.321,20.774s-3.515,10.248,9.269,12.739,7.351-10.248,7.351-10.248l-.959-9.141,4.474-14.124-1.256-.223c2.657-7.449,9.773-27.945,9.25-32.457-.585-5.05,2.287-10.555,2.8-11.489h0l.077-.143c-2.743-4.966,5.6-31.144,9.4-42.44,4.742-1.986,8.181-3.535,8.181-3.535s-.1-.156-.264-.421l.264-.118A52.03,52.03,0,0,1,571.9,170.92l.273-.244-.206-.509c.652-.551,1.007-.875,1.007-.875s9.269,1.385,7.035-2.492-1.6-9.68-1.6-9.68V135.833l4.474,1.292c8.416,1.216,9.921-7.033,9.878-13.358a43.2,43.2,0,0,0-.6-7.416s-6.392-42.928-17.584-41.543c-10.482,1.3-19.7-4.087-20.826-4.777q-.206-.556-.369-1.094a14.155,14.155,0,0,0,1.678-2c.35,0,.7-.042,1.041-.076V66.61l.321-.029a6.779,6.779,0,0,1,2.283-5.231,8.037,8.037,0,0,1,2.1-1.263c1.549-.635,3.3-.842,4.819-1.524a5.3,5.3,0,0,0,1.438-.964,2.744,2.744,0,0,0,1.252-2.866,4.9,4.9,0,0,1-.479-1.38c0-.673.6-1.212.959-1.805,1.055-1.742.1-3.922-1.223-5.53s-3.012-3.123-3.5-5.05a19.367,19.367,0,0,0-.48-2.395c-.959-2.5-4.632-3.241-7.672-3.1s-6.3.707-8.929-.606a8.738,8.738,0,0,0-1.6-.8,4.989,4.989,0,0,0-2.019,0,28.688,28.688,0,0,0-10.55,4.209,23.926,23.926,0,0,0-3.577,2.567,12.071,12.071,0,0,0-1.918,2.007,5.653,5.653,0,0,0,1.209,8.687,12.511,12.511,0,0,0-3.053,10.312,13.569,13.569,0,0,0,6.271,9.123,16.32,16.32,0,0,1-1.8,2.163v-.109s-9.749,4.293-13.268,3.737c-3.433-.543-12.352,4.47-12.17,14.5v.774l-5.754,15.66a56.312,56.312,0,0,0-3.5,19.469S489.979,139.768,490.079,149.389Zm15.455,6.633,7.605-24.9v5.446l-4.8,14.957s-.959,5-1.693,10.32Z" transform="translate(-490.078 -33.962)" fill="url(#linear-gradient-3)"/>
      </g>
      <path id="Trazado_161" data-name="Trazado 161" d="M532.283,328.842l.355,3.422a33.393,33.393,0,0,1-2.326,16.056c-.571,1.41-1.017,2.572-1.112,2.988-.307,1.355,0,11.1,0,11.1s-1.851,12.723-10.487,10.286c-3.884-1.094-5.754-4.44-6.675-7.786a17.319,17.319,0,0,1,1.069-11.624c1.228-2.74,2.484-6.591,1.6-9.549-1.544-5.143-1.544-12.449-1.544-12.449Z" transform="translate(-173.195 -119.255)" fill="#5a5773"/>
      <path id="Trazado_162" data-name="Trazado 162" d="M540.967,242.349s-12.027,25.715-11.408,35.184.154,2.029,0,.812c-.273-2.167,0,23.568.926,26.514,0,0-12.645,8.118-17.579-2.706,0,0,.307-18.674-2.465-21.11-1.525-1.338-1.376-4.562-.925-7.193a43.821,43.821,0,0,0,.479-11.5,15.523,15.523,0,0,0-.782-4.314c-.925-1.625-1.851-20.029,3.7-25.172Z" transform="translate(-172.629 -91.493)" fill="#605d82"/>
      <path id="Trazado_163" data-name="Trazado 163" d="M529.881,304.882c-.926-2.975-1.2-28.694-.926-26.514.154,1.216.619,8.661,0-.812s11.408-35.184,11.408-35.184l-26.906-9.082c.125-.139.254-.269.384-.391l28.062,9.474s-12.026,25.715-11.408,35.184.154,2.029,0,.812c-.273-2.167,0,23.568.926,26.514,0,0-5.049,3.241-10.012,2.9A20.551,20.551,0,0,0,529.881,304.882Z" transform="translate(-173.569 -91.504)" opacity="0.1"/>
      <path id="Trazado_164" data-name="Trazado 164" d="M556.871,362.61l-4.316,13.8.925,8.931s5.241,12.449-7.092,10.012-8.943-12.449-8.943-12.449l-.307-20.3s4.934-2.437,7.092-2.163S556.871,362.61,556.871,362.61Z" transform="translate(-178.05 -128.391)" fill="#5a5773"/>
      <path id="Trazado_165" data-name="Trazado 165" d="M578.686,237.073S564.5,277.4,567.892,283.633c0,0-3.39,5.955-2.776,11.363s-9.869,34.372-9.869,34.372l-15.422-2.437s3.7-8.118,3.7-13.261,4.009-27.356,4.009-27.356,3.39-40.6-.619-44.931Z" transform="translate(-178.584 -92.711)" fill="#605d82"/>
      <g id="Grupo_14" data-name="Grupo 14" transform="translate(361.246 144.362)" opacity="0.1">
        <path id="Trazado_166" data-name="Trazado 166" d="M548.117,247.761c2.556,9.192-.269,43.016-.269,43.016s-4.009,22.192-4.009,27.356c0,3.927-2.153,9.583-3.174,12.041l-.834-.13s3.7-8.118,3.7-13.261,4.009-27.356,4.009-27.356S550.121,258.526,548.117,247.761Z" transform="translate(-539.831 -240.164)"/>
        <path id="Trazado_167" data-name="Trazado 167" d="M574.45,302.466l-.077.139c-.024-.139-.048-.286-.062-.421a2.808,2.808,0,0,0,.139.282Z" transform="translate(-546.388 -255.906)"/>
        <path id="Trazado_168" data-name="Trazado 168" d="M549.284,242.7a3.789,3.789,0,0,0-.7-1.3l31.764-4.331s-.187.526-.508,1.465Z" transform="translate(-541.496 -237.073)"/>
      </g>
      <path id="Trazado_169" data-name="Trazado 169" d="M496.242,215.628s-4.627,15.151,9.25,17.323a1.791,1.791,0,0,0,.619-.269s8.018-13.8,1.851-19.216Z" transform="translate(-170.154 -85.882)" fill="#a1616a"/>
      <path id="Trazado_170" data-name="Trazado 170" d="M559.68,74.846s-.925,11.363,9.25,16.78-21.579,20.3-21.579,20.3L530.688,88.65s7.083.812,11.4-10.012Z" transform="translate(-176.846 -45.787)" fill="#a1616a"/>
      <path id="Trazado_171" data-name="Trazado 171" d="M562.7,99.6s-15.728,28.69-29.913,1.625l-21.9,95.275s33.922,9.2,34.229,13.535,34.229-11.1,34.229-11.1-7.4-11.91-5.553-19.217S562.7,99.6,562.7,99.6Z" transform="translate(-173.081 -52.947)" opacity="0.1"/>
      <path id="Trazado_172" data-name="Trazado 172" d="M562.7,98.839s-15.728,28.69-29.913,1.625l-21.9,95.27s33.922,9.2,34.233,13.531,34.229-11.1,34.229-11.1-7.4-11.91-5.553-19.217S562.7,98.839,562.7,98.839Z" transform="translate(-173.081 -52.727)" fill="#e1e7ef"/>
      <path id="Trazado_173" data-name="Trazado 173" d="M552.76,370.963s4.009-7.849-5.241-7.849-7.711,7.058-7.711,7.058Z" transform="translate(-178.562 -129.168)" fill="#5a5773"/>
      <path id="Trazado_174" data-name="Trazado 174" d="M527.268,342.072s3.7-8.392-5.553-8.661-4.627,7.575-4.627,7.575Z" transform="translate(-174.04 -120.575)" fill="#5a5773"/>
      <path id="Trazado_175" data-name="Trazado 175" d="M530.618,90.271s-9.4,4.209-12.8,3.653-12.333,4.6-11.72,14.886l-5.572,15.361a55.669,55.669,0,0,0-3.357,19.027h0s-8.018,19.486-3.7,28.147l.926,11.91s7.078-3.531,14.477-2.449l-1.851-9.743,8.325-27.608,13.877-29.5Z" transform="translate(-169.525 -50.249)" opacity="0.1"/>
      <path id="Trazado_176" data-name="Trazado 176" d="M530.618,89.507s-9.4,4.209-12.8,3.653-12.333,4.6-11.72,14.886l-5.572,15.349a55.669,55.669,0,0,0-3.357,19.027h0s-8.018,19.486-3.7,28.147l.926,11.91s7.092-3.518,14.5-2.437L507.04,170.3l8.325-27.608,13.877-29.5Z" transform="translate(-169.525 -50.028)" fill="#67647e"/>
      <path id="Trazado_177" data-name="Trazado 177" d="M518.775,126.358v30.6l-4.627,14.617s-3.083,15.967-2.158,20.841,15.729,5.955,19.737,1.894,1.851-38.719,1.851-38.719l.772-50.747-.619-1.625Z" transform="translate(-173.257 -53.993)" opacity="0.1"/>
      <path id="Trazado_178" data-name="Trazado 178" d="M518.011,125.121V155.7l-4.627,14.617s-3.083,15.967-2.158,20.841,15.728,5.955,19.737,1.894,1.851-38.719,1.851-38.719l.772-50.714Z" transform="translate(-173.112 -54.111)" fill="#67647e"/>
      <path id="Trazado_179" data-name="Trazado 179" d="M586.658,147.966,576.789,174.9l4.628,11.5s-21.9,20.3-35.773,10.555c0,0-1.544-41.413,1.544-51.156S565.074,103.3,565.074,103.3l3.083-8.661,16.342,8.118Z" transform="translate(-179.617 -51.511)" opacity="0.1"/>
      <path id="Trazado_180" data-name="Trazado 180" d="M587.611,146.055v26.514s-.619,5.686,1.544,9.474-6.785,2.437-6.785,2.437-21.9,20.3-35.773,10.555c0,0-1.544-41.413,1.544-51.156s17.886-42.507,17.886-42.507l3.083-8.661,16.342,8.118Z" transform="translate(-179.798 -50.955)" fill="#67647e"/>
      <path id="Trazado_191" data-name="Trazado 191" d="M0,0,19.722,1.206l.188,3.235L.188,3.235Z" transform="translate(388.126 80.495) rotate(123)" fill="#e6e6e6"/>
      <path id="Trazado_192" data-name="Trazado 192" d="M6.282.227C9.8.442,12.75,2.269,12.868,4.309s-2.64,3.52-6.16,3.306S.24,5.573.122,3.533,2.762.013,6.282.227Z" transform="matrix(0.541, -0.841, 0.841, 0.541, 365.017, 99.407)" opacity="0.1"/>
      <path id="Trazado_193" data-name="Trazado 193" d="M6.294.228c3.527.216,6.481,2.046,6.6,4.087S10.249,7.838,6.723,7.622.241,5.577.123,3.535,2.767.013,6.294.228Z" transform="translate(366.667 100.773) rotate(-57)" fill="#e6e6e6"/>
      <path id="Trazado_194" data-name="Trazado 194" d="M5.115.186c2.866.175,5.267,1.662,5.363,3.321S8.329,6.368,5.463,6.193.2,4.531.1,2.872,2.249.01,5.115.186Z" transform="translate(367.948 100.151) rotate(-57)" opacity="0.1"/>
      <path id="Trazado_181" data-name="Trazado 181" d="M567.715,86.079s9.4,6.09,20.2,4.735,16.961,40.6,16.961,40.6,4.009,21.653-8.943,19.759l-28.666-8.392s6.167-5.686,5.241-12.992l13.877,4.874-.619-23.278Z" transform="translate(-183.802 -49.036)" opacity="0.1"/>
      <path id="Trazado_182" data-name="Trazado 182" d="M604.106,148.444s4.009,21.653-8.943,19.759l-28.68-8.392s6.167-5.686,5.241-12.992l13.877,4.874Z" transform="translate(-183.653 -66.606)" opacity="0.1"/>
      <path id="Trazado_183" data-name="Trazado 183" d="M569.517,147.894s-9.591-11.107-16.692-5.778,14.17,15.1,14.17,15.1Z" transform="translate(-180.78 -64.827)" fill="#a1616a"/>
      <path id="Trazado_184" data-name="Trazado 184" d="M567.715,85.321s9.4,6.09,20.2,4.735,16.961,40.6,16.961,40.6,4.009,21.653-8.943,19.759l-28.666-8.392s6.167-5.686,5.241-12.992l13.877,4.874-.619-23.278L570.036,99.264Z" transform="translate(-183.802 -48.817)" fill="#67647e"/>
      <path id="Trazado_185" data-name="Trazado 185" d="M543.825,79.4,561.4,75.61s-.916.909.154,4.465c-2.829,2.849-6.306,6.633-10.948,6.633a16.8,16.8,0,0,1-9.216-2.681A23.067,23.067,0,0,0,543.825,79.4Z" transform="translate(-178.882 -46.008)" opacity="0.1"/>
      <ellipse id="Elipse_47" data-name="Elipse 47" cx="15.422" cy="13.535" rx="15.422" ry="13.535" transform="translate(356.614 13.087)" fill="#a1616a"/>
      <path id="Trazado_186" data-name="Trazado 186" d="M543.822,55.354c-3.577-.534-7.509-1.928-8.708-4.932a6.154,6.154,0,0,1,1.069-5.825,17.357,17.357,0,0,1,4.992-4.209,27.7,27.7,0,0,1,10.195-4.108,4.755,4.755,0,0,1,1.947,0,8.437,8.437,0,0,1,1.578.758c2.537,1.284,5.692.728,8.631.593s6.464.593,7.39,3.03c.288.753.268,1.566.479,2.34.479,1.894,2.105,3.367,3.357,4.945s2.215,3.712,1.161,5.412c-.36.577-.959,1.107-.959,1.763a5,5,0,0,0,.479,1.351c.436,1.4-.834,2.807-2.3,3.472s-3.155.871-4.651,1.49a7.1,7.1,0,0,0-4.541,6.624c-1.362.139-2.949.21-3.87-.682-.412-.4-.614-.934-.988-1.359a10.3,10.3,0,0,0-1.841-1.33c-3.227-2.327-.935-5.543-2.762-8.051-.959-1.292-2.484-.9-4.028-.875A40.462,40.462,0,0,1,543.822,55.354Z" transform="translate(-177.622 -34.603)" opacity="0.1"/>
      <path id="Trazado_187" data-name="Trazado 187" d="M544.195,54.963c-3.577-.534-7.509-1.928-8.708-4.932a6.154,6.154,0,0,1,1.069-5.825A17.356,17.356,0,0,1,541.548,40a27.7,27.7,0,0,1,10.195-4.108,4.755,4.755,0,0,1,1.947,0,8.436,8.436,0,0,1,1.578.758c2.537,1.284,5.692.728,8.631.593s6.464.593,7.39,3.03c.288.753.268,1.566.479,2.34.48,1.894,2.1,3.367,3.357,4.945s2.215,3.712,1.161,5.412c-.36.577-.959,1.107-.959,1.763a5,5,0,0,0,.479,1.351c.436,1.4-.834,2.807-2.3,3.472s-3.155.871-4.651,1.49a7.1,7.1,0,0,0-4.541,6.624c-1.362.139-2.949.21-3.87-.682-.412-.4-.614-.934-.988-1.359a10.3,10.3,0,0,0-1.841-1.33c-3.227-2.327-.935-5.543-2.762-8.051-.959-1.292-2.484-.9-4.028-.875a40.463,40.463,0,0,1-6.627-.408Z" transform="translate(-177.693 -34.49)" fill="#4a4347"/>
      <path id="Trazado_188" data-name="Trazado 188" d="M522.734,126.829s-3.39,15.429-1.851,21.384a17.516,17.516,0,0,1-.4,10.488" transform="translate(-174.905 -60.823)" opacity="0.1"/>
      <path id="Trazado_189" data-name="Trazado 189" d="M590.719,135.966s1.477,10.286-.983,12.449" transform="translate(-188.076 -63.466)" opacity="0.1"/>
      <path id="Trazado_190" data-name="Trazado 190" d="M484.445,313.8a.637.637,0,1,0-.719-.631.68.68,0,0,0,.719.631Z" transform="translate(-167.915 -114.538)"/>
      <path id="Trazado_195" data-name="Trazado 195" d="M.05.367l21.2-.924-.144,3-21.2.924Z" transform="translate(168.851 87.212) rotate(22.2)" fill="#e6e6e6"/>
      <path id="Trazado_196" data-name="Trazado 196" d="M3.315.092c1.9.091,3.568,3.238,3.733,7.029s-1.238,6.791-3.135,6.7S.345,10.584.18,6.793,1.418,0,3.315.092Z" transform="translate(182.345 97.536) rotate(-67.8)" opacity="0.1"/>
      <path id="Trazado_197" data-name="Trazado 197" d="M3.315.092c1.9.091,3.568,3.238,3.733,7.029s-1.238,6.791-3.135,6.7S.345,10.584.18,6.793,1.418,0,3.315.092Z" transform="translate(182.723 97.667) rotate(-67.8)" fill="#e6e6e6"/>
      <path id="Trazado_198" data-name="Trazado 198" d="M2.693.075c1.541.074,2.9,2.631,3.033,5.712S4.72,11.305,3.179,11.232.281,8.6.146,5.52,1.153,0,2.693.075Z" transform="translate(184.186 97.532) rotate(-67.8)" opacity="0.1"/>
    </g>
  </g>
</svg>
