<svg xmlns="http://www.w3.org/2000/svg" xmlns:xlink="http://www.w3.org/1999/xlink" width="717" height="352" viewBox="0 0 717 352">
  <defs>
    <clipPath id="clip-path">
      <rect id="Rectángulo_135" data-name="Rectángulo 135" width="717" height="352" transform="translate(288 366)" fill="#fff" stroke="#707070" stroke-width="1"/>
    </clipPath>
  </defs>
  <g id="Enmascarar_grupo_19" data-name="Enmascarar grupo 19" transform="translate(-288 -366)" clip-path="url(#clip-path)">
    <g id="undraw_deliveries_131a" transform="translate(409.068 366.049)">
      <path id="Trazado_412" data-name="Trazado 412" d="M404.41,257.9l3.736-2.306c.355-.225.705-.465,1.065-.69a35.688,35.688,0,0,1-29.6-33.512,35.317,35.317,0,0,1,3.081-16.256,35.748,35.748,0,0,1,22.913-19.767l-.185,14.705,8.078-16.006a.32.32,0,0,1,.1,0,35.683,35.683,0,0,1,37.308,33.982c.03.68,0,1.35,0,2a42.663,42.663,0,0,0,7.053-10.409c3.421-7.628,3.5-16.266,3.216-26.765-.54-20.807-1.436-41.77-2.606-62.672a35.663,35.663,0,0,1-31.686-33.757c-.05-1.1-.035-2.171,0-3.241a5.359,5.359,0,0,1,.04-.8c.07-1.035.165-2.061.325-3.071a2.918,2.918,0,0,1,.09-.5q.22-1.285.525-2.541c.08-.31.155-.625.24-.935a27.036,27.036,0,0,1,.845-2.691c.105-.3.23-.58.34-.87.255-.65.53-1.29.82-1.926.155-.335.305-.665.47-1,.04-.085.075-.17.12-.255h0a35.658,35.658,0,0,1,41.895-18.1l-.24,19.137,8-15.806A35.463,35.463,0,0,1,497.363,92.3h.04c-.055.255-.135.5-.2.75-.11.47-.23.935-.36,1.4-.17.6-.36,1.18-.555,1.766-.15.435-.3.88-.46,1.31-.24.63-.5,1.245-.79,1.861-.16.36-.305.725-.5,1.08q-.685,1.38-1.5,2.7c-.185.305-.4.6-.59.9-.38.59-.765,1.175-1.18,1.746-.255.35-.53.685-.8,1.03-.39.5-.79,1-1.205,1.456-.3.335-.6.665-.905,1-.435.46-.885.905-1.35,1.345-.305.3-.615.59-.935.87-.525.465-1.075.91-1.631,1.345-.28.22-.55.45-.84.66q-1.265.94-2.616,1.766c-.17.1-.35.185-.5.285-.75.445-1.5.86-2.306,1.25-.335.165-.685.31-1.03.465-.645.29-1.3.57-1.961.825-.385.145-.78.28-1.175.415-.655.225-1.32.43-2,.615-.4.11-.8.22-1.2.315-.73.175-1.476.32-2.226.445a.254.254,0,0,0-.145.03q.74,13.225,1.315,26.464a35.663,35.663,0,0,1,49.518-15.481L512.969,148.2l12.975-12.459a35.583,35.583,0,0,1,11.5,24.639,34.923,34.923,0,0,1-.905,9.829,35.668,35.668,0,0,1-65.608,9.718c0,.9.065,1.8.09,2.691.235,9.263.53,20.787-4.086,31.081-3.126,6.978-8.163,12.645-13.14,17.721-3.236,3.306-6.592,6.5-10.034,9.6a35.683,35.683,0,0,1-12.885,10.714q-8.478,6.532-17.556,12.234l-3.676,2.371c-3.4,2.106-6.877,4.267-10.294,6.5.6-.06,1.2-.125,1.806-.15a35.7,35.7,0,0,1,35.133,23.223l-22.3,18.151,24.509-5.687a35.7,35.7,0,0,1-51.158,32.136c.55.69,1.105,1.375,1.656,2.061,1.1,1.365,2.186,2.721,3.251,4.066,14.505,18.372,18.547,35.818,11.359,49.118l-8.733-4.722c7-12.945-3.5-29.511-10.419-38.244-1.045-1.32-2.116-2.651-3.2-4-9.268-11.5-19.772-24.569-19.507-40.579C362.13,284.1,385.583,269.561,404.41,257.9Z" transform="translate(-62.627 -49.108)" fill="#f2f2f2"/>
      <ellipse id="Elipse_130" data-name="Elipse 130" cx="227.831" cy="10.504" rx="227.831" ry="10.504" transform="translate(0 330.943)" fill="#3f3d56"/>
      <path id="Trazado_413" data-name="Trazado 413" d="M474.52,386.638c1.5-2.756-.2-6.132-2.141-8.593s-4.307-5-4.257-8.148c.07-4.5,4.847-7.158,8.668-9.543a42.414,42.414,0,0,0,7.778-6.257,11.4,11.4,0,0,0,2.4-3.2,13.065,13.065,0,0,0,.715-5.692q-.25-9.633-.95-19.247" transform="translate(-62.627 -49.108)" fill="none" stroke="#3f3d56" stroke-miterlimit="10" stroke-width="2.001"/>
      <path id="Trazado_414" data-name="Trazado 414" d="M493.987,325.616a7.033,7.033,0,0,0-3.5-5.752l-1.571,3.111.045-3.761a7.018,7.018,0,1,0,5,6.4Z" transform="translate(-62.627 -49.108)" fill="#57b793"/>
      <path id="Trazado_415" data-name="Trazado 415" d="M481.467,373.133a7,7,0,1,1,.335-5.652l-4.382,3.566,4.822-1.12A7,7,0,0,1,481.467,373.133Z" transform="translate(-62.627 -49.108)" fill="#57b793"/>
      <path id="Trazado_416" data-name="Trazado 416" d="M478,359.484a7,7,0,0,1-7.333-6.687,6.9,6.9,0,0,1,.605-3.2,7.033,7.033,0,0,1,4.5-3.891l-.035,2.9,1.591-3.151h0a7.023,7.023,0,0,1,.655,14.03Z" transform="translate(-62.627 -49.108)" fill="#57b793"/>
      <path id="Trazado_417" data-name="Trazado 417" d="M495.042,348.124a7.01,7.01,0,1,1,3.1-13.115l-1.24,3.4,2.551-2.451a7,7,0,0,1,2.271,4.847,6.845,6.845,0,0,1-.18,1.931,7,7,0,0,1-6.5,5.387Z" transform="translate(-62.627 -49.108)" fill="#57b793"/>
      <path id="Trazado_418" data-name="Trazado 418" d="M493.041,327.467c-1.621.18-3.2.685-4.822.785a5.247,5.247,0,0,1-4.442-1.556,22.2,22.2,0,0,1-1.3-2.281,5,5,0,0,0-1.766-1.666,7,7,0,1,0,13.125,4.662C493.567,327.422,493.3,327.442,493.041,327.467Z" transform="translate(-62.627 -49.108)" opacity="0.1"/>
      <path id="Trazado_419" data-name="Trazado 419" d="M495.042,348.124a7,7,0,0,1-6.677-10,5.2,5.2,0,0,1,1.41,1.415,22.593,22.593,0,0,0,1.391,2.321,5.725,5.725,0,0,0,4.657,1.626c1.7-.08,3.326-.555,5-.71.23,0,.47-.04.705-.045a7,7,0,0,1-6.487,5.4Z" transform="translate(-62.627 -49.108)" opacity="0.1"/>
      <path id="Trazado_420" data-name="Trazado 420" d="M478,359.484a7,7,0,0,1-7.333-6.687,6.9,6.9,0,0,1,.605-3.2,5.763,5.763,0,0,1,1.5,1.425c.545.77.885,1.656,1.5,2.366a6.483,6.483,0,0,0,4.972,1.741c1.8-.045,3.411-.465,5.142-.6A7.033,7.033,0,0,1,478,359.484Z" transform="translate(-62.627 -49.108)" opacity="0.1"/>
      <path id="Trazado_421" data-name="Trazado 421" d="M481.467,373.133a7.016,7.016,0,1,1-12.8-5.752,7.282,7.282,0,0,1,1.541,1.375,27.673,27.673,0,0,0,1.881,2.5A8.736,8.736,0,0,0,477.9,373.3a30.089,30.089,0,0,0,3.566-.165Z" transform="translate(-62.627 -49.108)" opacity="0.1"/>
      <path id="Trazado_422" data-name="Trazado 422" d="M463.936,383.462s5.537-.17,7.208-1.36,8.5-2.611,8.938-.7,8.328,9.5,2.071,9.533-14.535-1-16.2-2S463.936,383.462,463.936,383.462Z" transform="translate(-62.627 -49.108)" fill="#656380"/>
      <path id="Trazado_423" data-name="Trazado 423" d="M482.262,390.27c-6.252.05-14.535-1-16.2-2-1.265-.77-1.776-3.546-1.941-4.827h-.185s.35,4.467,2,5.5,9.944,2.041,16.2,2c1.806,0,2.431-.66,2.4-1.611C484.3,389.9,483.608,390.26,482.262,390.27Z" transform="translate(-62.627 -49.108)" opacity="0.2"/>
      <path id="Trazado_424" data-name="Trazado 424" d="M159.867,371.208c-3.631-6.722.5-14.955,5.222-20.947s10.5-12.224,10.379-19.862c-.18-10.974-11.824-17.451-21.128-23.268a103.179,103.179,0,0,1-18.972-15.25,27.708,27.708,0,0,1-5.832-7.808c-1.921-4.292-1.871-9.168-1.746-13.87q.6-23.508,2.321-46.927" transform="translate(-62.627 -49.108)" fill="none" stroke="#3f3d56" stroke-miterlimit="10" stroke-width="2.001"/>
      <path id="Trazado_425" data-name="Trazado 425" d="M112.42,222.42a17.111,17.111,0,0,1,8.543-14l3.831,7.578-.115-9.173a17.116,17.116,0,1,1-12.259,15.616Z" transform="translate(-62.627 -49.108)" fill="#57b793"/>
      <path id="Trazado_426" data-name="Trazado 426" d="M142.941,338.241a17.106,17.106,0,0,0,32.307-7,16.886,16.886,0,0,0-1.115-6.943,17.116,17.116,0,0,0-32.011.185l10.689,8.693-11.759-2.736A16.921,16.921,0,0,0,142.941,338.241Z" transform="translate(-62.627 -49.108)" fill="#57b793"/>
      <path id="Trazado_427" data-name="Trazado 427" d="M151.389,305.019a17.116,17.116,0,0,0,5.427-33.572l.09,7.048-3.851-7.668h-.045a17.117,17.117,0,0,0-1.6,34.2Z" transform="translate(-62.627 -49.108)" fill="#57b793"/>
      <path id="Trazado_428" data-name="Trazado 428" d="M109.844,277.374a17.116,17.116,0,1,0-7.563-32.011l3,8.288-6.2-5.987a17.036,17.036,0,0,0-5.552,11.814,16.691,16.691,0,0,0,.435,4.712,17.111,17.111,0,0,0,15.876,13.185Z" transform="translate(-62.627 -49.108)" fill="#57b793"/>
      <path id="Trazado_429" data-name="Trazado 429" d="M114.721,226.981c3.951.435,7.793,1.661,11.754,1.906s8.318-.7,10.824-3.781c1.35-1.661,2.026-3.761,3.166-5.572a12.144,12.144,0,0,1,4.312-4.056,17.116,17.116,0,1,1-32.011,11.359C113.431,226.866,114.081,226.911,114.721,226.981Z" transform="translate(-62.627 -49.108)" opacity="0.1"/>
      <path id="Trazado_430" data-name="Trazado 430" d="M109.844,277.374a17.126,17.126,0,0,0,16.281-24.409,12.659,12.659,0,0,0-3.441,3.441c-1.22,1.841-1.956,3.966-3.391,5.657-2.666,3.131-7.218,4.156-11.349,3.971s-8.118-1.365-12.229-1.741c-.57-.05-1.15-.09-1.726-.105a17.111,17.111,0,0,0,15.856,13.185Z" transform="translate(-62.627 -49.108)" opacity="0.1"/>
      <path id="Trazado_431" data-name="Trazado 431" d="M151.389,305.019a17.111,17.111,0,0,0,16.416-24.094,13.84,13.84,0,0,0-3.616,3.5c-1.33,1.876-2.161,4.036-3.716,5.767-2.886,3.216-7.738,4.352-12.114,4.246-4.237-.09-8.318-1.13-12.529-1.456a17.126,17.126,0,0,0,15.561,12.034Z" transform="translate(-62.627 -49.108)" opacity="0.1"/>
      <path id="Trazado_432" data-name="Trazado 432" d="M142.941,338.241a17.106,17.106,0,0,0,32.307-7,16.886,16.886,0,0,0-1.115-6.943,17.138,17.138,0,0,0-3.751,3.346c-1.626,2-2.7,4.232-4.582,6.082-3.5,3.431-9.148,4.852-14.175,5a73.407,73.407,0,0,1-8.683-.485Z" transform="translate(-62.627 -49.108)" opacity="0.1"/>
      <path id="Trazado_433" data-name="Trazado 433" d="M215.687,332.094l-66.024,13.5-1.5-.15L90.142,339.6V266.07l71.025-12,51.518,6,.015.325.005.16Z" fill="#6c63ff"/>
      <path id="Trazado_434" data-name="Trazado 434" d="M215.687,332.094l-66.024,13.5-1.5-.15V270.072l64.538-9.678Z" opacity="0.1"/>
      <path id="Trazado_435" data-name="Trazado 435" d="M212.706,260.553l-.02.015-64.523,9.5-58.021-4,71.025-12,51.518,6,.015.325Z" opacity="0.05"/>
      <path id="Trazado_436" data-name="Trazado 436" d="M288.213,335.095l-66.024,13.5-1.5-.15L162.668,342.6V269.071l71.025-12,51.518,6,.015.325.005.16Z" fill="#3f3d56"/>
      <path id="Trazado_437" data-name="Trazado 437" d="M288.213,335.095l-66.024,13.5-1.5-.15V273.073l64.538-9.678Z" opacity="0.1"/>
      <path id="Trazado_438" data-name="Trazado 438" d="M285.232,263.554l-.02.015-64.523,9.5-58.021-4,71.025-12,51.518,6,.015.325Z" opacity="0.05"/>
      <path id="Trazado_439" data-name="Trazado 439" d="M242.7,263.069l-66.024,13.5-1.5-.15-58.021-5.852V197.045l71.025-12,51.518,6,.015.325.005.16Z" fill="#3f3d56"/>
      <path id="Trazado_440" data-name="Trazado 440" d="M242.7,263.069l-66.024,13.5-1.5-.15V201.047l64.538-9.678Z" opacity="0.1"/>
      <path id="Trazado_441" data-name="Trazado 441" d="M239.716,191.529l-.02.015-64.523,9.5-58.021-4,71.025-12,51.518,6,.015.325Z" opacity="0.05"/>
      <path id="Trazado_442" data-name="Trazado 442" d="M280.21,266.15,245.753,273.2l-.785-.08-30.281-3.056V231.693l37.068-6.267,26.89,3.136.01.17v.08Z" fill="#3f3d56"/>
      <path id="Trazado_443" data-name="Trazado 443" d="M280.21,266.15,245.753,273.2l-.785-.08V233.784l33.687-5.052Z" opacity="0.1"/>
      <path id="Trazado_444" data-name="Trazado 444" d="M278.655,228.812l-.01.01-33.677,4.962-30.281-2.091,37.068-6.267,26.89,3.136.01.17Z" opacity="0.05"/>
      <path id="Trazado_445" data-name="Trazado 445" d="M187.677,191.624l-34.457,7.048-.785-.075-30.281-3.056V157.166l37.068-6.267,26.89,3.136.01.17v.08Z" fill="#3f3d56"/>
      <path id="Trazado_446" data-name="Trazado 446" d="M187.677,191.624l-34.457,7.048-.785-.075V159.257l33.687-5.052Z" opacity="0.1"/>
      <path id="Trazado_447" data-name="Trazado 447" d="M186.122,154.285l-.01.01-33.677,4.962-30.281-2.091,37.068-6.267,26.89,3.136.01.17Z" opacity="0.05"/>
      <path id="Trazado_448" data-name="Trazado 448" d="M248.2,190.123l-34.457,7.048-.785-.075-30.281-3.056V155.666l37.068-6.267,26.89,3.136.01.17v.08Z" fill="#6c63ff"/>
      <path id="Trazado_449" data-name="Trazado 449" d="M248.2,190.123l-34.457,7.048-.785-.075V157.756l33.687-5.052Z" opacity="0.1"/>
      <path id="Trazado_450" data-name="Trazado 450" d="M246.643,152.785l-.01.01-33.677,4.962-30.281-2.091,37.068-6.267,26.89,3.136.01.17Z" opacity="0.05"/>
      <path id="Trazado_451" data-name="Trazado 451" d="M266.205,151.609l-34.457,7.048-.785-.075-30.281-3.056V117.152l37.068-6.267,26.89,3.136.01.17v.08Z" fill="#3f3d56"/>
      <path id="Trazado_452" data-name="Trazado 452" d="M266.205,151.609l-34.457,7.048-.785-.075V119.243l33.687-5.052Z" opacity="0.1"/>
      <path id="Trazado_453" data-name="Trazado 453" d="M264.65,114.271l-.01.01-33.677,4.962-30.281-2.091,37.068-6.267,26.89,3.136.01.17Z" opacity="0.05"/>
      <path id="Trazado_454" data-name="Trazado 454" d="M352.3,122.269c-.365,3.251-2.846,5.872-3.766,9-1.38,4.727,1,9.8,4.282,13.5a29.9,29.9,0,0,0,20.818,9.874,8.958,8.958,0,0,0,3.441-.375,7.473,7.473,0,0,0,2.616-1.791A16.727,16.727,0,0,0,384,143.126a50.051,50.051,0,0,0,.12-10.459,5.917,5.917,0,0,0-.39-2.111,5.362,5.362,0,0,0-1.355-1.666,31.511,31.511,0,0,0-5.827-4.237,6.544,6.544,0,0,1-2.441-1.866,6.107,6.107,0,0,1-.755-2.236l-.645-3.281a6.433,6.433,0,0,0-.945-2.661c-1.135-1.531-3.311-1.741-5.217-1.816l-7-.275c-2.176-.085-5.037-.71-7.163-.28-2,.4-1.325,2.226-.965,3.886A28.1,28.1,0,0,1,352.3,122.269Z" transform="translate(-62.627 -49.108)" fill="#ffc0c6"/>
      <path id="Trazado_455" data-name="Trazado 455" d="M352.3,122.269c-.365,3.251-2.846,5.872-3.766,9-1.38,4.727,1,9.8,4.282,13.5a29.9,29.9,0,0,0,20.818,9.874,8.958,8.958,0,0,0,3.441-.375,7.473,7.473,0,0,0,2.616-1.791A16.727,16.727,0,0,0,384,143.126a50.051,50.051,0,0,0,.12-10.459,5.917,5.917,0,0,0-.39-2.111,5.362,5.362,0,0,0-1.355-1.666,31.511,31.511,0,0,0-5.827-4.237,6.544,6.544,0,0,1-2.441-1.866,6.107,6.107,0,0,1-.755-2.236l-.645-3.281a6.433,6.433,0,0,0-.945-2.661c-1.135-1.531-3.311-1.741-5.217-1.816l-7-.275c-2.176-.085-5.037-.71-7.163-.28-2,.4-1.325,2.226-.965,3.886A28.1,28.1,0,0,1,352.3,122.269Z" transform="translate(-62.627 -49.108)" opacity="0.1"/>
      <path id="Trazado_456" data-name="Trazado 456" d="M396.772,268.7,393.8,301.273c-.775,8.543-1.566,17.121-3.086,25.554-.5,2.906-1.14,5.8-1.871,8.663-2.031,7.958-4.977,15.736-5.927,23.894-.03.235-.055.5-.08.715a21.422,21.422,0,0,1-1,5.3c-.5,1.245-1.205,2.381-1.721,3.611a23.67,23.67,0,0,0-1.285,7.848,33.832,33.832,0,0,0-11.649-4c-2-.3-4.176-.5-5.5-2-1.5-1.631-1.325-4.126-1.075-6.317q1.18-10.2,2.351-20.4a53.16,53.16,0,0,1,1.5-8.663c.27-.945.6-1.876.925-2.806.455-1.28.915-2.561,1.26-3.876a46.68,46.68,0,0,0,.99-6.417c.805-6.842,1.776-13.67,2.626-20.507l.045-.36a209.707,209.707,0,0,0,1.966-31.216c-.04-1.546-.105-3.091-.205-4.642-.14-2.246-.345-3.436,1.5-4.842a34.991,34.991,0,0,1,7.113-3.651c1.265-.55,15.2-5.5,15.506-4.412a27.156,27.156,0,0,1,1,7.113,79.139,79.139,0,0,1-.41,8.838Z" transform="translate(-62.627 -49.108)" fill="#605d82"/>
      <path id="Trazado_457" data-name="Trazado 457" d="M390.715,326.827c-.5,2.906-1.14,5.8-1.871,8.663-2.031,7.958-4.977,15.736-5.927,23.894-.03.235-.055.5-.08.715-6.212-8.873-11.444-18.417-17.506-27.385.455-1.28.915-2.561,1.26-3.876a46.682,46.682,0,0,0,1.04-6.457c.805-6.842,1.776-13.67,2.626-20.507l.045-.36a21.24,21.24,0,0,0,1.5,4.207c4.071,8.273,13.745,12.454,18.477,20.372Q390.515,326.462,390.715,326.827Z" transform="translate(-62.627 -49.108)" opacity="0.1"/>
      <path id="Trazado_458" data-name="Trazado 458" d="M340.307,254.091a153.843,153.843,0,0,0,2.326,19.762l2.186,13.5c1.2,7.4,2.446,14.95,5.947,21.578,2.621,4.962,6.392,9.193,9.809,13.64,8.393,10.934,14.7,23.323,22.658,34.577,2.316,3.271,5.622,6.812,9.568,6.127,2.591-.445,4.472-2.606,6.5-4.267,2.4-1.961,5.292-3.4,7.183-5.857s2.261-6.542-.3-8.293a13.829,13.829,0,0,0-2.931-1.2c-3.966-1.5-6.537-5.382-8.168-9.3s-2.626-8.128-4.8-11.774c-4.732-7.918-14.41-12.1-18.482-20.377-2.281-4.632-2.5-10-2.671-15.14l-.445-13.16a9.584,9.584,0,0,1,.5-4.252c1.556-3.5,6.257-3.831,10.069-4.277a34.388,34.388,0,0,0,12.339-3.891,12.8,12.8,0,0,0,5.5-4.9,15.731,15.731,0,0,0,1.34-6.627l1.32-23.854a15.041,15.041,0,0,0-.5-6.1c-1.816-4.832-7.918-6.412-13.075-6.182-9.593.43-18.447,4.557-27.51,7.348a70.3,70.3,0,0,1-6.817,1.776c-2,.405-4.5.24-6.422.89-3.441,1.16-3.356,8.693-3.841,11.814a99.175,99.175,0,0,0-1.285,18.432Z" transform="translate(-62.627 -49.108)" fill="#605d82"/>
      <path id="Trazado_459" data-name="Trazado 459" d="M391.5,364.29a6.114,6.114,0,0,1,1.34,3.286,112.119,112.119,0,0,1,1.9,19.862,3.291,3.291,0,0,0,.355,1.8,2.3,2.3,0,0,0,.935.75c2.446,1.165,5.282-.46,7.323-2.246,3.776-3.306,6.972-7.748,7.188-12.765a29.37,29.37,0,0,1,.135-3.871,16.108,16.108,0,0,1,2.406-5.187,44.041,44.041,0,0,0,4-8.913c.37-1.17.62-2.641-.3-3.456a3.217,3.217,0,0,0-1.085-.565l-11.054-4.1c-.96-.355-3.341,5.762-3.716,6.432a5.063,5.063,0,0,1-3.7,2.941c-1.856.38-4.146-.17-5.917.775C388.309,360.629,389.8,362.585,391.5,364.29Z" transform="translate(-62.627 -49.108)" fill="#535070"/>
      <path id="Trazado_460" data-name="Trazado 460" d="M374.454,368.067a3.367,3.367,0,0,0-.84-1.065,3.767,3.767,0,0,0-1.7-.575c-2.1-.36-4.592-.6-6.047.97-1.36,1.466-1.125,3.851-2.261,5.5a17.117,17.117,0,0,0-1.16,1.5,5.633,5.633,0,0,0-.5,2.691c-.06,2.546-.12,5.1.06,7.643a10.665,10.665,0,0,0,1.836,6.037c2.141,2.681,6,3.066,9.423,3.236l2.776.145a5.5,5.5,0,0,0,2.271-.21,3.726,3.726,0,0,0,1.961-2.156c1.446-3.591-.84-7.458-2.251-11.059C376.4,376.58,376.69,371.983,374.454,368.067Z" transform="translate(-62.627 -49.108)" fill="#535070"/>
      <path id="Trazado_461" data-name="Trazado 461" d="M351.5,103.937a2.266,2.266,0,0,1,.155-1.07c.405-.715,1.465-.5,2.266-.32,3.216.81,6.607.075,9.924.265s7.048,1.846,7.713,5.1a24.114,24.114,0,0,0,6.117-6.282,7.537,7.537,0,0,0,1.6-4.6c-.18-2.381-2.176-4.161-4-5.672l-5.5-4.5a8.358,8.358,0,0,0-2.471-1.571,12.294,12.294,0,0,0-4-.225c-4,0-8.293-1.826-11.859,0a12.658,12.658,0,0,0-3.7,3.361l-4.917,5.822a3.106,3.106,0,0,0-.79,1.335,5.878,5.878,0,0,0,.355,2.126c.23,1.3-.33,2.691.1,3.941.715,2.071,3.236,2.366,4.777,3.556.57.44,1.471,1.946,2.156,1.926C350.625,107.1,351.466,104.9,351.5,103.937Z" transform="translate(-62.627 -49.108)" fill="#3f3d56"/>
      <circle id="Elipse_131" data-name="Elipse 131" cx="15.756" cy="15.756" r="15.756" transform="translate(281.461 40.489)" fill="#ffc0c6"/>
      <path id="Trazado_462" data-name="Trazado 462" d="M363.535,139.83a7.633,7.633,0,0,0-7.408-5.112,2.226,2.226,0,0,1-1.37-.175,1.9,1.9,0,0,1-.565-.7,27.874,27.874,0,0,1-2.3-5.432c-.25-.835-.6-1.821-1.441-2.036a1.933,1.933,0,0,0-1.831.8,17.5,17.5,0,0,1-1.31,1.646c-2,1.771-5.5.155-7.6,1.781-.345.265-.63.605-1,.85a4.552,4.552,0,0,1-1.155.5,110.73,110.73,0,0,0-11.944,4.667c1.4,8.423,2.831,17.006,6.112,24.884,1.561,3.751,3.326,7.428,4.577,11.294,2.771,8.568,2.891,17.736,2.926,26.745,0,6.162,0,12.454-2,18.287a17.7,17.7,0,0,0-1.125,4,4.162,4.162,0,0,0,1.41,3.741,4.757,4.757,0,0,0,2.176.765c3.456.5,6.938-.41,10.339-1.2a278.28,278.28,0,0,1,27.7-4.5l15.556-2a9.1,9.1,0,0,0,3.221-.835c2.846-1.556,3.116-5.837,1.345-8.558-.845-1.305-2.041-2.376-2.756-3.756s-.77-3.321.455-4.277c2.5-1.951,1.751-5.567,1.871-8.728q.5-13.265-.135-26.509a51.869,51.869,0,0,1-.09-5.5,48.542,48.542,0,0,1,1.716-9.183l4.727-18.607a9.7,9.7,0,0,0-5.837-3.751c-2.236-.56-4.572-.725-6.777-1.411-4.5-1.4-8.543-4.952-13.26-4.622a2.426,2.426,0,0,0-1.03.25c-1.06.605-.9,2.136-.96,3.356-.15,2.706-2.141,4.962-4.332,6.547s-4.7,2.736-6.717,4.542a3,3,0,0,0-1.19,2.241Z" transform="translate(-62.627 -49.108)" fill="#3f3d56"/>
      <path id="Trazado_463" data-name="Trazado 463" d="M301.108,157.481a18.506,18.506,0,0,1-3.311,1.706,11.006,11.006,0,0,0-3.176,1.541,5.027,5.027,0,0,0-1.105,1.365,6.067,6.067,0,0,0,5.592,9.038,12.192,12.192,0,0,0,4.137-1.235l11.114-4.837c1.881-.815,3.911-1.766,4.8-3.616a.87.87,0,0,0,.11-.575.945.945,0,0,0-.46-.5,24.894,24.894,0,0,1-6.467-6.1c-.455-.62-1-2.081-1.661-2.456C308.33,150.5,302.993,156.261,301.108,157.481Z" transform="translate(-62.627 -49.108)" fill="#ffc0c6"/>
      <path id="Trazado_464" data-name="Trazado 464" d="M419.91,153.555l4.1,4.682c.88,1,1.761,2,2.561,3.081a35.848,35.848,0,0,1,4.692,8.838,15.453,15.453,0,0,1,1.32,7.308,18,18,0,0,1-1.025,3.716,45.957,45.957,0,0,1-2.786,6.7,38.145,38.145,0,0,1-3.116,4.687,109.583,109.583,0,0,1-10.389,11.879c-1.4,1.385-2,3.631-2.6,5.5-1.125,3.456-3.8,6.152-6.387,8.7a17.6,17.6,0,0,1-2.746,2.361,8.9,8.9,0,0,1-5,1.42,5.5,5.5,0,0,1-2.246-.465c-1.771-.84-2.671-2.886-2.856-4.837a10.354,10.354,0,0,1,.86-5.182c2.351-5.207,8.388-7.463,12.655-11.264a41.3,41.3,0,0,0,6.307-7.793,27.036,27.036,0,0,0,3.186-5.587c.95-2.546.58-5.557,1.415-8.138.35-1.1,1-2.081,1.355-3.166a3.75,3.75,0,0,0-.19-3.306,4.776,4.776,0,0,0-1.856-1.36c-2.726-1.38-5.777-3.161-6.3-6.177a6.612,6.612,0,0,1,1.22-4.717,19.509,19.509,0,0,1,3.436-3.6C416.709,155.771,418.715,154.585,419.91,153.555Z" transform="translate(-62.627 -49.108)" fill="#ffc0c6"/>
      <path id="Trazado_465" data-name="Trazado 465" d="M298.477,164.014a7.58,7.58,0,0,0-3.086-3.676,5.682,5.682,0,0,0-4.5,0,17.066,17.066,0,0,0-3.941,2.381l-3.531,2.606a8.688,8.688,0,0,0-2.1,1.936,8.058,8.058,0,0,0-1.09,3,21.8,21.8,0,0,0-.555,7.408c.56,4,2.961,7.463,5.6,10.5,1.651,1.891,3.691,3.8,6.2,3.886a2.846,2.846,0,0,0,2.741-1.38,3.417,3.417,0,0,0,.245-1.23c.27-4.442-1.32-8.778-3.171-12.825a7.934,7.934,0,0,1-1-3.446.93.93,0,0,1,.15-.58.97.97,0,0,1,.6-.3c2.536-.5,6.907,1.471,8.683-1.345C300.878,169.1,299.3,165.669,298.477,164.014Z" transform="translate(-62.627 -49.108)" fill="#ffc0c6"/>
      <path id="Trazado_466" data-name="Trazado 466" d="M350.67,98.98a2.331,2.331,0,0,1,.16-1.07c.405-.72,1.466-.5,2.266-.32,3.216.81,6.607.075,9.924.265s7.043,1.846,7.713,5.1a24.273,24.273,0,0,0,6.117-6.282,7.562,7.562,0,0,0,1.6-4.607c-.18-2.381-2.181-4.161-4-5.667l-5.5-4.5a8.333,8.333,0,0,0-2.466-1.571,12.3,12.3,0,0,0-4-.225c-4,0-8.293-1.826-11.859,0a12.658,12.658,0,0,0-3.7,3.361L342,89.282a3.116,3.116,0,0,0-.785,1.335,5.878,5.878,0,0,0,.355,2.126c.23,1.3-.33,2.691.1,3.936.715,2.076,3.236,2.371,4.777,3.561.57.44,1.471,1.946,2.156,1.926C349.785,102.142,350.625,99.941,350.67,98.98Z" transform="translate(-62.627 -49.108)" fill="#3f3d56"/>
      <path id="Trazado_467" data-name="Trazado 467" d="M317.208,142.156a6.532,6.532,0,0,0-1.651,1.536c-.575.875-.7,2-1.19,2.9-1.06,1.971-3.546,2.676-5.092,4.292a1.6,1.6,0,0,0-.5.84,1.855,1.855,0,0,0,.415,1.21l7.473,11.744c2.5.22,4.872-1.34,7.363-1.13a7.427,7.427,0,0,0,2.771.12,8.053,8.053,0,0,0,1.776-1.085c1.5-.94,3.461-1.05,4.707-2.286s1.35-3.051,1.335-4.737a18.693,18.693,0,0,0-.445-4.352c-1.1-4.5-4.547-7.973-6.707-11.964-1.055-1.946-1.626-3.081-3.851-1.746S319.314,140.615,317.208,142.156Z" transform="translate(-62.627 -49.108)" fill="#3f3d56"/>
      <path id="Trazado_468" data-name="Trazado 468" d="M407.946,136.219a17.54,17.54,0,0,1,3.761,3.291c1.135,1.466,1.781,3.266,2.876,4.767a52.068,52.068,0,0,0,3.7,3.921,29.892,29.892,0,0,1,4.272,6.957,104.344,104.344,0,0,1-9.663,10.9,3.1,3.1,0,0,1-1.471.96,2.356,2.356,0,0,1-2.071-.845c-.54-.56-.92-1.26-1.435-1.846a7.378,7.378,0,0,0-4.567-2.206,31.369,31.369,0,0,0-5.177-.075,2,2,0,0,1-1.105-.185,1.826,1.826,0,0,1-.6-.69c-2-3.441-1.375-7.763-.66-11.694l1.636-9a20.23,20.23,0,0,1,1.366-5c.62-1.325,2-3.576,3.711-3.176S406.5,135.178,407.946,136.219Z" transform="translate(-62.627 -49.108)" fill="#3f3d56"/>
      <path id="Trazado_469" data-name="Trazado 469" d="M202.682,153.11l-34.457,7.048-.785-.075-30.281-3.056V118.652l37.068-6.267,26.89,3.136.01.17v.08Z" fill="#6c63ff"/>
      <path id="Trazado_470" data-name="Trazado 470" d="M202.682,153.11l-34.457,7.048-.785-.075V120.743l33.687-5.052Z" opacity="0.1"/>
      <path id="Trazado_471" data-name="Trazado 471" d="M201.127,115.771l-.01.01-33.677,4.962-30.281-2.091,37.068-6.267,26.89,3.136.01.17Z" opacity="0.05"/>
      <path id="Trazado_472" data-name="Trazado 472" d="M220.689,115.1l-34.457,7.053-.785-.08-30.281-3.056V80.639l37.068-6.267,26.89,3.136.01.17v.08Z" fill="#3f3d56"/>
      <path id="Trazado_473" data-name="Trazado 473" d="M220.689,115.1l-34.457,7.053-.785-.08V82.73l33.687-5.052Z" opacity="0.1"/>
      <path id="Trazado_474" data-name="Trazado 474" d="M219.133,77.758l-.01.01L185.446,82.73l-30.281-2.091,37.068-6.267,26.89,3.136.01.17Z" opacity="0.05"/>
    </g>
  </g>
</svg>
