<svg xmlns="http://www.w3.org/2000/svg" xmlns:xlink="http://www.w3.org/1999/xlink" width="633" height="476" viewBox="0 0 633 476">
  <defs>
    <clipPath id="clip-path">
      <rect id="Rect치ngulo_113" data-name="Rect치ngulo 113" width="633" height="476" transform="translate(416 358)" fill="#fff" stroke="#707070" stroke-width="1"/>
    </clipPath>
    <linearGradient id="linear-gradient" x1="0.5" y1="1" x2="0.5" gradientUnits="objectBoundingBox">
      <stop offset="0" stop-color="gray" stop-opacity="0.251"/>
      <stop offset="0.54" stop-color="gray" stop-opacity="0.122"/>
      <stop offset="1" stop-color="gray" stop-opacity="0.102"/>
    </linearGradient>
  </defs>
  <g id="Enmascarar_grupo_17" data-name="Enmascarar grupo 17" transform="translate(-416 -358)" clip-path="url(#clip-path)">
    <g id="undraw_wallet_aym5" transform="translate(416 391.372)">
      <rect id="Rect치ngulo_114" data-name="Rect치ngulo 114" width="633" height="4.626" transform="translate(0 404.631)" fill="#85848b"/>
      <path id="Trazado_249" data-name="Trazado 249" d="M552.438,394.257c0,3.558-20.741,13.932-45.377,13.932s-43.833-10.373-43.833-13.932,19.969-2.412,44.629-2.412S552.438,390.693,552.438,394.257Z" transform="translate(-50.938 -71.304)" fill="#504f60"/>
      <path id="Trazado_250" data-name="Trazado 250" d="M552.438,394.257c0,3.558-20.741,13.932-45.377,13.932s-43.833-10.373-43.833-13.932" transform="translate(-50.938 -71.304)" opacity="0.2"/>
      <path id="Trazado_251" data-name="Trazado 251" d="M304.329,328.966c4,.513,8.148.838,11.978-.4.6-.187,1.266-.6,1.206-1.206a1.46,1.46,0,0,0-.271-.6,37.254,37.254,0,0,1-3.619-6.893.6.6,0,0,0-.223-.314.567.567,0,0,0-.386,0c-1.767.464-3.293,1.6-5.048,2.093a7.177,7.177,0,0,1-2.75.205c-.8-.09-1.882-.748-2.605-.663C303.021,323.816,304.022,326.276,304.329,328.966Z" transform="translate(-50.938 -71.304)" fill="#6c63ff"/>
      <path id="Trazado_252" data-name="Trazado 252" d="M379.952,322.29c2.636-1.809,5.368-3.709,6.924-6.5a1.128,1.128,0,0,0,.187-.561,1.158,1.158,0,0,0-.223-.543,22.411,22.411,0,0,0-5.627-6.073,16.411,16.411,0,0,0-3.136,2.895c-.663.7-2.5,1.809-2.515,2.877,0,.6.7,1.3,1.025,1.809.44.651.856,1.315,1.254,1.99C378.07,318.514,380.163,322.157,379.952,322.29Z" transform="translate(-50.938 -71.304)" fill="#6c63ff"/>
      <path id="Trazado_253" data-name="Trazado 253" d="M320,337.042a2.684,2.684,0,0,1-.482,1.749,2.37,2.37,0,0,1-1.013.6c-5.591,2-12.062-.495-17.641,1.478-1.146.4-2.231.989-3.383,1.375a18.411,18.411,0,0,1-4.222.748c-1.972.187-3.956.308-5.934.362a14.27,14.27,0,0,1-4.475-.392,5.374,5.374,0,0,1-3.432-2.72,2.611,2.611,0,0,1-.169-1.936,2.087,2.087,0,0,1,.368-.6,5.29,5.29,0,0,1,1.315-1.068l2.057-1.327a13.807,13.807,0,0,1,3.118-1.652c.814-.265,1.677-.38,2.5-.6,2.889-.844,5.1-3.136,7.147-5.337l2.8-2.985a2.816,2.816,0,0,1,.971-.778,2.69,2.69,0,0,1,1.206-.115,16.127,16.127,0,0,1,7.629,2.557,9.884,9.884,0,0,0,1.882,1.11,6.718,6.718,0,0,0,5.259-.651c.718-.386.561-.6.862-1.291s1.037-1.128,1.677-.5a1.773,1.773,0,0,1,.4.76c.6,1.99.374,4.131.374,6.218a2.739,2.739,0,0,0,.121.965,5.461,5.461,0,0,0,.549.893,2.032,2.032,0,0,1,.115.229,6.133,6.133,0,0,1,.4,2.913Z" transform="translate(-50.938 -71.304)" fill="#514e7f"/>
      <path id="Trazado_254" data-name="Trazado 254" d="M320,337.042a2.684,2.684,0,0,1-.482,1.749,2.37,2.37,0,0,1-1.013.6c-5.591,2-12.062-.495-17.641,1.478-1.146.4-2.231.989-3.383,1.375a18.411,18.411,0,0,1-4.222.748c-1.972.187-3.956.308-5.934.362a14.27,14.27,0,0,1-4.475-.392,5.374,5.374,0,0,1-3.432-2.72,2.611,2.611,0,0,1-.169-1.936,2.087,2.087,0,0,1,.368-.6c.326.681.561,1.586.766,1.912A3.914,3.914,0,0,0,283,341.5a6.5,6.5,0,0,0,2.412-.308c5.066-1.254,10.452-1.272,15.319-3.172a35.427,35.427,0,0,1,5.018-1.93,39.456,39.456,0,0,1,5.428-.44c2.859-.229,5.627-1.092,8.443-1.544a6.133,6.133,0,0,1,.38,2.931Z" transform="translate(-50.938 -71.304)" fill="#464353"/>
      <path id="Trazado_255" data-name="Trazado 255" d="M392.756,321.922a10.166,10.166,0,0,1-3.088,5.5,35.967,35.967,0,0,0-4.324,4.728c-1.447,2.213-2.1,4.957-3.98,6.827a10.916,10.916,0,0,1-2.412,1.719,16.832,16.832,0,0,1-3.106,1.429c-2.81.9-5.838.694-8.775.476a7.893,7.893,0,0,1-2.786-.537,8.394,8.394,0,0,1-1.158-.712,5.531,5.531,0,0,1-1.809-1.809,1.809,1.809,0,0,1-.175-1.315,3.088,3.088,0,0,1,.838-1.279,19.9,19.9,0,0,1,2.123-1.912,12.708,12.708,0,0,0,2.762-2.412,7.791,7.791,0,0,0,1.067-2.412,21.4,21.4,0,0,0,.778-4.614,14.622,14.622,0,0,1,.32-3.088c.446-1.592,1.628-3.015,1.5-4.662a1.164,1.164,0,0,1,.06-.706.983.983,0,0,1,.555-.344,9.831,9.831,0,0,1,2.883-.669,3.36,3.36,0,0,1,2.678,1.049c.41.495.681,1.206,1.285,1.4a2.038,2.038,0,0,0,.917.036,7.681,7.681,0,0,0,4.222-1.3,5.265,5.265,0,0,0,1.749-3.842c0-.549-.247-1.122.6-1.206.639-.084,1.146.6,1.472,1.025a14.288,14.288,0,0,1,2.822,5.138,1.515,1.515,0,0,1,.537-.1,2.334,2.334,0,0,1,1.924.983,3.83,3.83,0,0,1,.525,2.605Z" transform="translate(-50.938 -71.304)" fill="#514e7f"/>
      <path id="Trazado_256" data-name="Trazado 256" d="M392.756,321.922a10.166,10.166,0,0,1-3.088,5.5,35.967,35.967,0,0,0-4.324,4.728c-1.447,2.213-2.1,4.957-3.98,6.827a10.916,10.916,0,0,1-2.412,1.719,16.832,16.832,0,0,1-3.106,1.429c-2.81.9-5.838.694-8.775.476a7.893,7.893,0,0,1-2.786-.537,8.394,8.394,0,0,1-1.158-.712,5.531,5.531,0,0,1-1.809-1.809,4.409,4.409,0,0,1,1.809-.434c1.3.072,2.256,1.3,3.5,1.683,1.779.537,3.552-.718,5.356-1.146,1.176-.277,2.412-.205,3.576-.6a8.841,8.841,0,0,0,2.648-1.6,13.478,13.478,0,0,0,2.829-2.726A17.52,17.52,0,0,0,382.7,331.4a47.342,47.342,0,0,1,3.353-6.417,4.535,4.535,0,0,1,.682-.893,9.5,9.5,0,0,1,.923-.669,7.009,7.009,0,0,0,2.129-3.884,6.8,6.8,0,0,1,.476-1.3,2.334,2.334,0,0,1,1.924.983A3.83,3.83,0,0,1,392.756,321.922Z" transform="translate(-50.938 -71.304)" fill="#464353"/>
      <path id="Trazado_257" data-name="Trazado 257" d="M266.292,133.888a12.792,12.792,0,0,1,3.619,4.222c.844,1.652,5.711,14.474,5.428,16.338,1.586-1.6,7.84-1.858,9.445-3.456.669-.669,4.282-4.011,4.825-4.789s4.571-2.412,5.012-3.233c1.646-2.949-11.676-14.125-9.969-17.038a.76.76,0,0,0,.139-.458.748.748,0,0,0-.223-.356,19.978,19.978,0,0,0-3.854-2.636,6.112,6.112,0,0,1-2.937-3.5,12.665,12.665,0,0,0-3.407,2.3q-3.667,3.142-7.207,6.411c-.923.856-2.708,2-3.136,3.221C263.518,132.235,265.412,133.17,266.292,133.888Z" transform="translate(-50.938 -71.304)" fill="#a1616a"/>
      <path id="Trazado_258" data-name="Trazado 258" d="M287.859,129.141a39.252,39.252,0,0,0-5.705,4.668c-1.652,1.634-3.221,3.528-3.619,5.814-.169.9-.145,1.809-.283,2.72-.6,3.95-4.017,6.845-5.524,10.542a18.28,18.28,0,0,0-.959,3.528,41.7,41.7,0,0,0-.694,6.924c-.036,2.25,2.171,3.8,2.979,5.9a36.016,36.016,0,0,1,1.435,6.411,75.958,75.958,0,0,0,3.619,11.881c2.973,8.214,12.611,30.921,15.584,39.141,9.113-2.286,33.369-7.539,41.439-12.357,2.69-1.6-18.666-19.7-15.789-20.952a1.074,1.074,0,0,0,.808-1.514c-2.877-12.581-11.875-22.918-15.958-35.167-1.417-4.252-3.962-7.883-5.892-11.923-1.749-3.661-2.684-7.708-4.777-11.187a7.056,7.056,0,0,0-1.526-1.9,9,9,0,0,0-1.683-1.019C290.12,130.07,289.011,129.726,287.859,129.141Z" transform="translate(-50.938 -71.304)" fill="#514e7f"/>
      <circle id="Elipse_111" data-name="Elipse 111" cx="14.263" cy="14.263" r="14.263" transform="translate(201.574 32.628)" fill="#a1616a"/>
      <path id="Trazado_259" data-name="Trazado 259" d="M281.285,124.9a4.783,4.783,0,0,1,5.362-.772,2.591,2.591,0,0,1,1.592,2.575l7.074.109a14.2,14.2,0,0,1,3.353.308,4.873,4.873,0,0,1,2.8,1.755c.084.115.181.253.326.271a.519.519,0,0,0,.326-.109,6.14,6.14,0,0,1,3.522-.6c3.824.247,7.358,2.159,10.355,4.547a3.347,3.347,0,0,1,1.206,1.5c.247.8-.048,1.809.6,2.382,0,6.634,2.28,12.834,3.8,19.3.271,1.152,1.375,2.171,2.141,3.076a12.407,12.407,0,0,1,2.286,3.414c1.291,3.353-.488,7.3.766,10.663a18.271,18.271,0,0,0,2.412,3.83,9.9,9.9,0,0,1,2.063,4.945c.054.808-.048,1.622,0,2.412a14.607,14.607,0,0,0,.6,3.2q.772,2.919,1.616,5.832c.917,3.136,2.111,6.52,4.921,8.19-6.785,1.152-13.938,2.28-20.4-.078a10.578,10.578,0,0,1-2.545-1.273c-2.334-1.665-3.462-4.511-4.469-7.2a34,34,0,0,1-2.491-9.294,10.668,10.668,0,0,0-.428-3.015c-.657-1.749-2.412-2.8-4-3.775a19.227,19.227,0,0,1-4.825-3.751,7.5,7.5,0,0,1-1.954-5.633c.121-1,.513-1.954.549-2.955a2.315,2.315,0,0,0-1.369-2.412c-4.939-1.5-7.3-7.346-8.4-12.388a39.77,39.77,0,0,1-.633-7.9l-.066-5.144a6.791,6.791,0,0,1-2.219-4.879,5.8,5.8,0,0,0-.03-1.616,4.457,4.457,0,0,0-1.134-1.719,15.344,15.344,0,0,1-2.708-3.793Z" transform="translate(-50.938 -71.304)" fill="#464353"/>
      <path id="Trazado_260" data-name="Trazado 260" d="M266.093,141.2c-.163,1.592.2,3.227-.157,4.789-.139.6-.38,1.206-.555,1.767a10.373,10.373,0,0,0,.657,6.712,37.39,37.39,0,0,0,3.432,5.941,9.649,9.649,0,0,1,1.1,2.057,10.646,10.646,0,0,1,.422,2.346,72.874,72.874,0,0,0,1.677,9.481c.675,2.7,8.347,25.8,10.132,27.942a2.273,2.273,0,0,0,1.375.935,2.5,2.5,0,0,0,1.17-.241l3.619-1.387a2.364,2.364,0,0,0,.838-.458,2.159,2.159,0,0,0,.519-1.423c.259-2.943-7.43-26.2-8.407-28.985-2.955-8.4-6.887-16.489-8.811-25.179-.537-2.412-.82-6.127-2.587-8.051-.73-.8-.482-.458-1.357-.042a9.9,9.9,0,0,0-1.279.669,4.186,4.186,0,0,0-1.785,3.13Z" transform="translate(-50.938 -71.304)" fill="#464353"/>
      <path id="Trazado_261" data-name="Trazado 261" d="M335.7,193.468" transform="translate(-50.938 -71.304)" fill="#464353"/>
      <path id="Trazado_262" data-name="Trazado 262" d="M277.075,157.131c.971,5.132,1.972,10.253,2.967,15.385l14.161-3.709c.115-1.484-.675-2.859-1.206-4.222-1.291-3.239-1.321-6.845-2.364-10.174-.79-2.533-2.165-4.861-2.907-7.412-.428-1.484-.645-3.015-1.067-4.517a32.809,32.809,0,0,0-1.665-4.312,27,27,0,0,0-3.088-5.723c-1.809.675-3.739,1.46-4.771,3.094a6.682,6.682,0,0,0-.881,3.015c-.247,3.178.9,6.375.525,9.535a28.043,28.043,0,0,0,.3,9.04Z" transform="translate(-50.938 -71.304)" fill="#6c63ff"/>
      <path id="Trazado_263" data-name="Trazado 263" d="M294.439,225.4c.8,3.015-.356,6.188-1.3,9.173a71.1,71.1,0,0,0-2.883,13.811,11.952,11.952,0,0,1-.712,3.492c-.446,1.007-1.206,1.858-1.725,2.816-1.423,2.521-1.387,5.6-1.08,8.48.205,1.9.513,3.793.893,5.663.464,2.286,1.037,4.674.368,6.905,1.122-.247,1.882,1.206,1.809,2.346s-.44,2.412.109,3.4c1.387.507,1.4,2.412,1.357,3.89a32.718,32.718,0,0,0,.965,7.6q3.148,15.138,6.682,30.191c5.1,1.58,11.049,3.227,15.91,1.037a3.191,3.191,0,0,0,2.014-2.026,3.535,3.535,0,0,0-.193-1.556l-2.3-8.383a15.392,15.392,0,0,1-.826-6.2c.223-1.55.9-3.221.139-4.59-.259-.47-.669-.838-.971-1.285-1.206-1.767-.573-4.131-.476-6.272a4.971,4.971,0,0,0-.1-1.435,7.165,7.165,0,0,0-.688-1.574A24.076,24.076,0,0,1,308.78,278.9a2.961,2.961,0,0,0-.211-1.562,5.053,5.053,0,0,1-.392-.639,1.749,1.749,0,0,1,.127-1.152,10.555,10.555,0,0,1-1.858-1.809,2.6,2.6,0,0,0,.446-4.065,1.357,1.357,0,0,0,.645-2.334c-.3-.205-.688-.3-.9-.6-.326-.446-.06-1.067.205-1.544l1.405-2.539c1.049-1.888,1.285-4.222,2.412-6.031a45.2,45.2,0,0,0,3.715-8.48l4.059-11.2,2.732,2.37a8.636,8.636,0,0,1,2.243,2.557,11.036,11.036,0,0,1,.73,3.064c1,6.079,4.825,11.35,6.242,17.339a11.42,11.42,0,0,0,1.291,3.872,8.444,8.444,0,0,1,.736,1.11,5.886,5.886,0,0,1,.308,1.839,8.582,8.582,0,0,0,3.619,6.152c1.345.923,3.016,1.556,3.745,3.016a5.621,5.621,0,0,0,.6,1.285c.651.784,2.057.875,2.334,1.858.157.549-.133,1.206.175,1.689a1.6,1.6,0,0,0,.669.5l3.926,1.96c4.391,2.2,6.634,7.237,9.873,10.91a23.522,23.522,0,0,1,2.955,3.908c1.4,2.5,2.044,5.645,4.409,7.237a6.67,6.67,0,0,1,1.713,1.273c.742.977.47,2.346.537,3.576s1.007,2.7,2.177,2.322a8.582,8.582,0,0,0,0,4.553,22.918,22.918,0,0,0,13.907-5.633c1.146-1,2.25-2.28,2.262-3.8a1.363,1.363,0,0,0-.169-.754,2.153,2.153,0,0,0-.887-.669c-3.673-1.99-4.777-6.6-6.634-10.349-1.622-3.3-4.023-6.152-6.031-9.221-4.366-6.6-7.346-14.6-13.95-18.955-1.453-.959-3.142-1.809-3.872-3.4-.4-.887-.452-1.9-.772-2.816a2.444,2.444,0,0,0-2.063-1.809,12.64,12.64,0,0,0,.47-4.379,5.53,5.53,0,0,0-.217-1.888,9.182,9.182,0,0,0-.971-1.87,17.937,17.937,0,0,1-2.485-9.65c.048-1.743.356-3.54-.169-5.2-.265-.838-.73-1.6-1.049-2.412a15.078,15.078,0,0,1-.754-4.535l-.362-5.8a28.518,28.518,0,0,0-.748-5.729c-1.206-4.5-2.412-23.346-6.544-25.469s-11.23,12.382-15.88,12.665a20.679,20.679,0,0,0-6.031,1.164c-3.094,1.158-5.687,3.317-8.214,5.428l-8.552,7.183A31.511,31.511,0,0,1,294.439,225.4Z" transform="translate(-50.938 -71.304)" fill="#464353"/>
      <path id="Trazado_264" data-name="Trazado 264" d="M253.392,102.358a10.751,10.751,0,0,1,8.3-4.047,19.328,19.328,0,0,1,9.173,2.3,11.332,11.332,0,0,0,2.678,1.1c1.508.308,3.184-.1,4.547.6,1.809.959,2.159,3.4,2,5.428s-.537,4.276.543,6.031a13.94,13.94,0,0,1,1.043,1.574,5.205,5.205,0,0,1-.084,3.353,21.734,21.734,0,0,1-1.731-2.213,2.039,2.039,0,0,0-2.5-.645c-.778.525-.766,1.478-.808,2.334s-.259,1.882-1.067,2.159a1.731,1.731,0,0,1-1.809-.706c-1.381-1.689-.826-4.385-2.2-6.085-.778-.965-2.075-1.435-2.792-2.449-.567-.8-.712-1.809-1.206-2.666s-1.646-1.484-2.412-.893a3.262,3.262,0,0,0-.645.862,3.709,3.709,0,0,1-4.4,1.327,7.364,7.364,0,0,0-1.906-.826,2.358,2.358,0,0,0-2.177,1.206,4.71,4.71,0,0,0-.6,2.521c0,1.206.217,2.491-.47,3.456a3.576,3.576,0,0,1-.965.917c-1.007.645-2.412,1.08-3.341.344a2.509,2.509,0,0,1-.748-2.34,18.919,18.919,0,0,1,.712-2.473c.531-1.87-.163-3.974.416-5.735A18.31,18.31,0,0,1,253.392,102.358Z" transform="translate(-50.938 -71.304)" fill="#464353"/>
      <path id="Trazado_265" data-name="Trazado 265" d="M261.033,144.906a2.2,2.2,0,0,0,.133,1.309,2.081,2.081,0,0,0,.712.682,14.631,14.631,0,0,0,6.719,2.177,2.045,2.045,0,0,1,.929.241,1.633,1.633,0,0,1,.392,1.87,4.867,4.867,0,0,0-.428,1.99c.175,1.26,1.671,1.809,2.931,2a6.818,6.818,0,0,0,5.1-1,7.883,7.883,0,0,0,2.1-3.154c3.462-7.955,4.674-16.748,8.178-24.679a5.235,5.235,0,0,0,.525-1.653,1.628,1.628,0,0,0-.651-1.52c-.651-.4-1.665-.175-2.1-.808-.217-.32-.193-.754-.386-1.092-.4-.718-1.466-.6-2.189-1.019-.567-.3-.959-.923-1.592-1.043a2,2,0,0,0-1.646.712c-2.057,1.918-3.136,4.638-4.282,7.207a84.487,84.487,0,0,1-6.127,11.362c.271-.422-1.3-3.619-1.918-3.757-1.08-.217-2.461,1.677-3.046,2.382a15.174,15.174,0,0,0-3.353,7.792Z" transform="translate(-50.938 -71.304)" fill="#6c63ff"/>
      <path id="Trazado_266" data-name="Trazado 266" d="M282.944,120.813a2.889,2.889,0,0,0-2.237,1.122,6.381,6.381,0,0,0-.935,3.015,26.2,26.2,0,0,1-3.552,9.541" transform="translate(-50.938 -71.304)" opacity="0.1"/>
      <path id="Trazado_267" data-name="Trazado 267" d="M286.019,123.219a3.444,3.444,0,0,0-2.925,1.755,9.86,9.86,0,0,0-.736,2.979,16.35,16.35,0,0,1-2.925,6.266" transform="translate(-50.938 -71.304)" opacity="0.1"/>
      <path id="Trazado_268" data-name="Trazado 268" d="M429.352,241.125v-7.49a20.8,20.8,0,0,0-20.795-20.789H112.743a20.8,20.8,0,0,0-20.795,20.789v13.811Z" transform="translate(-50.938 -71.304)" fill="#33323d"/>
      <path id="Trazado_269" data-name="Trazado 269" d="M195.036,204.064s-.844,52.385,8.443,69.622,13.268,92.22,13.268,92.22,97.364,10.072,165.213-12.062,212.218-31.186,212.218-31.186L569.85,158.681s-120.191-7.708-188.565,24.9S195.036,204.064,195.036,204.064Z" transform="translate(-50.938 -71.304)" fill="#8dd070"/>
      <path id="Trazado_270" data-name="Trazado 270" d="M195.036,204.064s-.844,52.385,8.443,69.622,13.268,92.22,13.268,92.22,97.364,10.072,165.213-12.062,212.218-31.186,212.218-31.186L569.85,158.681s-120.191-7.708-188.565,24.9S195.036,204.064,195.036,204.064Z" transform="translate(-50.938 -71.304)" opacity="0.1"/>
      <path id="Trazado_271" data-name="Trazado 271" d="M216.585,223.2s-3.046,43.224,4.6,57.035,8,75.466,8,75.466,87.624,4.065,149.954-17.152,193.311-34.98,193.311-34.98l-14.885-134.1s-108.377-1.116-171.63,28.75S216.585,223.2,216.585,223.2Z" transform="translate(-50.938 -71.304)" fill="#8dd070"/>
      <ellipse id="Elipse_112" data-name="Elipse 112" cx="22.749" cy="48.791" rx="22.749" ry="48.791" transform="matrix(0.992, -0.124, 0.124, 0.992, 299.392, 148.671)" opacity="0.1"/>
      <path id="Trazado_272" data-name="Trazado 272" d="M503.955,78.8S387.189,108.353,332.126,160.37s-170.978,76.648-170.978,76.648,15.27,50.111,29.4,63.669,40.914,83.71,40.914,83.71,95.754-20.3,153.531-62.2,192.431-94.825,192.431-94.825Z" transform="translate(-50.938 -71.304)" opacity="0.2"/>
      <path id="Trazado_273" data-name="Trazado 273" d="M159.393,229.515s15.264,50.117,29.377,63.675,40.914,83.7,40.914,83.7S325.45,356.6,383.233,314.7,575.657,219.89,575.657,219.89L502.194,71.3s-116.76,29.552-171.823,81.569S159.393,229.515,159.393,229.515Z" transform="translate(-50.938 -71.304)" fill="#8dd070"/>
      <path id="Trazado_274" data-name="Trazado 274" d="M159.393,229.515s15.264,50.117,29.377,63.675,40.914,83.7,40.914,83.7S325.45,356.6,383.233,314.7,575.657,219.89,575.657,219.89L502.194,71.3s-116.76,29.552-171.823,81.569S159.393,229.515,159.393,229.515Z" transform="translate(-50.938 -71.304)" opacity="0.1"/>
      <path id="Trazado_275" data-name="Trazado 275" d="M185.754,241.119s10.367,42.078,21.88,52.874,30.758,69.356,30.758,69.356S323.032,340.322,375.845,301s173.264-92.557,173.264-92.557L493.8,85.338s-103.486,32.187-154.526,80.025S185.754,241.119,185.754,241.119Z" transform="translate(-50.938 -71.304)" fill="#8dd070"/>
      <ellipse id="Elipse_113" data-name="Elipse 113" cx="22.749" cy="48.791" rx="22.749" ry="48.791" transform="matrix(0.907, -0.422, 0.422, 0.907, 261.139, 125.702)" opacity="0.1"/>
      <path id="Trazado_276" data-name="Trazado 276" d="M437.337,248.477V456.545a17.99,17.99,0,0,1-18,17.99H109.951a17.99,17.99,0,0,1-17.984-17.99V227.5c8.866,3.293,8.866,3.293,17.984,3.015H419.34a18,18,0,0,1,18,17.96Z" transform="translate(-50.938 -71.304)" opacity="0.1"/>
      <path id="Trazado_277" data-name="Trazado 277" d="M437.337,251.124V459.193a18,18,0,0,1-18,17.99H109.951a17.99,17.99,0,0,1-17.984-17.99V230.142c8.866,3.287,8.866,3.287,17.984,3.015H419.34a18,18,0,0,1,18,17.966Z" transform="translate(-50.938 -71.304)" fill="#504f60"/>
      <path id="Trazado_278" data-name="Trazado 278" d="M436.456,328.049v66.54H371.925a33.271,33.271,0,1,1,0-66.543Z" transform="translate(-50.938 -71.304)" opacity="0.1"/>
      <path id="Trazado_279" data-name="Trazado 279" d="M437.337,326.276v66.552H372.805a33.271,33.271,0,1,1,0-66.543Z" transform="translate(-50.938 -71.304)" fill="#33323d"/>
      <circle id="Elipse_114" data-name="Elipse 114" cx="12.973" cy="12.973" r="12.973" transform="translate(311.989 277.045)" opacity="0.1"/>
      <circle id="Elipse_115" data-name="Elipse 115" cx="12.973" cy="12.973" r="12.973" transform="translate(312.869 275.284)" fill="#6c63ff"/>
      <path id="Trazado_280" data-name="Trazado 280" d="M549.35,325.7c.513,5.555-3.691,10.946-2.467,16.386.265,1.164.766,2.262.947,3.438.507,3.233-1.417,6.29-3.257,8.992l-15.8,23.183a14.394,14.394,0,0,1-2.256,2.786c-3.016,2.69-7.551,2.412-11.519,3.215a19.685,19.685,0,0,0-7.72,3.414.5.5,0,0,0-.072.676,6.634,6.634,0,0,0,5.742,2.7c.416.549,0,1.351-.6,1.743-.85.6-2.014.748-2.183,2.183a2.37,2.37,0,0,0,.289,1.447,4.493,4.493,0,0,0,2.762,1.924c5.47,1.671,11.38-1.266,15.476-5.265s7.032-9.046,11.049-13.117c2.225-2.25,4.752-4.179,7.044-6.363,4.571-4.354,8.124-9.65,11.555-14.951a16.683,16.683,0,0,0,2.5-5.09c.434-1.852.229-3.721.718-5.512.639-2.352,2.358-4.222,3.787-6.194,2.8-3.86,4.674-8.582,4.306-13.335s-3.317-9.451-7.8-11.067a6.936,6.936,0,0,0-4.372-.265c-1.839.567-3.2,2.087-4.451,3.54l-3.015,3.468a8.129,8.129,0,0,0-1.749,2.654,2.78,2.78,0,0,0,.6,2.949" transform="translate(-50.938 -71.304)" fill="#fbbebe"/>
      <path id="Trazado_281" data-name="Trazado 281" d="M549.35,325.7c.513,5.555-3.691,10.946-2.467,16.386.265,1.164.766,2.262.947,3.438.507,3.233-1.417,6.29-3.257,8.992l-15.8,23.183a14.394,14.394,0,0,1-2.256,2.786c-3.016,2.69-7.551,2.412-11.519,3.215a19.685,19.685,0,0,0-7.72,3.414.5.5,0,0,0-.072.676,6.634,6.634,0,0,0,5.742,2.7c.416.549,0,1.351-.6,1.743-.85.6-2.014.748-2.183,2.183a2.37,2.37,0,0,0,.289,1.447,4.493,4.493,0,0,0,2.762,1.924c5.47,1.671,11.38-1.266,15.476-5.265s7.032-9.046,11.049-13.117c2.225-2.25,4.752-4.179,7.044-6.363,4.571-4.354,8.124-9.65,11.555-14.951a16.683,16.683,0,0,0,2.5-5.09c.434-1.852.229-3.721.718-5.512.639-2.352,2.358-4.222,3.787-6.194,2.8-3.86,4.674-8.582,4.306-13.335s-3.317-9.451-7.8-11.067a6.936,6.936,0,0,0-4.372-.265c-1.839.567-3.2,2.087-4.451,3.54l-3.015,3.468a8.129,8.129,0,0,0-1.749,2.654,2.78,2.78,0,0,0,.6,2.949" transform="translate(-50.938 -71.304)" opacity="0.05"/>
      <path id="Trazado_282" data-name="Trazado 282" d="M561.31,468.7c-3.45,2.1-7.75,2.231-11.76,1.743-.645-.078-1.411-.127-1.809.374-.6.724.109,1.809.844,2.37a17.4,17.4,0,0,0,8.075,3.323,53.174,53.174,0,0,0,7.9.525c7.237.127,14.474.247,21.6-.79a3.057,3.057,0,0,0,1.206-.35,2.207,2.207,0,0,0,.892-1.357,5.383,5.383,0,0,0-1.876-5.138,15.745,15.745,0,0,0-5.036-2.7l-6.272-2.443c-1.472-.573-3.83-2.093-5.428-1.972C566.641,462.5,563.8,467.238,561.31,468.7Z" transform="translate(-50.938 -71.304)" fill="#3f3d56"/>
      <path id="Trazado_283" data-name="Trazado 283" d="M561.31,468.7c-3.45,2.1-7.75,2.231-11.76,1.743-.645-.078-1.411-.127-1.809.374-.6.724.109,1.809.844,2.37a17.4,17.4,0,0,0,8.075,3.323,53.174,53.174,0,0,0,7.9.525c7.237.127,14.474.247,21.6-.79a3.057,3.057,0,0,0,1.206-.35,2.207,2.207,0,0,0,.892-1.357,5.383,5.383,0,0,0-1.876-5.138,15.745,15.745,0,0,0-5.036-2.7l-6.272-2.443c-1.472-.573-3.83-2.093-5.428-1.972C566.641,462.5,563.8,467.238,561.31,468.7Z" transform="translate(-50.938 -71.304)" opacity="0.05"/>
      <path id="Trazado_284" data-name="Trazado 284" d="M565.706,385.434c-2.611,3.474-5.313,7.484-4.668,11.785.35,2.316,1.646,4.36,2.6,6.5a45.873,45.873,0,0,1,2.629,9.143c.977,4.547,1.96,9.107,2.557,13.727.682,5.217-2.521,20.312-2.816,25.565a5.4,5.4,0,0,1-1.1,3.546c-.344.362-.8.651-.959,1.122a1.918,1.918,0,0,0,.211,1.327,14.6,14.6,0,0,0,7.84,7.2c3.359,1.411,11.459,3.848,15.12,3.974a3.014,3.014,0,0,0,1.423-.187,2.768,2.768,0,0,0,1.1-1.261c2.623-5.018.1-22.857.139-28.521.036-4.722,1.152-9.414.947-14.131-.169-3.787-1.206-7.49-1.55-11.266-.6-6.188.531-12.406,1.671-18.521.868-4.692,1.743-9.384,2.859-14.016a26.912,26.912,0,0,1,3.016-8.136c1.206-1.948,2.9-3.576,4.306-5.428a24.5,24.5,0,0,0,4.825-17.936c-.084-.6-9.046,2.274-9.836,2.617a30.643,30.643,0,0,0-8.769,5.639c-2.075,1.978-3.709,4.62-5.524,6.833q-3.854,4.7-7.611,9.463Q569.819,379.922,565.706,385.434Z" transform="translate(-50.938 -71.304)" fill="#464353"/>
      <path id="Trazado_285" data-name="Trazado 285" d="M565.706,385.223c-2.611,3.474-5.313,7.49-4.668,11.785.35,2.322,1.646,4.366,2.6,6.507a45.817,45.817,0,0,1,2.629,9.137c.977,4.553,1.96,9.113,2.557,13.727.682,5.223-2.521,20.312-2.816,25.565a5.419,5.419,0,0,1-1.1,3.552c-.344.356-.8.645-.959,1.116a1.912,1.912,0,0,0,.211,1.327,14.772,14.772,0,0,0,7.84,7.237c3.359,1.447,11.459,2.708,15.12,2.829a3.015,3.015,0,0,0,1.423-.187,2.726,2.726,0,0,0,1.1-1.255c2.623-5.018.1-21.712.139-27.381.036-4.728,1.152-9.414.947-14.137-.169-3.787-1.206-7.49-1.55-11.26-.6-6.194.531-12.412,1.671-18.527.868-4.686,1.743-9.378,2.859-14.016a26.911,26.911,0,0,1,3.016-8.136c1.206-1.948,2.9-3.576,4.306-5.428a24.486,24.486,0,0,0,4.825-17.936c-.084-.6-9.047,2.274-9.837,2.617a30.787,30.787,0,0,0-8.769,5.645c-2.075,1.972-3.709,4.614-5.524,6.827q-3.854,4.7-7.611,9.469Q569.819,379.7,565.706,385.223Z" transform="translate(-50.938 -71.304)" opacity="0.05"/>
      <circle id="Elipse_116" data-name="Elipse 116" cx="14.637" cy="14.637" r="14.637" transform="translate(471.074 208.346)" fill="#fbbebe"/>
      <path id="Trazado_286" data-name="Trazado 286" d="M549.833,293.673a18.955,18.955,0,0,0,12.152,8.48l-1.1,4.011c-1.906,6.887-4.047,14.173-9.366,18.949a8.808,8.808,0,0,0-1.484-6.851,25.825,25.825,0,0,0-4.97-5.193l-8.425-7.3a2.539,2.539,0,0,1-.6-.712,2.141,2.141,0,0,1,0-1.6c1.074-3.341,4.137-5.428,6.634-7.683A22.974,22.974,0,0,0,546,291.888C547.686,289.487,548.729,291.9,549.833,293.673Z" transform="translate(-50.938 -71.304)" fill="#fbbebe"/>
      <path id="Trazado_287" data-name="Trazado 287" d="M517.368,279.572l-.332-2.75c2.31.6,4.505-1.363,5.983-3.4s2.847-4.427,5.1-5.277c2.732-1.025,5.627.6,8.238,1.978A26.048,26.048,0,0,0,545.8,273.2a6.218,6.218,0,0,1,1.562.253c1.7.6,2.509,2.738,2.756,4.674s.181,3.993,1.019,5.717c.6,1.309,1.725,2.28,2.412,3.57,1.809,3.462.06,8.2,1.948,11.592l-4.692-4.3c-.428-.392-1.031-.8-1.508-.47-.374.265-.4.838-.555,1.3a2.463,2.463,0,0,1-3.341,1.206,9.576,9.576,0,0,1-3.016-2.732,18.3,18.3,0,0,0-7.442-5.645,9.553,9.553,0,0,0-7.84.519c-2.189,1.236-3.793,4.119-6.477,4.222-3.679.139-5.211-6.712-6.912-9.42a3.317,3.317,0,0,0,.965-4.149C514.931,279.434,517.314,279.15,517.368,279.572Z" transform="translate(-50.938 -71.304)" fill="#464353"/>
      <path id="Trazado_288" data-name="Trazado 288" d="M336.324,194a28.476,28.476,0,0,0-3.251,3.414,6.833,6.833,0,0,0-1.5,4.385,2.244,2.244,0,0,0,.422,1.285,1.086,1.086,0,0,0,1.206.368,1.623,1.623,0,0,0,.6-.531,29.1,29.1,0,0,1,2.026-2.2c.259-.259.6-.531.953-.434a1.019,1.019,0,0,1,.41.271,2.775,2.775,0,0,1,.85,1.327,3.126,3.126,0,0,1-.935,2.569,6.583,6.583,0,0,0-1.574,2.328,1.031,1.031,0,0,0,0,.748,1.122,1.122,0,0,0,.47.4,6.731,6.731,0,0,0,5.693.374c1.206-.488,2.28-1.327,3.522-1.761a8.145,8.145,0,0,0,1.556-.6,3.233,3.233,0,0,0,1.381-2.069,8.529,8.529,0,0,0,.09-2.539,29.2,29.2,0,0,0-2.075-9.547,1.207,1.207,0,0,0-.35-.507,1.116,1.116,0,0,0-.6-.163c-1.544-.163-4.077-.953-5.567-.38a3.933,3.933,0,0,0-1.315,1.17C338.067,192.213,336.324,193.595,336.324,194Z" transform="translate(-50.938 -71.304)" fill="#a1616a"/>
      <path id="Trazado_289" data-name="Trazado 289" d="M335.835,192.636c0-1.472-1.809-5.024,1.068-5.259,0-1.574-2.225-2.551-1.809-4.222.133-.555.6-1.007.657-1.574.181-1.61-2.726-2.485-2.243-4.029.181-.6.82-.953.959-1.55.326-1.393-2.165-2.014-2.213-3.444,0-.482.271-.935.247-1.417,0-.6-.525-1.061-.814-1.586-.754-1.345-.386-3.426-1.761-4.119.911.078,1.206-1.273.832-2.1s-1.14-1.544-1.146-2.461a3.715,3.715,0,0,0,0-1c-.253-.881-1.695-.953-1.936-1.809a7.71,7.71,0,0,1-.03-.989c-.1-.682-.8-1.116-1.453-1.309a5.928,5.928,0,0,1-1.942-.694c-.422-.32-.911-.85-1.363-.6-.169.1-.253.3-.38.44-.543.633-1.58.356-2.262-.109-2.014-1.369-3.016-3.824-3.444-6.218s-.416-4.867-.953-7.237a15.471,15.471,0,0,0-.651-2.171,11.425,11.425,0,0,1-1.013-2.159c-.109-1.387,2.762-.44,3.854-.3a17.162,17.162,0,0,1,3.13.6,33.473,33.473,0,0,1,3.2,1.405c4.354,1.924,9.613,2.159,13.111,5.392,1.152,1.061,2.123,2.455,3.619,2.937a16.371,16.371,0,0,1,2.026.525c1.659.778,1.918,2.979,2.823,4.571a8.961,8.961,0,0,1,.742,1.327,5.113,5.113,0,0,1,.241,1.689l.127,4.179a154.125,154.125,0,0,1-.338,20.982c-.241,2.3-.6,4.662.078,6.869.181.6.434,1.17.6,1.779a10.857,10.857,0,0,1,.229,2.171l.1,2.708a.844.844,0,0,1-.133.6.868.868,0,0,1-.73.175c-3.769-.338-7.581-2.461-11.139-1.176" transform="translate(-50.938 -71.304)" fill="#464353"/>
      <ellipse id="Elipse_117" data-name="Elipse 117" cx="44.605" cy="6.447" rx="44.605" ry="6.447" transform="translate(412.308 316.506)" fill="#504f60"/>
      <path id="Trazado_290" data-name="Trazado 290" d="M546.226,394.571c-.784-3.359-1.273-6.308-1.273-6.308a13,13,0,0,0-1.459-6.4v-.917h0v-6.755a23.03,23.03,0,0,1,1.707-3.54c1.206-2.123,0-9.9,0-9.9s-4.505-10.97-3.414-17.93-9.252-30.9-9.252-30.9a30.51,30.51,0,0,1,.971-6.839,5.218,5.218,0,0,0,.133-1.435v-.121c-.157-4.59-3.787-13.19-3.787-13.19l.489-16.392s2.316-9.65-1.46-22.646c-1.321-4.529-2.165-8.154-2.7-10.952-.06-.314-.121-.6-.169-.911,7.774-1.206,13.714-2.171,13.714-2.171s-4.511-18.871-7.557-22.176-5.482-13.684-5.482-13.684-1.586-13.322.977-17.218,2.925-10.615,2.925-10.615,5.844-4.222,6.58-6.134a31.294,31.294,0,0,0,1.948-8.371c0-2.237-.73-4.222-.488-5.428s-1.707-5.663-.73-7.786a5.711,5.711,0,0,0,.386-2.044.262.262,0,0,0,0-.06h0a28.654,28.654,0,0,0-.513-5.536,15.711,15.711,0,0,0-5.79-3.094l-.127-.507-.332-1.327a6.434,6.434,0,0,0-.573-.338v-.482l-.054-1.918.917-4.306c1.809-7.49-8.2-8.606-8.2-8.606a5.277,5.277,0,0,0-2.835-2.485c-2.008-.706-.332,11.266.6,12.062.706.6,2.889,4.33,3.944,6.176h0l.169.3a4.223,4.223,0,0,0-.458.482l.38,2.6.06.4a10.787,10.787,0,0,0-1.6,2.72,5.868,5.868,0,0,1,1.466,4.222,13.523,13.523,0,0,0,.6,5.187c-.109-.127-1.393-1.514-2.678-1.176s-4.873,1.417-4.873,1.417-2.678.47-2.412,1.061-1.809,3.184-1.809,3.184l-7.2-6.827c-.072-.205-.151-.41-.211-.6a16.605,16.605,0,0,1-.6-3.015,16.473,16.473,0,0,0,2.3-.73,4.97,4.97,0,0,0,1.99-1.279,7.717,7.717,0,0,0,1.164-3.106c.567-2.1,1.809-3.962,2.672-5.959a19.371,19.371,0,0,0,1.357-10.723,7,7,0,0,0-1.1-3.136c-1.176-1.616-3.311-2.274-4.861-3.564s-2.551-3.263-4.36-4.222a8.648,8.648,0,0,0-5.464-.47,29.449,29.449,0,0,0-10.21,3.715c-1.049.6-2.207,1.345-3.414,1.122a4.457,4.457,0,0,1-2.461-1.809.119.119,0,0,0-.048-.193,12.72,12.72,0,0,0-1.122,5.392,6.639,6.639,0,0,0,.036.862v.549h0a1.375,1.375,0,0,1-.054.38,2.743,2.743,0,0,1-.675.971,6.508,6.508,0,0,0-.6.8.994.994,0,0,1,.1-.3,4.288,4.288,0,0,0-.748,2.274,2.322,2.322,0,0,0,.543,1.628,7.839,7.839,0,0,0,1.176.941,13.723,13.723,0,0,0-.217,2.412,13.938,13.938,0,0,0,6.791,11.887c.084.2.163.4.241.6a17.172,17.172,0,0,1,1.309,7.84,3.678,3.678,0,0,1-.084.567c-.03.187-.181.2-.259.3h0s-11.9.121-14.7-2.412-7.068,6.194-7.068,6.194-4.264.826-5.12,0-5.844-.115-5.844-.115a10.753,10.753,0,0,0-7.436-2.714,21.826,21.826,0,0,0-5.428-3.015h0l-.133-.048h0a6.079,6.079,0,0,0-2.684-.338s-5.85-4.825-7.557-7.43-9.831-12.225-9.867-12.267v-.464l-.09-1.4a5.014,5.014,0,0,1-.73.06c-.042-.139-.1-.3-.163-.488a26.978,26.978,0,0,0-1.725-3.962s0-1.767.513-2.213-.211-6.93-.211-6.93-5.271-12.321-9.993-3.124c0,0-8.926,5.953-1.435,12.888,0,0,3.016,1.447,3.414,2.593.277.742,1.291,2.822,1.972,4.222l.308.6-.084.072.109,1.158.048.446c-1.411.8-2.37,1.6-2.135,2.2a13.189,13.189,0,0,1,.85,3.184s10.361,12.979,11.7,18.521c0,0,27.785,16.513,36.922,17.689l-1.616,8.232a65.705,65.705,0,0,0-.362,6.725c.121,1.767-1.1,9.788-1.1,9.788s-1.586,11.8-2.925,13.449-1.1,8.727-1.1,8.727a59.621,59.621,0,0,1-1.809,10.023c-1.339,4.481-.368,10.03-.368,10.03s-4.626,10.615,6.459,3.42c0,0,5.428-.338,11.712-.555v.6c0,.808,0,1.683-.042,2.6-.084,6.079-.121,14.474.157,20.795.488,11.206,3.9,33.381,3.9,33.381V311.38a15.194,15.194,0,0,0-.326,3.184,20.723,20.723,0,0,0,3.015,11.151l.856,7.43s2,4.9,2.038,7.84a4.114,4.114,0,0,1-.084.706,4.746,4.746,0,0,0-.1,1.14c-.115,3.377,1.918,11.459,1.918,11.459s.121,8.136,1.339,8.612c1.043.4-1.393,4.686-2.117,5.916a1.684,1.684,0,0,1-.042-.229l-.151.241a5.776,5.776,0,0,0-.38,2.063,2.955,2.955,0,0,0,1.351,2.859c2.316,1.417,3.558,2.593,1.592,3.064a20.46,20.46,0,0,0-2.147.452.93.93,0,0,0-.1-.271,1.291,1.291,0,0,0-.8,1.423,6.031,6.031,0,0,0,.718,2.738,29.873,29.873,0,0,0,3.3,6.031l.935-.1a4.561,4.561,0,0,1-.543,1.007A3.883,3.883,0,0,1,485.4,389.3a4.257,4.257,0,0,1-1.671.573,4.7,4.7,0,0,0-3.45,1.677c-1.206,1.574-1.978,3.715.422,5.6l8.715,3.016s14.993,1.948,14.2-1.417-1.279-6.308-1.279-6.308a13.3,13.3,0,0,0-1.206-5.965,7.758,7.758,0,0,0-.531-.881l.531-.054s1.1-7.436,2.557-8.847c.338-.326.416-.6.338-.772.151-.4-.235-.639-.724-.778l-.109.3a7.109,7.109,0,0,0-1.453-.163s-.488-3.89,1.1-5.307a1.5,1.5,0,0,0,.308-1.158,6.224,6.224,0,0,0-.169-1.586.778.778,0,0,1-.054.1,57.136,57.136,0,0,0-3.5-9.149s-.121-3.534.856-4.951-.127-19.227-.127-19.227.368-8.606-.73-12.617,1.339-8.733,1.339-8.733v-.314l-.139-1.357a.351.351,0,0,0,0,.084c-.247-2.28-.712-6.411-1.055-8.317-.488-2.714.127-15.681.127-15.681l2.189-5.549,3.9,9.559,4.143,12.737a10.882,10.882,0,0,1,2.1,5.428v.4a6.957,6.957,0,0,0-.048.85,7.574,7.574,0,0,0,1.26,4.541s1.1,6.031,2.8,7.545,1.707,4.481,1.707,4.481,2.069,8.733,3.016,10.253c.82,1.291.862,4.825.856,5.928h0v.314s.289,3.124.277,5.742v.935a.259.259,0,0,0,0-.066,9.082,9.082,0,0,1-.253,2.123l-.036.121a1.538,1.538,0,0,1,.042-.44,22.164,22.164,0,0,0-.6,5.428c-.054,3.136.422,6.851,2.322,9.046,3.293,3.775,5.362,3.3,5.362,3.3s-1.58,4.716-3.534,5.663a.915.915,0,0,0-.205.133,2.055,2.055,0,0,0-.048-.277,2.3,2.3,0,0,0-.6,1.761,12.651,12.651,0,0,0,2.412,6.99,3.938,3.938,0,0,0,1.646.965,2.617,2.617,0,0,1-.308.187,6.556,6.556,0,0,1-.669.32,3.516,3.516,0,0,1-1,.259,4.644,4.644,0,0,0-3.45,1.677c-1.206,1.568-1.978,3.709.422,5.591l8.715,3.016S547.01,397.93,546.226,394.571Z" transform="translate(-50.938 -71.304)" fill="url(#linear-gradient)"/>
      <path id="Trazado_291" data-name="Trazado 291" d="M488.986,400.144l-8.443-3.016c-2.328-1.882-1.586-4.023-.41-5.6a4.511,4.511,0,0,1,3.341-1.677,4,4,0,0,0,1.61-.573,3.859,3.859,0,0,0,1.339-1.206,6.229,6.229,0,0,0,.959-3.263s9.264-2.714,11.8,0a6.856,6.856,0,0,1,1.122,1.646,13.781,13.781,0,0,1,1.206,5.965s.47,2.943,1.236,6.308S488.986,400.144,488.986,400.144Z" transform="translate(-50.938 -71.304)" fill="#2d293d"/>
      <path id="Trazado_292" data-name="Trazado 292" d="M530.262,395.982l-8.443-3.016c-2.328-1.882-1.586-4.023-.41-5.591a4.457,4.457,0,0,1,3.335-1.677,3.128,3.128,0,0,0,.965-.259,6.4,6.4,0,0,0,.651-.32c2.358-1.3,2.3-4.481,2.3-4.481s9.258-2.714,11.8,0a6.681,6.681,0,0,1,.887,1.206,13.4,13.4,0,0,1,1.411,6.4s.47,2.949,1.206,6.308S530.262,395.982,530.262,395.982Z" transform="translate(-50.938 -71.304)" fill="#2d293d"/>
      <path id="Trazado_293" data-name="Trazado 293" d="M499.185,384.807a6.856,6.856,0,0,1,1.122,1.646h0l-13.871,1.61a6.23,6.23,0,0,0,.959-3.263S496.652,382.093,499.185,384.807Z" transform="translate(-50.938 -71.304)" opacity="0.1"/>
      <path id="Trazado_294" data-name="Trazado 294" d="M541.353,381.858v2.6c-2.159,3.552-12.6,2.774-15.632,1a6.4,6.4,0,0,0,.651-.32c2.358-1.3,2.3-4.481,2.3-4.481s9.258-2.714,11.8,0a6.68,6.68,0,0,1,.887,1.206Z" transform="translate(-50.938 -71.304)" opacity="0.1"/>
      <path id="Trazado_295" data-name="Trazado 295" d="M543,370.652a23.635,23.635,0,0,0-1.647,3.54v9.318c-2.364,3.89-14.625,2.593-16.284.47s-3.389-7.647-1.526-8.606,3.42-5.663,3.42-5.663-2.008.47-5.193-3.3-2.237-12.146-1.646-14.149,0-8.727,0-8.727.121-4.722-.82-6.254-2.949-10.253-2.949-10.253,0-2.949-1.653-4.481-2.714-7.551-2.714-7.551a7.738,7.738,0,0,1-1.176-5.072c.35-2.949-2.008-6.134-2.008-6.134l-4.011-12.743-3.775-9.553-2.123,5.542s-.6,12.973-.115,15.681,1.206,9.909,1.206,9.909-2.358,4.716-1.3,8.727.676,12.629.676,12.629,1.061,17.8.115,19.221-.826,4.957-.826,4.957,4.825,10.373,3.3,11.791-1.061,5.307-1.061,5.307,3.3,0,1.888,1.417-2.479,8.847-2.479,8.847l-14.263,1.671a29.663,29.663,0,0,1-3.19-6.031c-1.888-4.385.35-3.89,2.25-4.366s.7-1.646-1.544-3.064-.941-4.6-.941-4.6,3.42-5.778,2.238-6.248-1.3-8.612-1.3-8.612-2.358-9.65-1.767-12.267-1.888-8.841-1.888-8.841l-.826-7.43a20.445,20.445,0,0,1-2.593-14.04V300.228s-3.3-22.17-3.775-33.375c-.3-7.177-.217-16.971-.121-23.081.06-3.426.121-5.7.121-5.7l50.95-5.307a42.57,42.57,0,0,0,.923,7.569c.525,2.8,1.339,6.423,2.617,10.952,3.655,12.973,1.417,22.64,1.417,22.64l-.476,16.4s4.481,10.964,3.54,14.74a31.441,31.441,0,0,0-.953,6.851s10.023,23.943,8.962,30.9,3.3,17.93,3.3,17.93S544.182,368.529,543,370.652Z" transform="translate(-50.938 -71.304)" fill="#464353"/>
      <path id="Trazado_296" data-name="Trazado 296" d="M513.87,309.209l15.512-2.069S520.595,316.108,513.87,309.209Z" transform="translate(-50.938 -71.304)" opacity="0.05"/>
      <path id="Trazado_297" data-name="Trazado 297" d="M527.138,291.984s.531,5.488-2.828,7.551C524.31,299.535,530.323,298.594,527.138,291.984Z" transform="translate(-50.938 -71.304)" opacity="0.1"/>
      <path id="Trazado_298" data-name="Trazado 298" d="M526.185,274.53s-12.967,10.675-17.683,9.788S526.185,274.53,526.185,274.53Z" transform="translate(-50.938 -71.304)" opacity="0.1"/>
      <path id="Trazado_299" data-name="Trazado 299" d="M494.643,314.214s-9.849,2.238-10.144,6.194S494.643,314.214,494.643,314.214Z" transform="translate(-50.938 -71.304)" opacity="0.1"/>
      <path id="Trazado_300" data-name="Trazado 300" d="M496.808,363.4s-13.913,2.593-9.963,4.36a67.544,67.544,0,0,0,10.44,3.184S501.778,371.183,496.808,363.4Z" transform="translate(-50.938 -71.304)" opacity="0.05"/>
      <g id="Grupo_17" data-name="Grupo 17" opacity="0.05">
        <path id="Trazado_301" data-name="Trazado 301" d="M484.035,370.574a2.744,2.744,0,0,1-1.272-2.014l-.145.247s-1.3,3.184.947,4.6c.253.163.5.326.724.482.416-.078.862-.139,1.291-.247C487.478,373.167,486.278,371.991,484.035,370.574Z" transform="translate(-50.938 -71.304)"/>
        <path id="Trazado_302" data-name="Trazado 302" d="M501.959,369.627c.386-.35.374-1.254.139-2.412a6.781,6.781,0,0,0-.79,3.414A2.943,2.943,0,0,1,501.959,369.627Z" transform="translate(-50.938 -71.304)"/>
        <path id="Trazado_303" data-name="Trazado 303" d="M499.818,310.952a16.086,16.086,0,0,0-.941,4.336,17.49,17.49,0,0,1,1.08-2.979Z" transform="translate(-50.938 -71.304)"/>
        <path id="Trazado_304" data-name="Trazado 304" d="M531.686,304.764a5.536,5.536,0,0,0,.127-1.291c-.175.881-.3,1.695-.386,2.412C531.5,305.518,531.589,305.168,531.686,304.764Z" transform="translate(-50.938 -71.304)"/>
        <path id="Trazado_305" data-name="Trazado 305" d="M499.486,352.885a7.557,7.557,0,0,0,.35-2.623,8.907,8.907,0,0,0-.682,3.311,3.169,3.169,0,0,1,.332-.687Z" transform="translate(-50.938 -71.304)"/>
        <path id="Trazado_306" data-name="Trazado 306" d="M502.381,375.127a46.812,46.812,0,0,0-1.622,7.237L486.5,384.011a29.663,29.663,0,0,1-3.19-6.031,10.923,10.923,0,0,1-.4-1.037c-.856.392-1.206,1.279-.072,3.866a30.145,30.145,0,0,0,3.2,6.031l14.263-1.652s1.061-7.43,2.473-8.847C503.485,375.658,503.038,375.3,502.381,375.127Z" transform="translate(-50.938 -71.304)"/>
        <path id="Trazado_307" data-name="Trazado 307" d="M483.564,353.946s.115,8.136,1.3,8.606h0c.6-1.345,1-2.623.464-2.835-1.206-.47-1.3-8.612-1.3-8.612s-2.358-9.65-1.767-12.267S480.374,330,480.374,330l-.826-7.43a20.445,20.445,0,0,1-2.593-14.04V297.068s-3.3-22.17-3.775-33.375c-.3-7.177-.217-16.971-.121-23.081,0-1.1.036-2.081.054-2.907l-.4.042s-.066,2.268-.121,5.7c-.1,6.109-.187,15.9.121,23.075.47,11.206,3.769,33.382,3.769,33.382v11.459a20.457,20.457,0,0,0,2.6,14.034l.82,7.43s2.479,6.248,1.888,8.847S483.564,353.946,483.564,353.946Z" transform="translate(-50.938 -71.304)"/>
        <path id="Trazado_308" data-name="Trazado 308" d="M525.552,380.833a13.792,13.792,0,0,1-2.262-5.6c-1.453,1.315.217,6.417,1.809,8.443,1.646,2.123,13.913,3.42,16.284-.476v-2.243C538.169,384.107,527.108,382.841,525.552,380.833Z" transform="translate(-50.938 -71.304)"/>
        <path id="Trazado_309" data-name="Trazado 309" d="M543.476,367.5a23.829,23.829,0,0,0-1.652,3.54v1.671a24.744,24.744,0,0,1,1.206-2.364,7.237,7.237,0,0,0,.519-2.925S543.494,367.48,543.476,367.5Z" transform="translate(-50.938 -71.304)"/>
        <path id="Trazado_310" data-name="Trazado 310" d="M526.276,369.368a23.3,23.3,0,0,0,1.164-2.8s-2.008.47-5.193-3.3c-2.316-2.744-2.449-7.931-2.117-11.32-.6,2.008-1.538,10.379,1.646,14.155C523.857,368.559,525.431,369.211,526.276,369.368Z" transform="translate(-50.938 -71.304)"/>
        <path id="Trazado_311" data-name="Trazado 311" d="M520.124,343.211a62.839,62.839,0,0,1,.235,6.99,9.528,9.528,0,0,1,.241-1.092c.6-2.008,0-8.727,0-8.727s.121-4.722-.826-6.254-2.919-10.265-2.919-10.265,0-2.949-1.653-4.481-2.714-7.551-2.714-7.551a7.761,7.761,0,0,1-1.206-5.072c.356-2.949-2-6.134-2-6.134l-4.011-12.737-3.775-9.553-2.129,5.548s0,.7-.072,1.809l1.725-4.505,3.775,9.535,4.011,12.737s2.358,3.184,2,6.134a7.762,7.762,0,0,0,1.206,5.072s1.061,6.031,2.714,7.551,1.646,4.481,1.646,4.481,2.008,8.727,2.949,10.253S520.124,343.211,520.124,343.211Z" transform="translate(-50.938 -71.304)"/>
      </g>
      <path id="Trazado_312" data-name="Trazado 312" d="M530.027,126.216l-.887,4.306.054,1.918.036,1.411-4.921.507-.549-1.019h0c-1.019-1.845-3.136-5.6-3.818-6.176-.911-.76-2.533-12.737-.6-12.026a5.144,5.144,0,0,1,2.738,2.479S531.77,118.726,530.027,126.216Z" transform="translate(-50.938 -71.304)" fill="#ffcdd3"/>
      <path id="Trazado_313" data-name="Trazado 313" d="M529.231,133.852l-4.921.507-.549-1.019h0a4.336,4.336,0,0,1,5.428-.893Z" transform="translate(-50.938 -71.304)" opacity="0.1"/>
      <path id="Trazado_314" data-name="Trazado 314" d="M530.473,136.186l-6.489,1.5-.139-.965-.368-2.6a4.466,4.466,0,0,1,6.284-.856l.326,1.321Z" transform="translate(-50.938 -71.304)" fill="#6c63ff"/>
      <path id="Trazado_315" data-name="Trazado 315" d="M425.353,126.687l-6.93,3.715-.6-1.3c-.657-1.381-1.64-3.462-1.912-4.222-.41-1.146-3.3-2.593-3.3-2.593C405.373,115.355,414,109.4,414,109.4c4.571-9.2,9.65,3.124,9.65,3.124s.712,6.5.211,6.93-.5,2.213-.5,2.213a27.22,27.22,0,0,1,1.671,3.962C425.239,126.283,425.353,126.687,425.353,126.687Z" transform="translate(-50.938 -71.304)" fill="#ffcdd3"/>
      <path id="Trazado_316" data-name="Trazado 316" d="M425.353,126.687l-6.93,3.715-.6-1.3c.977-.82,4.445-3.619,5.585-3.5a8.348,8.348,0,0,0,1.64.042C425.239,126.283,425.353,126.687,425.353,126.687Z" transform="translate(-50.938 -71.304)" opacity="0.1"/>
      <path id="Trazado_317" data-name="Trazado 317" d="M426.059,128.78l-7.786,3.836-.157-1.671-.109-1.158s4.511-3.866,5.844-3.715a7.087,7.087,0,0,0,2.032,0l.09,1.4Z" transform="translate(-50.938 -71.304)" fill="#6c63ff"/>
      <path id="Trazado_318" data-name="Trazado 318" d="M511.156,154.821s-33.942,3.83-27.6,1.767c4.415-1.441,6.17-4.222,6.538-7.358a17.675,17.675,0,0,0-1.26-7.84,34.183,34.183,0,0,0-3.015-6.134s25.933-14.269,20.753-1.3a20.916,20.916,0,0,0-1.472,6.146,17.362,17.362,0,0,0,.669,6.224,18.533,18.533,0,0,0,5.386,8.492Z" transform="translate(-50.938 -71.304)" fill="#ffcdd3"/>
      <path id="Trazado_319" data-name="Trazado 319" d="M506.554,133.942a20.917,20.917,0,0,0-1.472,6.146c-2.443,2.057-5.12,1.918-8.564,1.918-2.642,0-5.573.639-7.683-.633a34.183,34.183,0,0,0-3.015-6.134S511.747,120.969,506.554,133.942Z" transform="translate(-50.938 -71.304)" opacity="0.1"/>
      <circle id="Elipse_118" data-name="Elipse 118" cx="14.034" cy="14.034" r="14.034" transform="translate(431.089 43.538)" fill="#ffcdd3"/>
      <path id="Trazado_320" data-name="Trazado 320" d="M511.156,154.821s-33.942,3.83-27.6,1.767c4.415-1.441,6.17-4.222,6.538-7.358,1.689-1.809,5.084-3.154,7.237-3.854a10.156,10.156,0,0,1,6.152-.1,8.745,8.745,0,0,1,2.238,1.037A18.533,18.533,0,0,0,511.156,154.821Z" transform="translate(-50.938 -71.304)" opacity="0.1"/>
      <path id="Trazado_321" data-name="Trazado 321" d="M530.473,136.186l-6.489,1.5-.139-.965a5.741,5.741,0,0,1,6.242-2.135Z" transform="translate(-50.938 -71.304)" opacity="0.1"/>
      <path id="Trazado_322" data-name="Trazado 322" d="M426.059,128.78l-7.786,3.836-.157-1.671a56.789,56.789,0,0,1,7.84-3.48Z" transform="translate(-50.938 -71.304)" opacity="0.1"/>
      <path id="Trazado_323" data-name="Trazado 323" d="M524.581,240.347c-13.154,2.1-31.85,4.777-34.817,3.872-2.467-.748-10.331-.669-17.176-.434.06-3.426.121-5.7.121-5.7l50.95-5.307A42.578,42.578,0,0,0,524.581,240.347Z" transform="translate(-50.938 -71.304)" opacity="0.1"/>
      <path id="Trazado_324" data-name="Trazado 324" d="M537.692,237.259s-43.284,7.43-47.928,6.031-28.5.115-28.5.115c-10.735,7.195-6.254-3.42-6.254-3.42s-.941-5.542.356-10.023a61.242,61.242,0,0,0,1.779-10.036s-.235-7.08,1.061-8.733,2.835-13.443,2.835-13.443,1.176-8.021,1.061-9.788.35-6.725.35-6.725l1.538-8.256c-8.847-1.176-35.74-17.689-35.74-17.689-1.3-5.542-11.32-18.515-11.32-18.515a13.649,13.649,0,0,0-.826-3.184c-.706-1.888,9.909-5.663,9.909-5.663s7.9,9.65,9.553,12.267,7.31,7.43,7.31,7.43a5.687,5.687,0,0,1,2.593.338l.139.042h0a21.024,21.024,0,0,1,5.277,3.015,10.253,10.253,0,0,1,7.195,2.714s4.825-.712,5.663.115,4.951,0,4.951,0,4.125-8.727,6.839-6.194,14.227,2.412,14.227,2.412c1.532-2.038,5.265-3.5,7.6-4.222a10.2,10.2,0,0,1,6.152-.1,7.8,7.8,0,0,1,2.412,1.206l7,6.839s2-2.6,1.767-3.184,2.358-1.061,2.358-1.061,3.42-1.061,4.716-1.417,2.485,1.049,2.593,1.176a14.1,14.1,0,0,1-.6-5.187,6.127,6.127,0,0,0-1.417-4.222c4.125-10.144,13.443-1.652,13.443-1.652s1.061,5.542.121,7.665.941,6.6.706,7.786.476,3.184.476,5.428a33.161,33.161,0,0,1-1.888,8.371c-.682,1.888-6.369,6.134-6.369,6.134s-.356,6.725-2.835,10.615-.923,17.194-.923,17.194,2.358,10.379,5.307,13.684S537.692,237.259,537.692,237.259Z" transform="translate(-50.938 -71.304)" fill="#3f3d56"/>
      <path id="Trazado_325" data-name="Trazado 325" d="M474.6,159.652s-1.3-3.89-2.479-4.222a27.283,27.283,0,0,1-3.42-1.532l.76-1.453s4.427,1.206,5.138,2.515S474.6,159.652,474.6,159.652Z" transform="translate(-50.938 -71.304)" opacity="0.1"/>
      <path id="Trazado_326" data-name="Trazado 326" d="M450.888,151.046c-.235,1.206-10.735,2.238-10.735,2.238l5.307-5.319h0l.133.048h0a21.025,21.025,0,0,1,5.3,3.034Z" transform="translate(-50.938 -71.304)" opacity="0.1"/>
      <circle id="Elipse_119" data-name="Elipse 119" cx="0.941" cy="0.941" r="0.941" transform="translate(368.638 62.614)" fill="#575988"/>
      <circle id="Elipse_120" data-name="Elipse 120" cx="0.941" cy="0.941" r="0.941" transform="translate(369.844 64.501)" fill="#575988"/>
      <circle id="Elipse_121" data-name="Elipse 121" cx="0.941" cy="0.941" r="0.941" transform="translate(371.026 66.244)" fill="#575988"/>
      <circle id="Elipse_122" data-name="Elipse 122" cx="0.941" cy="0.941" r="0.941" transform="translate(372.262 68.126)" fill="#575988"/>
      <circle id="Elipse_123" data-name="Elipse 123" cx="0.766" cy="0.766" r="0.766" transform="translate(483.613 68.198)" fill="#575988"/>
      <circle id="Elipse_124" data-name="Elipse 124" cx="0.766" cy="0.766" r="0.766" transform="translate(483.733 69.941)" fill="#575988"/>
      <circle id="Elipse_125" data-name="Elipse 125" cx="0.766" cy="0.766" r="0.766" transform="translate(483.836 71.678)" fill="#575988"/>
      <path id="Trazado_327" data-name="Trazado 327" d="M474.638,191.616c-.115-.139,26.476,33.436,47.114,14.034C521.771,205.657,489.161,210.077,474.638,191.616Z" transform="translate(-50.938 -71.304)" opacity="0.1"/>
      <path id="Trazado_328" data-name="Trazado 328" d="M459.38,209.07s15.91.434,17.574,5.012v4.764a3.052,3.052,0,0,1-2.961,0c-1.6-.868-11.224-5.754-14.613-3.4Z" transform="translate(-50.938 -71.304)" opacity="0.1"/>
      <path id="Trazado_329" data-name="Trazado 329" d="M459.676,209.07s15.216.416,16.808,4.783v4.535a2.919,2.919,0,0,1-2.835,0c-1.532-.82-10.729-5.482-13.974-3.239Z" transform="translate(-50.938 -71.304)" fill="#3f3d56"/>
      <path id="Trazado_330" data-name="Trazado 330" d="M468.065,174.525a51.194,51.194,0,0,0,6.17,10.584,41.529,41.529,0,0,0,9.65,9.33S468.33,176.708,468.065,174.525Z" transform="translate(-50.938 -71.304)" opacity="0.1"/>
      <path id="Trazado_331" data-name="Trazado 331" d="M462.86,156.04s2.654,11.459,9.493,15.349Z" transform="translate(-50.938 -71.304)" opacity="0.1"/>
      <path id="Trazado_332" data-name="Trazado 332" d="M458.789,157.2c-.066-.211-2.358,9.046,8.817,14.191C467.606,171.389,462.86,169.778,458.789,157.2Z" transform="translate(-50.938 -71.304)" opacity="0.1"/>
      <path id="Trazado_333" data-name="Trazado 333" d="M528.26,149.514c-.175,0,5.512,3.619,7.062,5.307C535.322,154.821,531.619,149.273,528.26,149.514Z" transform="translate(-50.938 -71.304)" opacity="0.1"/>
      <path id="Trazado_334" data-name="Trazado 334" d="M492.267,141.6a2.213,2.213,0,0,0,2.412,2.189c4.276.265,8.733.452,12.665-1.206a4.825,4.825,0,0,0,1.93-1.279,7.935,7.935,0,0,0,1.122-3.106,45.159,45.159,0,0,1,2.587-5.959,19.963,19.963,0,0,0,1.393-10.705,7.236,7.236,0,0,0-1.074-3.13c-1.134-1.622-3.2-2.28-4.7-3.57s-2.467-3.263-4.222-4.222a8.105,8.105,0,0,0-5.3-.47,27.8,27.8,0,0,0-9.879,3.709c-1.019.6-2.135,1.345-3.3,1.122a4.42,4.42,0,0,1-2.412-1.864,13.064,13.064,0,0,0-1.007,6.121,2.63,2.63,0,0,1-.03.923,2.775,2.775,0,0,1-.657.971c-1.055,1.206-1.713,3.166-.669,4.409.452.537,1.152.832,1.592,1.381.79.983.525,2.412.507,3.667a1.887,1.887,0,0,0,.314,1.242,1.809,1.809,0,0,0,1.731.416,4.71,4.71,0,0,1,1.845-.175,3.094,3.094,0,0,1,1.6,1.206C490.663,135.806,491.435,138.568,492.267,141.6Z" transform="translate(-50.938 -71.304)" fill="#2d293d"/>
      <g id="Grupo_18" data-name="Grupo 18" opacity="0.1">
        <path id="Trazado_335" data-name="Trazado 335" d="M509.775,140.232a4.825,4.825,0,0,1-1.93,1.279c-3.956,1.646-8.407,1.46-12.665,1.206a2.22,2.22,0,0,1-2.418-2.2c-.832-3.015-1.6-5.784-3.576-8.3a3.1,3.1,0,0,0-1.6-1.236,4.946,4.946,0,0,0-1.845.175,1.809,1.809,0,0,1-1.731-.41,1.888,1.888,0,0,1-.314-1.242c0-1.266.283-2.684-.507-3.667-.44-.549-1.14-.844-1.592-1.387a2.75,2.75,0,0,1-.271-2.81c-.754,1.206-1.074,2.72-.2,3.757.452.537,1.152.832,1.592,1.381.79.989.525,2.412.507,3.667a1.875,1.875,0,0,0,.308,1.242,1.809,1.809,0,0,0,1.737.416,4.71,4.71,0,0,1,1.845-.175,3.094,3.094,0,0,1,1.6,1.206c1.972,2.515,2.744,5.277,3.576,8.3a3.015,3.015,0,0,0,1.043,1.912,2.925,2.925,0,0,0,1.327.289c4.276.265,8.733.458,12.665-1.206a4.777,4.777,0,0,0,1.93-1.279,3.686,3.686,0,0,0,.6-1.134A.3.3,0,0,1,509.775,140.232Z" transform="translate(-50.938 -71.304)"/>
        <path id="Trazado_336" data-name="Trazado 336" d="M482.479,119.781a2.063,2.063,0,0,0,.428-.712,2.628,2.628,0,0,0,0-.923,13.081,13.081,0,0,1,.657-5.078l-.078-.09a12.967,12.967,0,0,0-1.007,6.115,4.357,4.357,0,0,1,0,.688Z" transform="translate(-50.938 -71.304)"/>
      </g>
      <path id="Trazado_337" data-name="Trazado 337" d="M489.764,150.1s17.532,2.328,19.106-.308" transform="translate(-50.938 -71.304)" opacity="0.1"/>
      <path id="Trazado_338" data-name="Trazado 338" d="M523.845,142.844s9.746,0,11.887,3.667" transform="translate(-50.938 -71.304)" opacity="0.1"/>
      <path id="Trazado_339" data-name="Trazado 339" d="M578.371,468.607a15.458,15.458,0,0,1-10.524,3.932c-.989,0-2.358.187-2.364,1.176a1.658,1.658,0,0,0,.289.808,9.679,9.679,0,0,0,5.428,4.264,19.184,19.184,0,0,0,6.568.416l6.423-.332c1.206-.066,2.412-.127,3.619-.277s2.521-.4,3.781-.6a49.456,49.456,0,0,1,9.354-.434,2.832,2.832,0,0,0,2.3-.6c.495-.6.241-1.755.054-2.66-.386-1.864,0-3.818-.356-5.687-.6-3.281-3.444-5.8-6.556-6.984-2.895-1.1-8.021-2.358-10.759-.525C582.744,463.023,580.977,466.237,578.371,468.607Z" transform="translate(-50.938 -71.304)" fill="#3f3d56"/>
      <path id="Trazado_340" data-name="Trazado 340" d="M584.752,358.687c.567,2.7,3.178,4.758,3.251,7.509.066,2.207-1.508,4.059-2.642,5.947a39.671,39.671,0,0,0-2.7,6.1,93.227,93.227,0,0,1-7.913,15.741c-1.508,2.412-3.2,4.988-2.853,7.792a11.674,11.674,0,0,0,1.369,3.727l4.523,8.986a26.022,26.022,0,0,1,2.31,5.675c.392,1.707.428,3.474.657,5.211.712,5.512,3.3,11.061,1.767,16.4-.133.458-.6,1.013-.971.694,1.5,2.792,2.7,5.6,2.581,8.769-.06,1.659-.567,3.389.042,4.933a5.4,5.4,0,0,1,.706,1.942,12.379,12.379,0,0,1-.259,1.333c-.127,1.273,1.043,2.334,2.256,2.738s2.533.374,3.757.742c2.352.706,4.035,2.732,6.031,4.137a12.84,12.84,0,0,0,6.948,2.262,1.749,1.749,0,0,0,1.025-.205,1.658,1.658,0,0,0,.567-1.242,6.9,6.9,0,0,0-2.485-5.995,2.713,2.713,0,0,1-.923-.965,2.328,2.328,0,0,1-.084-1.08,81.286,81.286,0,0,0-.265-14.836,22.527,22.527,0,0,1-.235-4.722,19.293,19.293,0,0,0,.38-3.926,20.854,20.854,0,0,0-1.206-3.763c-.7-2.243-.507-4.656-.6-7a61.41,61.41,0,0,0-1.984-12.062,9.122,9.122,0,0,0-1.876-4.354c-.941-.983-2.461-1.924-2.1-3.233a3.831,3.831,0,0,1,.862-1.285,5.157,5.157,0,0,0,1.074-3.932,1.767,1.767,0,0,0,2.032-.953,31.8,31.8,0,0,0,15.91-18.093,5.971,5.971,0,0,1,.712-1.616,7.283,7.283,0,0,1,2.913-1.888c3.293-1.659,5.567-4.764,7.653-7.8a13.794,13.794,0,0,0,3.359-9.74l.187-7.086a3.828,3.828,0,0,0-.133-1.387,3.467,3.467,0,0,0-.766-1.122,13.624,13.624,0,0,0-7.515-4.053c-1.93-.344-3.9-.277-5.856-.44-3.787-.314-7.527-1.49-11.314-1.206-5.953.44-11.254,4.565-14.058,9.837C587.9,357.034,586.863,358.651,584.752,358.687Z" transform="translate(-50.938 -71.304)" fill="#464353"/>
      <path id="Trazado_341" data-name="Trazado 341" d="M551.7,312.61a7.919,7.919,0,0,1-.434,3.227,2.254,2.254,0,0,1-2.648,1.357c.308-.694-.507-1.484-1.266-1.4a2.37,2.37,0,0,0-1.671,1.435,5.337,5.337,0,0,0-.482,3.275c.241,1.387,1.043,2.72.832,4.113-.169,1.158-1.019,2.31-.567,3.383a5.479,5.479,0,0,0,1.092,1.309,3.691,3.691,0,0,1-.392,5.066l11.411.229c-.416,1.906.44,3.854,1.417,5.549a34.98,34.98,0,0,0,26.078,17.025,2.268,2.268,0,0,0-.549,3.468,3.222,3.222,0,0,0,3.667.211,26.092,26.092,0,0,0,3.136-2.352,9.649,9.649,0,0,1,6.447-1.737c1.429.139,2.816.6,4.252.675,4.222.223,7.84-2.816,11.905-4.059,2.961-.911,6.32-.911,8.805-2.762a3.509,3.509,0,0,0,1.64-3.4,5.675,5.675,0,0,0-1.206-2,34.484,34.484,0,0,1-3.3-6.182A36.979,36.979,0,0,0,611.626,328a73.76,73.76,0,0,0-8.178-6.2,13.947,13.947,0,0,0-2.207-1.333,24.741,24.741,0,0,1-3.016-1.206c-1.339-.844-2.111-2.334-3.142-3.534-2.262-2.642-5.735-3.854-8.522-5.928-1.87-1.393-3.522-3.227-5.754-3.9-1.086-.332-2.237-.356-3.323-.682-2.467-.748-4.264-2.937-6.682-3.824-1.912-.7-4.023-.519-6.031-.766a14.118,14.118,0,0,1-6.3-2.4,7.478,7.478,0,0,0-2.008-1.17c-3.058-.929-3.3,4.764-3.619,6.737C552.438,306.73,551.7,309.643,551.7,312.61Z" transform="translate(-50.938 -71.304)" fill="#6c63ff"/>
      <path id="Trazado_342" data-name="Trazado 342" d="M554.682,331.7c.513,5.561-3.685,10.946-2.461,16.392.259,1.158.76,2.262.941,3.438.513,3.227-1.417,6.284-3.257,8.986l-15.8,23.189a14.582,14.582,0,0,1-2.256,2.786c-3.016,2.684-7.551,2.412-11.519,3.208a19.9,19.9,0,0,0-7.72,3.414.5.5,0,0,0-.1.694,6.634,6.634,0,0,0,5.735,2.7c.416.543,0,1.351-.573,1.743-.844.6-2.014.742-2.183,2.183a2.412,2.412,0,0,0,.289,1.447,4.5,4.5,0,0,0,2.762,1.918c5.47,1.677,11.38-1.266,15.475-5.265s7.032-9.046,11.049-13.111c2.225-2.256,4.752-4.179,7.044-6.363,4.571-4.36,8.13-9.65,11.555-14.951a16.546,16.546,0,0,0,2.5-5.09c.428-1.852.229-3.727.718-5.518.639-2.346,2.358-4.222,3.787-6.188,2.8-3.86,4.68-8.582,4.306-13.341s-3.317-9.451-7.8-11.067a7.014,7.014,0,0,0-4.372-.265c-1.839.567-3.2,2.087-4.451,3.546l-3.015,3.462a8.074,8.074,0,0,0-1.695,2.66,2.78,2.78,0,0,0,.6,2.955" transform="translate(-50.938 -71.304)" fill="#fbbebe"/>
      <path id="Trazado_343" data-name="Trazado 343" d="M562.691,308.895c-2.075.121-4.36.326-5.826,1.809a8.3,8.3,0,0,0-1.471,2.3c-1.423,2.9-2.81,5.935-2.913,9.167-.084,2.581.663,5.108,1.055,7.659.326,2.123-.5,4.288-.657,6.435a44.664,44.664,0,0,0,8.311-3.2,27.829,27.829,0,0,1,4.867-2.527c2.479-.826,6.634.6,8.992,1.749.127-1.652-1.116-4.535-.983-6.194a6.917,6.917,0,0,1,.368-2.051,12.444,12.444,0,0,1,1.249-1.984,8.118,8.118,0,0,0-.73-9.511c-2.093-2.352-5.368-3.233-8.492-3.619a36.724,36.724,0,0,0-5.928-.205" transform="translate(-50.938 -71.304)" fill="#6c63ff"/>
    </g>
  </g>
</svg>
